<mxfile host="65bd71144e">
    <diagram id="wxQDsGm2aqi1hAHj8EYZ" name="第 1 页">
        <mxGraphModel dx="1593" dy="2063" grid="1" gridSize="10" guides="1" tooltips="1" connect="1" arrows="1" fold="1" page="1" pageScale="1" pageWidth="827" pageHeight="1169" math="0" shadow="0">
            <root>
                <mxCell id="0"/>
                <mxCell id="1" parent="0"/>
                <mxCell id="2" style="edgeStyle=none;html=1;fontSize=18;exitX=1.017;exitY=0.341;exitDx=0;exitDy=0;exitPerimeter=0;endSize=14;" edge="1" parent="1" source="3">
                    <mxGeometry relative="1" as="geometry">
                        <mxPoint x="980" as="targetPoint"/>
                    </mxGeometry>
                </mxCell>
                <mxCell id="3" value="" style="rounded=0;whiteSpace=wrap;html=1;" vertex="1" parent="1">
                    <mxGeometry x="60" y="-280" width="120" height="820" as="geometry"/>
                </mxCell>
                <mxCell id="4" value="客户端" style="text;html=1;align=center;verticalAlign=middle;resizable=0;points=[];autosize=1;strokeColor=none;fillColor=none;" vertex="1" parent="1">
                    <mxGeometry x="90" y="-335" width="60" height="30" as="geometry"/>
                </mxCell>
                <mxCell id="5" style="edgeStyle=none;html=1;fontSize=18;endSize=14;entryX=1.007;entryY=0.587;entryDx=0;entryDy=0;entryPerimeter=0;" edge="1" parent="1" target="3">
                    <mxGeometry relative="1" as="geometry">
                        <mxPoint x="980" y="200" as="sourcePoint"/>
                    </mxGeometry>
                </mxCell>
                <mxCell id="6" value="" style="rounded=0;whiteSpace=wrap;html=1;" vertex="1" parent="1">
                    <mxGeometry x="990" y="-280" width="120" height="820" as="geometry"/>
                </mxCell>
                <mxCell id="7" value="服务端" style="text;html=1;align=center;verticalAlign=middle;resizable=0;points=[];autosize=1;strokeColor=none;fillColor=none;" vertex="1" parent="1">
                    <mxGeometry x="1020" y="-335" width="60" height="30" as="geometry"/>
                </mxCell>
                <mxCell id="8" value="orderDetails" style="text;html=1;align=center;verticalAlign=middle;resizable=0;points=[];autosize=1;strokeColor=none;fillColor=none;fontSize=20;" vertex="1" parent="1">
                    <mxGeometry x="490" y="-360" width="130" height="40" as="geometry"/>
                </mxCell>
                <mxCell id="9" value="请求订单详情" style="text;html=1;align=center;verticalAlign=middle;resizable=0;points=[];autosize=1;strokeColor=none;fillColor=none;fontSize=18;" vertex="1" parent="1">
                    <mxGeometry x="490" y="-330" width="130" height="40" as="geometry"/>
                </mxCell>
                <mxCell id="67" value="" style="shape=image;verticalLabelPosition=bottom;labelBackgroundColor=default;verticalAlign=top;aspect=fixed;imageAspect=0;image=data:image/png,iVBORw0KGgoAAAANSUhEUgAAA3AAAAFJCAYAAADaAM+bAAAgAElEQVR4nOzdfWwj550n+G879nhtZ5KZnamOommlTTpKIyKUPUnZ1lILYwcXR+IBLVUT62CBATJnQE0ZjJCDTkKQarZv/0rLNAIJwg40vEgtrG8CzB4mObBLErAU4yxm4RlypXVLO9FSM23GpDvUdBRVZhBPxjacjO37o96eKlbxRaLe3N8PYCRdLFY99aunis/veZ4qnQtM/88PQURERERERKfew3/3xn876TIQERERERFRAx466QIQERERERFRY5jAERERERERnRFM4IiIiIiIiM6IFiZwT+G7M6N4/WtPOZZ+64VRvDXzJXyldTsiIiIiIiJ6IJ37xOitFr2F8il85WvduNX7OH70JvCFJx/zXu2tN3Ft6of4nmPhZbx6qxuf2vxzfG7rSbw++imsL/0pvprXP/3K1/4At576mcf3PIS/hNdHnwQ2/xyf++M3gGev4q3I41gWtkdEREREdKp95jF853O1x1pKr7+Nl34iLnkE33zmYWy+8i5+8JnH8J3z/4TnX/u161sP4Q+ffhQ/ffVd/MBnn//wt+/iG3/9Ab78xcfx6R+/gz/5BRD8/OP45u+dc67/3j/hpVffA7w+q/Ih/vI1fVt0OA+3blNv4Ht//EZVgvWtF0bx9d/2Str8vIn1N5/EyLNfwlfy7u88he/O/D5GPln9rR9llvD09/Xv37j2JkZmfh9v3erG8ubjBzoaIiIiIqIT85N38fxP/D8Ofv5x1wy3R/DNZx7BT197R0/MfvIuvn/+CXz78+/jG3/9gc9WHsIfPv0Y/vWj5r8/wPdfedtK7H7w4/fx7c8+AhhJoDNhfATffNpOMK3PfBLHL3/xcXy67kFTIzwTuI8/+jH82y9Ivl/6/36k4R/fe9+x7Ctf+wPc6n0MeHMbn/zhb+L10SfxKevTJ3Hr1ihuAfrnf9OOtyK/U73h3t/HW73id/4drr/1cTz1SePfM8C1qSV81a9g4S/h9dHfxJ/lb+OrU29Y5RrxPRIiIiIiotNIT5C+9+p7KNVZUx8d+xDff+Udx6jaD157G/jiE/jO0/pIWUkc1XvmCQz+7a+wjQ/w/Vfco3HOxO7bn38fKfOjzzyGbz/xHr7x1x4F+a1H8e3PPQTgN/CdZ37DWlx6/W1sNn7gVIdnAtf2m4/iuX/pnyP/7Je/QuZv/t6x7Ht//Kf4Fy+M4usAkP8hPmdMV/Qbgfvk98VvC1Mo//gN196MUTc0Mor3Jv5ssx9fv/UHuMgpk0RERET0UfdbjyL+xK/x/CvuqZK6H7z2Nn7wW4/i2888gZ+//jaef0WYZomH8IdPe6UDH+BPXn0bfwLgy198Ar1vfwA8UaccTzyKb3/uYXwCztG4bz/xHl76CfDl84c7TLJ5JnA//vk7+H/++x7+93/ZVvXZX5R/UZW8Of0mvjsz6prmKIzA4V0sL/0plnv+ALd638EfXbuNF4y1PtXbjW/hDbxgJG39b+jPxPV/EsBbsJ5v+xQ8vLmNT35rAy/k38ALz17FW6NX8a38beCfPwbg73CPyRwRERERnSWPPoxvPuP/xFPpdQC/eA/feO0RfPOZJxD0Xe9tfOOV9wAAwc8/giDOIfjMY8Ar7wF4CM8+8wSedXxDf17tLz79OJ7Fr/D8T4Dg5+uU9e33jH08hD98+gl853OAPiXTb/omHZRvjXj5v/8U/6L94/hffu/j1rKf/fJXeOm/1JiMCwD4Jb46tY1Xb3UD1nNpgDnKhow+MvYVrOMa+nHr1lXg2n1jnd/B128Zo3hvvYk/2gK+9SUjYfvkk7jZ8+f43LUfAjCnbIoJ4FNViePXb41Wbxewkj0iIiIiolPLeEmI1xRK5zNwv8ZLr/waXtMuv/zFx/HpfzDXewRf+d0PUXrvQ2y++k/offpRQJhCKb60BJ95DN/5vXMAfgPf/MyvHbPgPvF7/wx/+FPXiN95c3rmh/jL197G87/Q9/fNZ57As+/9E/7y3cOHg3Q1X2Lyf2VK+H+/GsITv/ExAMAL/7lc9exbLV+IjOKtiHPZj4z//V7+DSD/hj7t8pb+PNzPNt/Ez3qfFBK/p/DdZ9/V32r52+/gZ//8SXzra/34+lM/wx8ZMy3/zQujeMuYomk+92Zxv5GSiIiIiOgjoPTX7+Al98Lfegi/++4H/s/MfeZh4N57+OnFRwH8Gi+9Cnzz6Yfg1Ur+8nng+69/gMEn3sPmeSNZfBv48vlz+If3PL6w/y6efw164vfFJ/CvAZjJ3Eu/4EtMWqnmu0n/8b33MXH7x/gff/uPeOm/3MOPf/5OA5tsx3e/9psA9DdDfvKa+d+2lbzh2at469Yo3ro1iq8/CfwoY372Jp6+tg1ERvHWC5cBvIF7+R/jP/w9APwS/+Fbv8S/6X0MP3vjTfyVsan/+sM38bNPPon/wznu65hu+ane38dbt/4A3w03FBMiIiIiotPvM4/h25+3m/Nf/uzD+Pm+ODL2ED4t/mWvn7zr/LMDn3kYQZ+E7wev2S82+cFr7+Cl197BS3gMz+LXyL4L6Amga3TQeElK6fW38fwrb+P5V/hnA45C3T/k/eOfv4P/Uy3Wee5N8OTjwNYvARgjcLfM/7rxBXOd79/Hj/Aulpf05O5pxwtNNvD0tSX8Ebrx1q2rwPftqY4jL3TjC2+9iRviaFr+h/izN4EvhM0/Fq5PpXxr9El86s1tI3n8cyy/9RhGRqv/0DgRERER0enzPn6Kh1Cr5Rp84hx+/rb+jNmXv/gEnsWvXH8X7mP49KMf4qc+SdSXzz+E0r73y0+qfOYxfOfiB3jJ8ecBHsE3n34Uv2f+8yfv4vlX3sbm+SfwnWeM/55+1PfZPDqYFv4dOOCv/v5d/Ohv/hRfzV/Gq6Pi32aDPZ0RgJ6kbcB8Lk5P7P4OfyQkZi98a8l6uYk5v3f5W0v4avhLeP3WqP5c3Fs/w18B+N63lowXn4zi1iehP+M2JT7j9oY+vTL8Jbw++vt49dk3XEkjEREREdFp8gH+4ufn9GfIaqzz/Vf0V/53//xdPP/XH6Dqb7v94lfVUy0B4LcexSB+hW/Ue70F7OTw+VeNvwe3/6E9TfIXv8L38DEEP2e+uMTFehHLh/jL+ruiBpz7xOitD490D443R/6d462TRERERER0tgU//zi+8vY7rtE/J8cLUuhQjj6BIyIiIiIiopao+wwcERERERERnQ5M4IiIiIiIiM4IJnBERERERERnRM23UP5v2g4W/ud/wifefxf48BwAPi5HRERE9MA5B7z90KOYCX4JM0/+ryddGqIH2sO/89S/8vzgmTf/Et/5H/8R56ykjckbERER0QPpQ+CJ99/Dvy/+Z3zq47+Nl/rjJ10iogfWuScDn/XMzHbe/zs8xqSNiIiIiAQf4Bye+tjvnHQxiB5YvlMoxeQt9dDj+I/nHoOGc8dSKCIiIiI6Pf4Vfo3/9P5bAICH2MFPdKL8n4ETHnn7v889hn9g8kZERET0QPpveAR245BtQqKT5P8WSqFzhckbERER0YOO70UgOg34ZwSIiIiIiIjOCCZwREREREREZ8QZT+CGkVpXkahaVkR5fR7yCZUKABJqEatKa7cpp3It2aacymEjNXz4DTVCUVFWmym0gtVS0fkdRUW5VES5lEMqKq5rnOuq5c0aRmrda9sH327rY2zEpVQ8/HabPictEJ3HRqvKD+Cw54fOvoRaNO4L7t+AkyGnci24F7XGaYuNN17DDVHU4/u9JqIz44gSOLNhbfxnNBbtHxX9v1UFjoad9V+jyZdyDZG9PKYdC1cQ7+9EoH8casuPqxXE2Ng/XvqPvx2D6hu2gtiQhlzy2AtsqV/GVkjiSrATAVk40KSMQHASGc29rnGup7bQN/NRbwjocZlYqwpCS3hem63c/nOD2F/oRGAqC/RGTrRz5ajp14ndcLY7c+wk3N3QN+NfFXer80K83sTtiN/x7tDwPrfObdj3afdyMQEQ713mcr/1/ZY7fxvE43WU0+xgcPw+CMcVncfVtiwmgp1Y3O7CwHH1R7h+r8Tyq/EBBIIDiKePcL/u30ahfogxO5HYtISr7XCcCbFfjD24O1PNa9x9rZl1pNHl1ffdYaSiEu5kVxz7avwe3apOTiI6bY4ggRtGan0WfZuTCAQ79f+ExnhhodNafiUJID2Oy0G9Yadp+o9Oo8lXIiwh87K5bWeDwW7s+CeTXjdg7+14jPRF57GhKvBLyAAAF+0fe3NfCVWIzYKGiGL/WGhrdswux1fgoIRxfu2Wnaw6GhKuxmLKa7TDPq65IUnYrkcDAApWSypSVsJmH5ddxiXsD83aMazajhGXsS6ge9S1Hb9zdcBRpvQ4bm9L6Bsc1rexrmLVGIVNqX6NR6MsiopyaRYRSUJkxh0HAIMeo38+sfeNsR8xZmKjwfOc+BMTa0fcxHKuz0OueU6Ea3Mqi/NjxnGJZXHUb3cD3fysxvUAAJcuQNqr2Nd3s/XYKs8sImKIm6zHfudjIzVvH5cQe7Gh1UjdLGzD1XAeRmp9FDBjLFz7CbWIgbxHB4Wiohzd1e+Jwj0hoQrbmcrifNi83q4DySUUvMrjvu+aHSXGfxNrGrT75jd3sGh9Jhv3HP2+3pF2L/db33u5nLou/DZMohK161kMS9byTFtYX27+PnjcL824drRpqNw1z1MOqZTHNdt0PRaXC0npTA/uTLljKV6Dzt8J3wZ6M9d4dB4bCnBzYad6+RiMGE8i0zbqatQ7Y2N9x33PcYzI26Ni+iyC6uvBb7nfte88J0YMat53NWSmqs+5swNRiHNVJ7DHveugMW7StKyXe3HbvuauJP2XAz73XatcEfTtLVudAr73Ck+17wlEdLa1PoGLRtCHLG66E5CW72ceV9u2kLF6O4UGieMmbIzSWD9yI0hFgen8DkJhu6E30L1jjG6JDZsl7A9dQwIrqOxJ6IgKPW+XLgD3C5BT1+1GzdQW+oQGRqgXuGnemKPzkI393I6vQO9Z6wKkCwjVPVh3L9wwUordkJhYkxATfqDE/eqjHc7Goz2Ko2BVaCAuQmwAdKEPLxrrw0iOREksrmlGDL22Y8R9YQfYNhtmZu+0V4zt5QcdZdq/Z8RH6gLSk8hgEH33l5DRzHPnca6s0T2h0WB1OEiItOddMfCLvV+M/ShYtRpfYqdFrXPiITqPG+3LVv2+03vdboCKjc3+caiodU58JGW7I2ZBQ+Q5swPEeaza2ouIp31iDGD65SzOjxVRDueF+DZZj90NVivEh6nHTtJQDypTer0sdIc9kosl7A9dr9+bnc8DUSHZ6NTvi4vmoSdvIYMeRKJ64+6Kx8h6Iiwhk6zuzCrc16x7lzzYA9wvQL/PHXT0Rx/dv13rnh2NoG9vybOcBxaNoE/Sr03c3YVmxjsaQR92vRudZvKfHsftvUHMla4DSfG4JUR6jbogJnxN1uOEOmLUg04EFmDUywIqmuRZh/TRt+qGstlwDwSXUNg249fkNZ4ex2WPTk15sAcwO/WUa4hIwPmLwzVi43VPqE0auoBc0HU9+Cz3/y0Uz4nxu1vzvutNj7F9r7iaqr4f6wmSjOkWxfikJZ4bxH7ejovfvcLbYe4JRHTatT6BE3rYrd5HYXQhNFZrukDj5MEe7Kcbu+HaPXdCr30yLzTQwght21Mx7V7TUVdyNYxIO4CLw5AvSti/B0R6JfuYZgYhDgoUzPKlK9gXEzWj97EjPWklFwAgDc16jxS4euH0Bo6dvKrxZRTaOqwY2/s1f5RC6BAbj1Y5wghJg5gzzkesW/xwx2rQqfGB6hFBAOo9rYHtePOPcZOMXtZYm3h8ZjK+g9txs0k1XPNcedOsEV71ngapPVQj9n4xFnv+xXqfRG67CzH3uW4ylvJgDyRrNE2o30oYoe3lpn687dj04M6UOZIijESMddXZgl+MjYbjmtGxEp3Hxvo85Gbr8aULdoNVdMh67GDFTG+sd0SBRLgLBasRlcTiGtBxqXpKsfO6TWJxswcx33vcCip7tQoyjI42CCPA9sifGh/AxP0RlEtF3MCL9Y8J4n23+pkoOTXiHN1HF2LukYtLFyChw2MKpc/6PsvV+DL2zfuccgH7ZhKeHsflqV1cLRVRVoCbQmPaivMYsGg08uVUDjFkrSRenFFh1ZtkHgXrvttMPVYw0C2MDFnr6x0gt9tnGx4dNyXUMHJmguJXX33vFbWE9HMS3cXEwg6k9pB/bA5wT9CsepHEFWF0tXp57furdU7u7kITrnFvYuyBRbMuCCNtdWc4tDTG3sS2TCO/eXW347jvAoCCgTaP3xQiItT6Q94HdXcXWlS/QU/LnZg2piaYCgvN9CD5MZ4HCzawanQeN4Y0LAYHMG1OKQCgN6CLGFAA+aJkN9AUFbG2LCaC41ChYLUU1st9Hxi4FELl/jIq7RGE7ps70JCZqu7l8k9KuhCLZjERlKFiGKmohkoaUNMDdjKqqCgr85CNHz29F66zoch4x6AD5/0+216q2/PpR74oGdOuws1txyfGB9bwvr3PVUv4xTgpI+BTtGm506iTRZRndrBoNpCaPCfa2qTHlNuGv27xujYT6ijOr00iEF/R66Vxqgr3NcTG9AYWtCwm+vVRZc8YKyrmtpdxJZ5EQi1iQ9Eg7S1DRQduNFE++WKNRtsh6vFBqfEBzw4kedD4PLuFG8/5nQgjQatJQqR9GYGgDD0B0WcDQC3i6v1JBIIrekeIGqp57Ho9M8qWymFOVTBtrW+MvgXN+pPElaAwQro+i1UliSsA0N0DTHUikNa3cyM1jOm4z/rJRpdfQyUNx3RRVVFRLqkIGdeDHWd9SmwieAsdvUAmOY445rGh5NAnabjzMgD3rUTTR/Kaq8ch6NM/5erOAiGeciqHsor69U5RMZCX9RiaPOur/73CjzQ0io6FTv17ioob9x9FxC82l5rbdvOa/S1sZjvDSCn6c7SXk0b9A6B3hMwiNlNEeQZ6XJPQ738tirEf8X6ZUIsYaMF2RHJqBOc3Xzx1o4JEdDq0fgQuncEdDOLGUb41yf08WD3Gj7g+ZcdePP1yFrioINK+5ezlMqfpKGHrx0e9p+F8OAzcSyJz/wKu9gKVu/rUynrTsuwRviRy20JvpHINEY+pQvJFyS6DVy9cuoJ9SZ9+Beg3+pD4XJGbuH50HjfM3ktx2lKzovO4MQR9Wmet7fj1uHrE+ECScoMN91rnypgi20gDxy/2fjGu2+O7gni/MBLb5DlR72mQvF4Kksyj0D3iPdWvoV5wmzk1NRE2RyKGEenVPKZ/1ohxm9mps4R9CfrIZpP1WDxWOXXdHm08TD1ugDhlUU94gMrdeiNw0KeyYQRX2wAU9fuiNSKnXEME4hRwtxVU9uwRYEQ7cF7bRcF4rsmcTj39crapcxlql4Rn3bxG3xxro0MynqG6uwtNGL0JtUv2lGWv9RtYnlBnrZdQyRclaJsZY+TslmNmgjfjek2P4+YmIHmMLLnrU+P1uICKVv/lH9YMhJoUrIbzzga6X31tcnRIzW5B08zfBn1K/v69TfjGxu+eINwPHNdVUxr8LfT4TkP3XQCAWYf00T6d/vtoTpW0fgtaFOOTo9fNmtOa3YxjO53HQ0St1voROKwg3h/CamkW5dKsvkjLWp+GzN5OHHQ0zngeLNngjS2dwR1lFnOlIua0LDLbzs8qiv5Skbi5LJlHoTSKcmkU2M4io13Ql9/dBcZ6gJcBFcDckD5yNp1ewoB4rEKvn32sO1g0ep2n5SV9Ko+1XG80yKmcPS1Ey2Ki35wq5NULl8SVqQ5smL2OwvrekriyEEZ5pogydrC4sIOrF6H/wA/mMFcqIqbvuO4IlT7Nc9a1bo3tiPE3l/vFODqPDWvqzSzKpevITA0gMyjEZqaIspLFRL8Qt94t69+1TMv+52o6v4Oyeb62lxCQ/R779o+9Z4x9R+AUrArTR7W1SVyuFUt4xyaelLEYLhrxBeyRA+GcW+U0pyRWn5OKX8yEuBTWstDaAWAFmc3rQhnt7XvH2FnGwlpWf2soBpqrx8KxYnsJi9sj6AAOVI+bocYHEFL16b6Aft/S63btETgAmH55C1dnBgGsIJ6M6Mda69ofK6IcNWO5rN8rZuxjUgGo6Wv2eTXKY05ZN6dyhWaKKD+n129xObaX9FEowJqdYI++Ae56aR2rUS/NGFgjHb7r+ywXr3Hh+lPjy4i56405MmdNYdRjMA0AYiy1LDJ7oyirwCKE+65Qn5qtx85zZY5yhxzHJN7XHbEvFRHbNmM/ilA3nHGTfeprQ/eKLv17C524krS3M2eWMbkC3PWOTUD2uScI9wP9ftzjVYi6at1ffb/T8H3XOFczRZRnNGTM6dhIIrcn3v/Q4hg3fvwtZbxhO+Ba7Hev8Pvt87snENHZd+7JwGc/9Pqg/P7Prf8f+NjvHluB6orOY+O5Ci7XuAnp0ysaezbkdDOmGPV7T+UhOhn6tNdcUHxOTvw30cnQ39LXaMOb9fjMM98eKT4n53qG8ixKqDl0vHw6X0ByatuGRA+Ys5fA+RF7arXavVJEdDiOUR34PId3KimuURST/zNPdHY0l8Cd5XpMOv35SnHaZ2uesyc/Z65tSPQR9dFJ4IiIiIjoyLBtSHQ6HMEf8iYiIiIiIqKjwASOiIiIiIjojKidwJ07plIQERER0enHtiHRiaudwBlPx13A+8dQFCIiIiI6jR41/4/nmxOI6Dj5/h24D2Bnd6++/wvwiiUiIiJ6UHHojei08B2B+7Nz/0z4F5M3IiIiogeX3RbcwG+cYDmIyDeBu/7Qx7ECMYljzwsRERHRg+sc7uAR/LuPfeKkC0L0QPP9O3BERERERER0uny0/oxAdB4b6/OQT7ocAKCoKJeKKJdySEW9P1tVDrODYaTWPbYNQE7lvPd74P2oSFQtK6J8CmKdUA8bR6BWLE1yKle1n9bG+SgoWC0VUVYbC1BrYgkAw0ip/nWjOpYKVhssIxEREdGD7ugSOEU95Y3bI5aUEQhOIqP5fdaJK8mj2bUaH0AgOIB4ugUbU64hspfHtGPhCuL9nQj0j0NtwS5OPwWxIQ051/lqaZyPRBJXgp0IyEdU0TzIqRzKagiV+0BELWIjNexawxnLhFrERgqo3O9Aar1VCWQDrA6WxhJcPVnX13cck7kdJqBERER0TI4sgUuEgcUFDX2DzgZcQi1aDSGxsea53KuRFZ3HhjqvjwAJyxNqEeWZQUjSIOb8tt9QI8sYtXA31hQVG6l56zNzeULNIZWqMdpWtXn/db0aieKycskYCVNUlEuziEgSIjPOONjru0bNovPYcG/HHUuPEbVEWELmZTMB8ImN47ic2xHPq18sD9T4NY4n1g2Extz7HbaPyYqzvkwsQ7mkIlEjlvaxhXF+7ZaVxIrHJB6r17mSUzlHnOx/i2V07dMnlo5zaC43Rp1TquvcCufKfZ6q6nHNWDZHjQ8gkA8jNjSIjnwnLsdXasZyWu7ETYwgMtQDJF2dGuY5amTHYszqXYfReWyMAYvBTr2TpW20duKoqJjr3cJEsBOB4BL2h67r21dUlMN5TKx59dIQERERHY0jSuAUDCCP6WQe+70RRwM3hiUEgp2OESjv5QpWo7tGo6kTixAaWd2D6Eg7G1/TcicCU1loWtb6zsFGuIxRC6uxds1qQEpDPahMuRpxkBDpNcq5oCGi1Gn4+o3MORqJdsNXH+XRl02sSbiaGha2oSEzZZTVGGXR119CwbHxYaSUHtyZsrcTMxMGMZboQURs+EbncbVtCxlrhEmIzcKOWHisWg1iYWROUYXzKsbMGctCd7ixRrooPY7LwU4sbgOFBed+5dR145g6EZjaQp8yDxkriPeb53MYqaiEzJSM6RqxtGIXlXAnayci07JdP8Q4e50rNbsFWNfAMCK9MLZljGJaScSIERufWELB6ox9Dh2jn5KeLAWCnVjc7sKAYp8rr+Siqh7DP5bNklM5lMN5LK5lUQm7R+CqY5lQi7iBZWTWtgDlgCNw7oSsTj4lD/YAZhKpXENEAs5fdI8U2hLhLhTSZt0aQQgSOi5Bvw6PcXSTiIiICDiqBE4JA/kkgCRye2ZSoDde7dEck89yJYyQMJoW6xY+07JYTALACjKbWs3Gl2labnwqmT3CMoqQ+MH2sjFdLoncttGIA6zGHZJ5FKQLzu80SGwkOgijLnND0gG2DCAaQR/sREyNL6PQ1qEnFUIsK3v2MQF6Q3ffq0xVkshtdyHmGvlIhLtQyCetdRbXYG/fimUBFU1CR8um2g4j0ivZI0kzg7CjlsSVBSBWmkXf5ouNTX2MRtC3t9zguh7nKp3BHTMxdp0He8RuFhGrkN6xhBJGaNunHNY51Ot53Y4Ln3rcCmp8AAG5gI52ICO7RuA8Yjktd+JyHOhoryDe7yp7UkYgKLum73q4dMFOyESOUTn3qHxIHwGN7mJiYQdSe72rVh/RnGtfxsRaY/ccIiIioqNwJAlcItxlNaBj3VLVNMqGbdujcrVG1PbvrXh/cBCKilhb1pouVfBdUUPlrtfi3RrfadYwUsog9hfMUZ3jnKrl/dyXH31U6kVA8Zi+eeyE0TSP0SRNazyOiecGsZ9vJAh+52oFmU3o18ClC8BmRi9LdB43hjTPUaPjjaVPPT6UFcTl6sTfP5ZJXDnESJZ80adjw3jW1OseIg2N6qO0Rt3Q7te+akNjI/qopVHOlt5ziIiIiJpwBAmcgoE2expjYCprTCHTG7KR59xzpHyW392FVndqnYLYEOwGaLqCfZ8RsMafgQOwVzGmAIa9R9Oi87jaraHiGg2RUyMImd9t0nR+B6Go1/RLs4GtjyzZqkfMfKUr2Jfs6ZENldP1rFJjVhDvn0TGGFEr3NcQClsPNDrPlf+Om3pzYuG+ezREj4tnp0F0HhvRXdzsfxF3eq8LI1x+sdTr8mLDuYX3uVLjy9hvDyERBm6LI1Jmsh+NoC2UplYAACAASURBVK8qB3HGEsk8Ct0jrX0pkKseV8fS0JK3pjYbS3O/9Z8rVe9pkIxpqnLquj2a6TMCp2a3oFmjlsNIRbuEhKy6/k3nd4RRy0brMREREdHRaH0Cp4Rx3hxlABxTyNT4i8i0jVZNZ/Jcnh7HzTUJMa8XE1hTK0eBBfEtgOb0s+qXmDQsmUeh2yhLeNf5PI25fKYHd6bsqV3maONc7xYmjB56fXqc8HIM46UQfsuRlLG4Z08Z1Z8dMpLbmSLKpevA5o6jqNP5HXuqoPgyl9IoQjDioCoAkrgytYW+mepyeqt+Vqk28eUm9vRENT6ARZjn1X2ufE8ActsAzCmedajZLWBo1vHijWl5CfvmMisGClZnBo0poSuIpzVEZuw65RVLOTXirMs11TpXSeQwihiEt3mmM7gD43wrwJ1t8wPvWOrTPzX7RSv1XjJiTOecG5IgDc06rx+feuwVS734eRRQ+zmxepqLpeHuLjQ00EkhXDtz7Vv2Nes3Apcex83NHuNam0Xf5mTtaadJ2bseCzHWY/oAv3WXiIiIjs3Z+0Pe0XlsKMDN436FvfHGOfdzdAm1iIH80f1JgBMRncfGcxVcrpHkyakcbuDF6rcMtoCcymGuffmEXxAxjNT6NVT6azyDdVJ18TB86nFtw0itz6IjfdB63kAsPSlYLY2gMtXMn2oYRmr9OpA8zX/egYiIiOjgHj7pAtAplB7HZa/Gr6KiPNal/38ti4n+VidvClZLowhpWUz0n3RGvIK45/EZZQSgP2s3cHaSt4Mwzrm2NonLBz4lfrGsv9/CQicTMSIiIiLB2RuBIyIiIiIiekAd2R/yJiIiIiIiotZiAkdERERERHRGMIEjIiIiIiI6I5jAERERERERnRFM4IiIiIiIiM4IJnBERERERERnBBM4IiIiIiKiM4IJHBERERER0Rnx0UrgovPYWJ+HfNLlcFNUlFXF+e9SEauK/1dO3jBS60WUjzyeClZLKhINrJlQiyiXiiiXckhFYcXR+neD2ziauA8jtd54OYiIiIiIDuLhI9uyoqI8JiEzNYB4+sj2cnDReWzMDEIy/61lMdE/DvU49p2UEUgex44OYwXx/pWTLoQtOo+rbVlMBMVzJCOQHEZq/foJFoyIiIiI6Pgc2QhcIgwsLmjoGxx2LrdGUZwjIZ7LrRGWoj2CFZ3Hhjqvjw4JyxNqEeWZQUjSIOY8tu9Jy2Ii2IlAsBMBM3lTVGyk5rHq3q+5b3O5NTKl2Os6RoKG7TKOddnb8Bk1Sqg5pFJqdQzEfZaKKIujVYrq/HctntsRyy5ue7gqvrVifxByKmfscxQhz+VFbKSEunPpAqS9SmMJtlhvzDgbxx/rBkJjtc5hg/H0M+g+v/oIY8o6Lo7SEREREdHBHVECp2AAeUwn89jvjVhT8ORUDjEs6QlTsBNXkrWWK1iN7loJ1iJG7aSmexAd6U4EgpPItOnLp+VOBKay0ISk7MoBR7mkoR5UpjoRCC6h0B02GvQKVmd6cGfKmfAl1FFgwVi2oCGi6ElBQp1F3+aksXzH3nhS1sutVe0VkV7jeBd2EAorAIaRUux9Lm4DhQUZ000fkd92krhiJrALO8K2VxDvd5Xb5BH7pikq5nq3jPO0hIK5PDqPG+3LRj2YxJ3e60hFjeRqrAvoHm0scUzKVl0KLGiIPKcA6XFcto7dfQ5HjPPdicACEDtwYioh0p537hcA0IU+vIhAsBMTa6jq1CAiIiIiatTRJHBKGMgnASSR2+tBJAoAw4j0ApmX3VmVz3IljJAwmhbrFj7TslhMAsAKMpsazl88YINY2L7jWa/tZWPaZwEVTUJH1CiPtdwqJAa6d5Azi568hQwuIIRhdLTt4Ha8uSmIhbQxCnh3F1pbR/1nz5IyAsGDJHRuClbD+cYS3hbEXr4o2ccqLh/sgWQmaaVZRCQAZpK5sANsG0m+XK+gwoiaOPrps+5At4TITKPr16LZ9dhxDu26oMYHcLnJekFEREREZDqSZ+AS4S6Euosoj+n/1gaHgYM8B7e9VN1Y95h+tn+vdoNYTuUwNyRVb/PInnsLoUMCKofezgoqe7OIzRRRnoFe9gONKtbeTkINIycf7FUl9WLvJdQuAfe8P9PWJg+d4CTUUZxfm0QgvqJPpwzX+8YOFluSCBMRERERHa0jGIFTMNAmPFs2lQV6I5CxgswmhGllJp/ld3ehWdMX/fcVGwIqd41/pivYly44nqkC9FEPa0pd3dEbH8k8Ct0jrueXCqhoXRiwntm7hgh2UXAsV7B64FEdVyzdZW/4Gbga21FUDOQPkry4Yt/EWysL9zVjiqiebJnnS72nQRKm3B6GmVgmws7YF+67Rw1d59BFfyav+efW5MEeYDNzPC/FISIiIqIHRusTOCWM82LDNZ3BHejTKNX4i8i0jcL9og7P5elx3FyTEPN6QYg19XEUWBDfcplEbrvL+k7d57P8plB6SuLKgmZPtVufh4wVxPuXAPOlGGPAYv84VKwgnszi/FgR5dIIKgtZmI+86QnBLCKSMW2v5n6TyO0JZTzwi0P8tqMnl9ZLPayYVT93ZsXSN/b6lEp4JNBu4vm+en/Jfh4wKWPRUc7ayalfLKfzO9YxDdy3Yw8AanYLGJp1nkPrXFW/PEXNbkGDhI5LjcTZnoo517uFm5wqSUREREQtdu7JwGc/POlCNCU6jw0FuHlcr/w/Se5jPeixH9V23BQV5eju8f05hmOhYLU0gspp/XMYRERERPRAObq/A0eHl87gjjKLuVIRc8aiwkJn88lRq7bjaxip9VlEpB0sBj86yZv57GRhoZPJGxERERGdCmdvBI6IiIiIiOgBdWR/yJuIiIiIiIhaiwkcERERERHRGcEEjoiIiIiI6IxgAkdERERERHRGMIEjIiIiIiI6I5jAERERERERnRFM4IiIiIiIiM4IJnBERERERERnxEcrgYvOY2N9HvJJl+OsOG3xUlSUVeWkS0FEREREdGodXQKnqCiXckhFj2wPh6RgtaQicdLFOGui89goFVE2/ltVUHWu5VQOG6nhEy2mt2Gk1s2yN1A3FdU6zvJpSnRd5FTOKmcjcU+o9vk7voRZjL25X9eyo7gexXNY51jFODZcRw5fQNd9SPy3glWhPK2/psTtNxJ78Xzx3klERHRSjiyBS4SBxQUNfYPORofYeFxV6iz3anxF57GhztsNCWN5Qi2iPDMISRrEnMf2G+fTaFJUbKTm7c+sxqBzfbPRl1CF/YsjXeIxORqI3tup2chS1IYbUo5Guys2EfOzukmKgtWZQewvdCIQ1P+7ktQ/0bY1dAw22MB0JYHO/XZUnVv7O+4GtVdSUCsGs+jbnNTLvqAhotQ6XgWrY8CicZyB9AXcqNuA9jhX7vrqinFC9Si3bx3x2qWKud4tTAQ7EQguYX/oet31Y1gyzt8kMm3hOvXHO+lNqDmkUqpnffLehhD7YCcCslFxoCEzpS+bWJNwVYyxV/1uJjbReWxY53ASmbbRmuVU4wN2+YJLKEBDJV3ruHySZ997RTOGkVofBYRr7XJ8xXlsVcffTMLn3P7EmoRYzXLq57AjbZZHxvQBjoqIiIgO74gSOAUDyGM6mcd+b8RqsMqpnNB4tBv/3ssVrEZ3jYZpJxYhNL66B42GhN0om5Y7EZjKQtOy1nfM7TcniStCI25/6JrVgJSGelCZMhp33XrDN6GKjSAN2tqLiNdq9CVlu5G4oCHynJmAem8noY4Y++xEYAF1Gln+pmWhYbq9ZMdGGkRH3oglehCp2fgPIyR+V3Q/j0rvtcZ65dPjuBw0j3UHmeQ4VPOz7h4g6YyxH2dCtlNnpwoGundwO74CYBipaBcgXUCokfICSIS7ILXXXtv3XIn1tV6M3UmHVr9chbQePzk1ghAkdFyq8YW7u9DMuEYj6MMuCjVWl1PX7Ub71Bb6rKRXQqTXuD4XdhAK16iX0Qj6kMVNMQHxEGqXsH+vxjpNxkYe7AHWbumJhnINEQk4f7GxTgY5NYLz5ndrlOdG+7KVDN/ptZNnr3tFc1ZQ2UPtuDq4E7I6wTHOyaJxr40NSUBbh3+HRjSCvj2fa5+IiIiO1dEkcEoYyCcBJJHbMxusw4j0ApmX3S0An+VKGCFhNC3WLXymmQ2PFWQ2tYYbZY2yR6tGnQ387WUjOSugoknoOND0KqGXfKyr7roD3RIiMz7rJ+Wme8ITahg5WYi1EMvKXu3Gv3xRgnbfr7lfQDwN5whKPdF5xHDLmfD6xTg9jsvBAWHdYXS0mQmZyD0tzzXqpagol2bRkZ5EpuY5TGJxTULM2MYAGkkQfc5VjRhPy+JoFIBLF+ykQ1B7ep9ep+balzGxVud6SI/j8tQurpaKKCvAzX4hea4yjEivhNCYsc+ZQUjCp2biiLu70Go1/i9dgLRXgQrh2loXEkEjZrE2M04Gd/32iY1zVM49IhjS60N0FxMLO3WTcGODiA1pHnXLSR7sgdQ9auxzFhExOC24V0zLnZi4P+I9Ol51PYTQAVf8jGNZdcVGHBEMpXIol0ZQmVpCoVaHxqULkMTRcU6hJCIiOjFHksAlwl1Woy/WLVVNo2zYtj0qV2tErWavPVyN33ojWIqKWFvWmpJWa3QCAAr3NetY53q36o4yJNRRnF+rHjXy386OPY0v6GrsN0tRMZBvLOHzi1nNBrAx4trYqNYwUs8Bi3Xi5S+EDslr+Qri/Z2OehOwkpQuxIxRXb0u1Z4iJ06pu5JHjeTVdPhzJV/0PCjX9L5OBITGe2jMGPkz9lfzelBUPXEzpoXO1W2I21McnbH03YGQMBhJppDgWSPlXttPX8BcjevTLzaOUW3XvUIaGtVHEI1y1z+HDY6+maVfm/Q8J948YlOHdd7TFzBXa4pztAPnPT8QZxS46qU0iFj7sl1urfZorD067jHdlYiIiI7NESRwCgba7GmMgaks0BuBjBVkNmFNGbT5LBenetXYV2wIqNw1/pmuYN+jF9nR+G2kUW2MFkAJ10lGhhHp1exGu9C4Ldw3R0KGkVKcIxdmAzsR7qqznQIqWhcG/Nq0TTwDByhYDecbngLlFTM1uwWte6RGwzOJxc0eXO117dcjcZZT14CX6yUDAuO5OXtkRYyNgtUxO5beI3BJ5LaFUSPlGiLC9EE9YfVpVEfnsTEm4U7WToyq169zrnwkVOfoinpPg2RMO5ZT161RHb8RuOn8jjDa47oePGIvX5SgbWb0GCRvOUchjZEsO8b6iGFzHTBiwmAkBukM7mCwgWcIXVwvx/GLjd8InJrdgmaNfurTZu3k1qgnVUmR3+hbdSzF8jTGIzbueqOEEfJKpO7uwjEp0n09pCvYl4zZDtF53BiyguM9ApfO4I6mWTMf5NQIQuZ9zys2d3ehWfWsgemuREREdGQebvkWlTDOb96yG+bpDO4o1xGJAvH4i4isz6JcGgUAFBb0nnLVc/k4bg7mMFcqIgZA76kfQBwAjKmVc8a6dq93ErntImLGd8zt++uy1rW2n8yjUBrVy7KdRUa7UOP7K8hsXhfKCEDLYqJ/HGp2CzdmZlEuAYW1LDQjqZnO76A8VkR5zFjeXns78WQEGzP6+oDe43/5AKNWCXUUoW5YMcb2EgIvN7mR9DguX1JRnimiPKMvKix04oqwihpfRqw0KowGJJHbHkXIGIFRAaOB2QVpyNyOcG59913B/oz5DNMKgBUhNhoyazsIGbGM93vHR5WX9MbsGKCPltVOIBOqOXXXKJ8wuqJmt3BjaFCYDrnifa6ytQ5KT/TRrXc66EmVjMVwEXOlolH/evT9xQd8yipjUS06rp1ao0D6+ZlFuTSrL9heQsBcP5lHYaxLiDEwLS9hwL1+0yOLK4j3h7AqbkczA2NMoZwB9HMibPvuLjR02TH2iQ2SMgKeRbLvIXMwzkedopsj5NWjbx71WCjPHMzyN/tyD3e90ZCZkqEaLw2xp2XqddC+r7qvhySuLIT1axM7yKxp6DPKfSXofdDWfmdg3G9qBCetx9Jx/+DzcERERCfi3JOBz3540oVoSnQeG3Wf3TkuClZLYeSsRpv738e9ndNJTuUw1758uOmfwlvwPJNyRUU5nD/kPpqhYLU0gspUvWlz9Taj6s9nedbnYaTWrwPJQ+6jYXVifOxqxfi4Y9Oqetwqtc+VnMrhBl48UGcPERERnW6tH4F7oDhH/AC9l7/5pKtV2zltFKyWRhGq17tfT3QeGzODQAMjKMdBTuUwNyTVHe2qRx/hqz8SeCwUFeWxroZGqY6FUZ7DxrhFhWlNPW6VU3Y9EBER0fE6eyNwRERERERED6gj+0PeRERERERE1FpM4IiIiIiIiM4IJnBERERERERnBBM4IiIiIiKiM4IJHBERERER0RnBBI6IiIiIiOiMYAJHRERERER0RjCBIyIiIiIiOiMejAQuOo+N9XnIVR8oWC0VUVaVYyuKnMphIzV8bPurbRip9SLKnjEwPvOMGxERERERnYSHj2azw0itzyIiGf/cXkJATh7Nrg4liSvB01iu47KCeP8KoKgoh30+IyIiIiKiU+NIRuAS6iwie0sIBDv1/8zkLTqPjZIx4lNSkQCgJ3sqUqmcsTyHVNRYV523R4jEkSBFNdZ1jxwZI2rC9hNqEeWZQUjSIOaMz1YV57ruEbGEWrS2b32mqNhIzdvbF/cbnceGWe4myKmcKw5FZwx8jqk6Zubyevtyb8eP98ice/TQ8W/fc0JERERERK1yBAmcgoHuHSxWjbgNI6X04M6UntRNrEmIWQ39LkTal43lQN+gkRR0D6Ij3YlAcBIZ9CAS1be/Gt3FhJEcLmLUSMiGkVofBRaMpDEoYxrAtNyJwFQWmpa1vnMlCeijb52YWNNcxVcRg5l8LmF/6LqVTElDPahM6csL3eG6SVPtMKmY693ChFFOOXXdONZOBKa20KfoCWtCHTH22YnAAnxiJsbSmxofsBLqiTUJV2tO41xBvL8TgYUd5zayW0BvxEikhxHpBe5kV+B/ToiIiIiIqJVan8BFO3Be20WhankEfdhCJq3/U40vo9DWYSQDGjIv6wmfek+D1B7SV9KyWEwCwAoqexI6LgFQwggJo2mxbnH75voHlwh3oZA3N5LE4hr0/QLA9jLiaQAooKJJ6DBHydLjuBwcMD6rTxqaRTm6i4n+cagA9GRIQmjMGMGaGYQ++1TBQLeEyIyxfKxL2IoQs+wWNCuWPoTRz7khqdaa/tIZ3DETafF8+p0TIiIiIiJqqaN5iYl0AaEj2bBhW5ieaY2onR3a9g60qhhpyEzZxxSwkrsdLArH6vss4V5FX99vmqoyiP0FcwRO895GXSvIbBojpJcuAJsZo4w48+eEiIiIiOgsaH0Cl87gjtZVPUUvXcG+ZE6DBOTUCEJm0tGMu7vQvKYvpjO4g0HEvKbupSvYbzCpLNzXEAqbG1EQGwIqd+t8qdln4O7fwuUFIGY916ePMFpTR+3SoKJ1YaDOdMTEc4PAfWPMMz2Oy0HnNFKdZhyHPtp3UGp8GfvtISTCwO248ZITv3NCREREREQtdQQjcCuI9y9hf2jW9VKLJK5MbaHPmA4417uFiYO8mTI9jptrEmIl9ws/VhBPZnF+zOtFHUnktrus76wqsEaq5oYkfUqjsR01PoBFjBrbGAUWGp8a2ZSkjInNHswZ5ZyWvWLmPibxhSv21MoYlnA5XuuNkfrImb7+dWDTfLbNeEHKWBfQPVr9gpeq5UYsMYoY8nZy6HtOiIiIiIiolc49GfjshyddCGrWMFLr14HkESWXRERERER0Kj0Yf8ibiIiIiIjoI4AjcERERERERGcER+CIiIiIiIjOCCZwREREREREZwQTOCIiIiIiojOCCRwREREREdEZwQSOiIiIiIjojGACR0REREREdEYwgSMiIjoF5FQOZVVBQi1iIzXcwDeGkVovorw+D/nIS0dEXuRUDuVSDqnoSZeEHiRM4IiIiE4BNT6ARYwi1pbFzfhK/S9EI+jYnMTE5gVEDtx4VLBaqpUw1vuc6PSQUzmsKke19WGk1lUkXMsi7VuYmNpCx2AD10h0HhslFQlFZccLHcopTuAUrJbcF4qJvY5ERPTRMy13ItA/DrWRldMZVHpnMde7i0zaXqyPCBRRLhUbaMwmcSW4hP2hWY91h5FaHwUWOnG5kYTy0IaRWudIxtFijGvTOyzM66d+O3MFmfs9mJvpQSXbwDWSHsflBSA2Biw2ep0TeTiiBM5IsMwLQG11d8gK4v1N/Mg1xXnxir2OCbX6ohZ/KJ3r+23He7l7O1bMovPYsJabCa2rRzQ6jw2jPI4ymus4ttFE4mt8z6/sZTHBNvchbrvmfo064qobjvJbn4n1yfnDY67vbnh4LXfGRtiOo5z2cvc5MbfljrG1D5/tWN9xx90rZu5rR4ixWB7Hua+1z5pldO1bUWvWezGWjtj4bKOhcorru+Lj1QgVj8natmufddd3x6Dl96czQLhnVP1bjKcYm2aXe9bv08R9D6rVaXgMatRjf96/hWp8AIFgJwLBTlxJmkvd9xbx2JO44ljXuf3q5aecolbdyw86guj3u+/+bTH/7Xmf9l3e/G/bqdHCGB8dd5ulXkz1DosQAGAHi1NZaA3sRb/eBhC3OlFc9xL3/TYpIxCUMX2wgyICcEQJXEKdRWRvyfoBCcjG3d8zGamx3CImLMINz93w8mtIwLgZNtRQ03/IAsFOTKzZl66cyiEG4ZiEH0xtbdJarvdS2r2WjS03bwBLKGAHi1bMFKzO9ODOlFkeCTHzGLQd7LdHqhpG03InAlNZaFoWE8L2Yfw7EOzE4t4g5urGYhgppQd31nZcy43yBTvtG1B0HhsKcHPBva5zv45GRjSCjs0lZNrC9vlWVCHGk9ZnCXUWfZtGjBc0RBQ7WR3ITyLjusP6LQeAghn7BQ2R5xT7OKfs5X3CNIiCcK7ERkz18lrbUTCAJSzu9djTnGrFzCvGioq53i0jlkvYH7qu/3Cmx3E52FkVG0TncdWM5cIOQlHhx8PrnCgqytFda7lZb/xiKTYQF/cGcUP44fa8Hjxjo2B1DPaxpi9Y25FTOcy1Lztj7KgfnbjdbsQgKdvXZXASGU1D5W6N9R0xmESmbURoOOn3l4YaIorq6mTwSf7rdEToDZ95u6FR59pMqDmkUmp1Y6TufbQB0XlsWOdkEpm2UX37B1nuW79PU4x3UEC4KlbOzhsjltF5bKiqvg113jULRGwoNhJ7j/Ud9XgJhe0lV+LkHjlprqPUvo+6f2f8kw7v7Qh1znF+jBg1/CyQGAPXdwbV6uWe9Vuf0payym/HXtvWPKe0edcbb7V+970Pyec+7bO82d82Ow6nOcbe9VJO5bCq6vtcTTk7h5upf1XlrNdBtC2cP+P3UIzLhqoKHU0hdEj1dy/yvFcgidx2F2Lm8plBYDNj1J0a54SoCUeQwCkY6N7BouzusnM24uxkxG+58D3HFA6jx7GqYaBgVWiALmK0pT1X6j0N6K7+ofe2gsoeEAq7C+C33IcSRmh72erVUePLKFhl2EXufg9iBzjG6Zez0OocS0KdRUd6APF7DWwwPY7LTY6GyoMXUMkmkdmUMGAew91du1zRCPqwi4JRn26biUC0C5AuIAQ9WfXqGfZb7tj/RQna/QL0cyJZyVYi3IX9eweZKlRjO0oYyCcxnReSuiZjlgh3oZDW15dTIwhBQscljxX3Kvo20+O4bF6Dd3fr9iImwhIyyeryNBJLAHVi1liME+EuSO0hAMOI9Goe9xCRgoFujxgo1xDZWxZ6QuusjxA6JA2VqvUPITqPG1ZjTWwkX0dH2lg2tYU+xW54SEMXkDMb7nXvMxIivca9bmHHuJ/Uu482pm+wB1i7ZXQaXENEAs5fHIbc5PKD3BOa0sIY5/LAVVejUeygmFiT7M+7JVSmllDoHkRHegkF416UUEdQsTooUCf27o686p74hBpGzlX/9cb+i0LdNn4LPTsiqvfZ0WbeRz1iaXWWTOJO7/VjaVQmVDEG4uiFhEh73og9jPtGrfrdhYhRfsfy+3lUeq85ryVHvRE6HHw097vvf5/2Xt78b1uzTiTGNeplqG0XEws7CA1dwO2FHf1+33T9c3Zse40+u2NnJll2cmh21E/iThtwO9iJic0exJQCKjV/LFcQ73der373isJ9zerMXNy2fyP9zwlRc1qfwEU7cF7bRaFqeQR92LLm6avxZRTaOiD7LQcAdCFWmkVHuoGbmRJGSBrEnNGzEet2fjwtCyOBB5GUEZjaxVWPXhNpaLaq92ha7sTE/ZGqHiK/5Y1x3lwK8WUgeoDpSekK9gH/KTuKiqv3J31iLvQqNdJAFM6JfbzDiLTrz2yo2S2cNxPa9DgumzFWgJvijVlRUS7NoiM9iYwmoeOADYzQmF6WuSHNasxMy5243a6fw4G8s66Z67vPub3c7o30204iDOSSAJJ57PdWj5pWE2LsqCN6z91c+zIm1jS9oQyhB3AMnklP4rlB7KeFWFadk2F0tEHokW2kF9TuZY3BOVIgXg9m48g7NkksrknWsQ7A7JTRe0E73FMok7eQaRs1loWBbY8yRSVkXjYKU2t9KwajOG8mIADMxsehnvdJZ3AHg5hzjMQMI9Ir2fVmZhBiR69mlSGJKw1MrTEbg7i7C63mfdRjClHd6zakn9uo3tjSk+qDLPdzymKcvIU7Hg19s4d/bkjYimbEWMti0arzeudAZMbY71iXtdwz9tEI+iB+30VRcfX+LUcdMEeC3DGze/9nEak5cuAeWTDuMaoCebAHUvdog9upIz2Oyw02SqfzOwiNed1rNOsaVu9pRiO/VjtBWD+7pV8PAIAC4mlnci4P9ggjISuIp3f0+6jfb2GN3337N8Dd3vC+T1cvf8pY3ORv2ymPMeBfLzUj9ppwz/Wrf1WPlZjxd3VsN0KND2Bii7H7QwAAIABJREFUTRPuTebv1ywikn4t6Nf5CuL9S9Xt11p87hWhdslK2gr37Xrgf06ImnM0z8AZvUiHt4PCNoQbYB2uofKWz9u3pqsto2PGvplXTxnTWT0z6QuYExrifsvrc/8IJ5Hb60HEaySmFjPJdkzZMWOm9wRajfAx4/+vz0MWppc20nsJwHu6XjSCvm6jAT0zCMns4VRUPXEzY2M1zroQM0ZX9XN68BETa+rj1C6uGslLal1PKgLBSVSizhtrwaOnbFrudPS4WSPJnttRMNBtJmSjCEk9DbwtTphCKSSxoTGjl99I0swfB7sHMI8B1/SthFqsTsY9p7XaPbL6FB93r6qb0MuaDzuSAvF6sKaX+sTY8axOHsaoKAB0oQ8vGucqi/PReciOnl0ZORhTJU1Vo2811hdicLvd6+UNh2HuN48BRxKuITNl152jeYbXTbxmnaNVfqShUX0UyyifeU6aXX60WhnjFedMAAwjpQxif8G8xht5Ckac9mzGuPnYmzNJ3G+gNN9O6Wj0RedxY0izp682Ukx3eY3yiNfssY0KGL8/N3HdORX4sMxZCIDVaVa3PeL5W2h85vO7L06jXxQ6h/zu09XL30Arf9tqHdexxvgA9dKr/om/DYeul4qqT8k3r7/+a8ZjPpPIaPa1a3YsXvEZGa/mf6+wkza9Y8madXJU54QeOK1P4NIZ3NG6qnpkkK5gX2i8yqkRhPYqUP2WG1/LyZO409tAA0ucfueh4WfgovNIGauF2v26IusNs3uUrZnlpmQehe4R4TmOEYS2846byvTLW+iL9jRRGP2Gg80MVM9eR7HRq0/R0tYmPRpCxtSzuz67qUEe7LFuePqPXxcGFGNao9k7mrxl9EYmkdsWRhyUa4jAY4T3wELokHb0ETKjR7b+CILw7XZzKqbPdpQwzgs/TvZ0leZM53cAq9dRQWwIdWKvJ01X7082MNKxgsqe3cPqO4p+YA3EODqPjTEJd7Ir0K8vYbrXpQuQxAYDjBGJti3hzXuu0TeX6vX9eL9cx5M5+gV96l71yIX+dj99mp1zGmnL+d5HfUaB3OsP9kDaq+DfZ7egWaNLemfO/r0Vvde9ieW1nb4Yq/FlIDqC89YS896mN75qK6CidQkJoMkv9vroodf094Q6gorHVGYAmJY9ppeZ12k0gr6axdSfyan6XYYxAtPQzACb2TBNRbucHxijEc00Ss3RkZodtXXaCabEc4OAowMhicXNHlztNfblOFahvjb0Apn6v/t+92nv5Qf8bTvlMQbQRL30r3++I3CudpGb558RSMrenSfRCPqkZmb0eP0ZAf97hd4RPmtPLRc0dE6Iani49ZtcQbw/hNWSXnEB6CNjchJXpjqwMVNEeQZ6D3i/fkF5L1dc2yti4+IkLsdDWC2ZbwnqQrk0isJCJ64kx3FzMIe5UhExAHpP7AF6bNIZYF2fjgYtiwlZb4zIqZxjeFxbm8TlNCAP2heptTwOpNbFqQN6WVQM+yx3bj9UKiJmxmwhjLJvbACkx3H7uSJibfo/E6o9nWOuVMSNtUlczsKaMjZnlVF/njDQ1CilIsRe74E0f5DEczJXKiK20Ikrd5371cufQaRXQy5ub3U6v4NyWIEqLyPmrjdpAOklvSE0Bug9x+NVMcNYEeVoFhP944DfchjTXsacsceau97UDooYY2wvIWDEctFjO4nncrjzsjAqm93CDSUCGSHEvGLmt+ukjEVVH8VzxF5RhSlb+jGJzyNBqJsF33Myjml5WY/xjDM2fjEOiTEQrmWfwnvGxhlL8XpdQTwZwYa1/g4Wg8ZLfcyYGeU2Gxdy6joie8t6fbH4r++IwfaScB2soLI3CxhJQ83Rm3QGd5RZzJWKwHYWGc3oSInOY0OYvldY6NTPibyEAY/7YmvUuL8GvffhuLdYMYZ1H7XuFUkAGG9yuc89wUjiT1+Mk1jcHMHckF6+zOZ1zM0UUZ7RkKl6kZObUV9nzHuLeY9N+sY+nr6G8ph4T5MxraiIdUuAdU7Ee7Wxn34hORZiM6dlkamaUuw0bcVG/7f9OyNjMVy0rwezPDW2pf/mAYWFJRTGRrGqJPVzm65gf8ZsrNZO5BNV9xD9WTBvfvV7GIAxfXUG9v1YuWZ9U40vI1Ya1ZPzpIyJi171Vfb8Laz1u+9dTJ/7NHyWN/nbpj/ffMpj3GS9RNKn/sUHfO4NSSyujRjXJ6rv7W7do1bcTWa9Lc/sYHFBQ8y81qcGEMc8VgczuBJfMToP8zXuUX73CgWxIQ2LwQHhRW8RyFjx+O08jj/PQR9F554MfPbDky4EEdFpYb0Bs2XJFbkxxnoMbuDFY/r7aq2jvyHRr7NJ76Rs6Ln1lhhGav06kHyQXgbBGAP+9VBO5RC7V/0ik8aJHe3uzoxhpNavodLPPwFAJ+8IRuCIiM4i44cb9UYUj56759/kHJE5i05PjE9aqF3Cfv4sn0sXY1QU1qgWtRxjbBhGR9vBHuGozzXSTXRKcQSOiIiIiIjojDiat1ASERERERFRyzGBIyIiIiIiOiOYwBEREREREZ0RTOCIiIiIiIjOCCZwREREREREZwQTOCIiIiIiojOCCRwREREREdEZwQSOiIiIiIjojDjdCVx0Hhvr85APtZFhpNaLKJeKKKtKiwomUFR926UcUlF7cUItYrUluxtGat25bSIiIiIiejAdQQKnYFVMulqShB3GCuL9nQgs7BzN5pMyAsFJZLSj2XzTovPYKBU9kkoFq9ZyFQljqZzKGcuKKIvnyUpMjyjxJSIiIiKiph3vCJwjubCTCGdyoScdCbWI8swgJGkQc8Zn4ohWQj18YpFQi1aSspEa9i6nldSIZXSt7+eivR277NXHqhNGCs31FRXl0iwikoTIjEcypaiuOA4jpfTgzlQnAsFOBBY09A0OG9seBRb05RNrEmKqAkTncaN3CxNBffniXg8iUeP4x4DFYKeenLaNtmg0kYiIiIiIDuMYEzhncmElEQASqp1cBIIDiKeBabkTgaksNC1rJRhXki0sjqIihiVjn0vYH7puJFMKVmeEJKh/HCoAIIkrwU5h/WtC4uQt1AvcDOqjf6Gwx7EuaIgoeoIop66jb3PS2L5xrNbonoaMWR65VhBWUNmTjKQNSIS7sH9vBYhG0IcsFpP68cWGJKCtA3K6gn3JSNqgYKBbQyUNyIM9wNotTAOAcg0RCTh/sYGElYiIiIiIjtTRJHDCqFl5ZhASYCQRW8ik9VXU+DIKbR2QAUzndxAaa3BUyzAt10tmakuEu1DIm99PYnEN6LgEQAkjtL2MeNrjO9aI3ShCDeyjkDaSv7u70No6IEPBQPcOctZubyGDCwgBULNbwNBsc6OKSRmBoKwnWoZpuRO322dRLhUxkHcmvaFUDuXSCCpTSyhIFxBCEleCy+iYKaJcCiPn2FZIHxGM7mJiYQdSeyNHTERERERER+loEjhh1CwwlUXdx8OSMgLBTtzE9aqpkqeGoiLWZh7XEgqt3n56HJeDnQjkw41P0ayiT8McyOtTHytRYTvSIGLty9YIJ7RdFKLz2CiFkQt2IjC1i6vClE5paBQdaXsEUrvf8iMmIiIiIqImHd8USsd0PUBOjSC0VzGmJ+rU+AAm1jR7ul66gn3pgudo12GfgSvc16xpjfq0QqByF0Ayj0L3iPdbH83yKuGGRuA89oqK1oUBa7fXEMGuMxlMygg4Rrz0aZEdlzw2V/UMXAgdkjnCt4J42thOOoM7mobMy/pwnBX7Sxcgbef1Ubf0OG5v6/tRs1vQNHPK5TBSUWMqJhERERERnaiHj29XSVyZ6sDGTBHlGeijdP16QpFQi4h1G6tpWUz0r1jfyW0XESsVEQNQWDjIc3AKVq0pj10ol0b17cQHEFL16ZAwtq1Pm0ziykIYZUc5x6Em8yiURvX1t7PIaBcA6G9xnBuS9F3NFFFW9PW9rSDeH9JfYjIGADtYDOojXI7tYAeLQftAp/M7KI8Z39leqjF1NInFtRzmjHgBGjJT+rrxZMQj9sPIrM9aMYCWxUQSAMZxc1DfzhwAbW0Sl1v5/CERERERER3IuScDn/3wpAtBRERERERE9Z3uP+RNREREREREFiZwREREREREZwQTOCIiIiIiojOCCRwREREREdEZwQSOiIiIiIjojGACR0REREREdEYwgSMiIiIiIjojmMARERERERGdEUzgiIiIiIiIzggmcERERERERGfEKUrghpFaL6JcKqJcUpE46eK4KSrKquL5UUItYtXjI7/lByWncp7bE5fLqdwRxlA4R2IsovPYWJ+H3Ipd1IjzSfKKvR7rHFLRkykTgKOJl6JiIzXcku0c27lsug4addnxHQWrJb1+H+r4D3Cv8N1OqehRx8zrsHV1T07lWnPOiYiI6MgdSQKXUM1ErIlEQrmGyN4SAsFOBIIypo+iYGeagtiQhlyy9nI1PoBAcAmFIynDCuL9nQgs7BzJ1ptnN7jLJbFhLHYGiI3c/7+9O1ppXOv/x/9+4HsLERHLPC1bBiweqODQXkDtgTXTO9jgKBRPRE8y3fA/+MN0cqJ4Ugo6wtxBJ1MPai+gRWH0QCoMgjJURMxFPL+DrCQradKmtZ2Zzn6/YNh70nQ1WVlZWZ98VjJh68vLg9prcN1bdZ1GoTqWnXsxN5iXApJ8GRdSHdx3BT05VPIKvjVqv2CLhb7bOAqiLb/ZhuEs07GWmMPOmTnyXxuKriKe2EW9a3PEtu9dYXn/F99AGDOrDbvnpBwAy9cZOfi0l3cFyk5ALK/frw/x1q/32mav7y1DvsEVvL5cvtzn+Mvpt7x/HXhutnnOqz+73RAR/enGlIEzUd+bQzwxh+PrebwNvFh6B8rqKwXmoy/skC647h1tDad3BirO4FS6EA26vriIRr/zHPNmoMQFcXMBSG5Jg82w5QCKRhOVSsid9XwZF2EXVi2FqbNP3YFt2HI/z8VbrvugYyIPLm4jZ1GyhndfgfABhhxcWOWL39yaBxY2uusnoG6KxgZwZLWz+F4DUyl70HSA5ctda/mRiaxm133Q+jlUzt3lO2cKNv3766tjz+BI2lfPPom69Gc23L8H13HR8B9/DafiNwIDMgBd7RIANAOHS1fYScwhnjjB8+p7t1yzIZb7AxgA+SyWn75KQancPtxts/aj7H7m1Jm0X1vz3v0IGYCeVty26eyXtI3HTxkcSvsVOEjez0BRMjj0DJTD2nFIJrmH7vbaT8S+AhpOzw2cimxgxRjgpld1G1+uFSxngoLzCHUsHZPDVcUtd+B+NEC+jAuj7NZBhD4hTPsaSAdkvzdh3/Bz23fRuEW6FRD0agbu8w9Om1op1MS2hPUJ7wE9+EZY214/MYc1HbADf3vZzpnpuZZ1r59D5fwAsepcwA3LGxwnIi7XDKkO5vBlRpzjnuW7qE+nrLZQ3caKXYbULxIR0eT5KVMon3/YF8t1dPbsCwisgbIYdByuKlBWD6SLuoZT6YJ7jA3p7uU8lvFRXCwhBjCDrj+EhUVAtwYM7YUUiuKCeHwtXaTfbMMIWw4AUJBdEtsZ+SIalhWJmi3JoaIt4tueP0jxBi/ugEHc4XcGAOv979YqGcRaYn0sIts1kJCCiHwZ/zjBxRziqg5Pdu/a/k7v7Fb70URSBG1qZhF4bAPQkF64wZdCTdTPPKDMIhm2fj6LZTRwrANWpk0BpmPSMemu45I65+yTPMCzMnJuHb+t5GA0roClrCgvh+wSRFnBddx+BGKv4U5jzMcw9dSBkS/jn5mvzvrflqSAzGmXbjnF1DzaVavNqZV1JKFY5fZR/DuD55abavQMcH3tVVmdRTMhnQ/wB883UjkB576QXAI+iAG0W1eu0ucGzIUUiiHneEm1vmtKQZ81UA5rxwNmkgPbax9R+woAUOaB6i7qyGD58QR1U0FsgOyI1b+GneOW7jr237iwI54R9qMLGRGkROgTemm1gHzZc05ml4D6Z/s46DgW21NS7WPvVUwpqOu+mxUI60NqKLwZNrNuZeu/FHr0yfkslp9OArdzeBrSC+Ic//4gzhfxW3gInpHx1OmqDyIimgxjCuAUZPetO6xvH3fFhcq6wNjLnbvzYmCzc2bCPNt1745qKSSlO+qbC3L5N84F0iikh1sfgD2QW+l1sZVd25mJNjoDDrJk9sAaegttEVwAEHURMHDoyor0We6Xz2IZV6iL9YzCV7SnY1A9wYuXm3E4QFbp/ryLaZdTQ+fJGkgUU/Not7yDrNhrANU6viGDw0Ge0wuoG6OQxs7jOu7vbvEPPnqPo2bg/u4AsequMyDutX6y0sT93To6eyfeYxK1jgFPBsTJaFTr+GYPXn3HoVcdF1MKgCTwehZ4bEPNLEJxMpO+9Z126da9qASc3t3icOYrds5MTL0SA27pPPFmQDSkp+X2YAXDztRR/RPqcOvGdLKSOtYSKkrIITZ9EzB4DTn3Bed8qG5jxZ8RBIBqB89An3M82MDtOMgw7XWgvsKu4xt8KUSc/CyyZJv28Qo7x8Xq3XWcRCzo3B+qHw0xQJ/gzV77M3w6ji8Xsdkj8Wn86DXtNYfYNIBM9xTKnn1ICCeDGtAe1Mp614yIrvVfz0KRM7SecuaxGZjpDViuf0J92u4TUsC1WLW6jZW9B7y9u8W9BnyQzimnnreA4yg3IoiI6Lc03imURzdQZpLScnkaSIQ72dfu9BD3rvoI1/8dmCF3RyX+rEi/5S+WL+OfVVMcq6BncF7Kzoy0kPZNrxpE0bAGXdb0oQNpwDOPTZFFsNqAiU61x/pKBpszX92Mn3RMotdxDhUtg+eujEYN9UuRrXg9C1zWrcFUSB0bP0xMvdIQe/yKLzMpzwDRvsERJTsJAMktkfUS59nzj5p3GpUvA6JW1jFlb99QkoiFBkkDnvuyfAxT9jEZ5BwfWTseTXsdueuT7imwUeVjmOpV7k/uR+XsdVD7NhpXzhTpIOqrftG5guxMS2r370TGOKwPCeZm34OmW3dn30LXdzK0brbeOxVzF/VpO/sZtlzOMKtowkTnO6zgXhMZ1+qs58aDW88tpH/Hl4UREVEk451CqX+Spi210THnu55lCCVPAxnH+gAGfwYuWPtRym5EWG5TK+tIytNYAp+B82dF+i0PUO3gWRFZIPl3RWYh8M62PWDOZ7E8ZOZCnp5kDW5gDTAcOtYSvozX9weYnimMQlfd5BCbNp2pjaXPDfE9Hc1rKeOgvUMWD2iHrV+t45tpOtOxvMdkgDoGAHsAhRyyS26lGYWveJ5JopiCNzsVVMffH4CZFIA2Si3gbV7B848ajB8mlIDphV5uxqzUupGyQEF1DzGIt4Jba5v9U79856xTl2Hk9TWcOpm2Ac99DyswxmUdRq9zvNrBs9yObCNox66A9mo/RxbxWbp+fUL0TVG9QXDYOR72fXn9fBn/2BnjofrR6ML6hN4ZOFjP+2Edb6cB+6ZI9m9vOeFTyWvoPLnnuHtDIKwPiSY5431uOyj7Frj+9weY125WPzmjOI8ZSGsjppjd52zIcrXSxOa0lYFVXykw7Rsx+qeBp+QSEdHvb8zPwNVQqNrPzdRQ0BuY2rrtmsYSqLqND2eKO22k30Pzg64/QkbjChDP78l358OW21NqDpeusNMnExGWFQlbbr0gYANJe8qNoQHQsbZ3heV9/+/6j4m4I+tMGbOm4Hyzp+bYg1XpRSO9XoluFNI4hj3FZwM4EnfVPS9b2ACOpIf15d/ueQxF27Kn5e1n8CyCtpJ6Atj7tAUcv9mGEbp+DQU9qG4GzUiJQeX+Le7v3gOX8vNVOprYwCZawfsp13G1g+eFecR+1KxgThGBl65aL/MIehHNwkZ3Xepq/7rfX8S3PfuFCO+QfWr5Bp81FN4E1WWPY+K0p3V0jhowu5ZHfHmFM43PeqZupVDrc47raF6708xOtR51HNaOu57HbTrPbIa21wGF9QlBrKDmAFlFTD/1vzDH8/2wczyMjrUjcT7sz+KL/TzgmPvRsD6hXwYOAEqfrwDFLuejNH3QLcetM9HPijoqqV8R25favd6rT5D7UVH3AW+V3MSJO+VSZHv904cD169u44OYtmkvtx8zOPW0s7RzA6bf8sOlK+yIc9MofMWz3cbuDpC1p4DLL6e5W0dnj297JiKaVP/5b/yv//3qjfg3sd6SFnVaUg6V83fovPFfaMOW0+hEqON8GRe+Z0wmVdFoIvb59/0nEYiIiIjIwgDuJxssgKPfj4bTuw0xhc5EfY9BD/1byeeC7AbH/Lc8iYiIxoYBHBERERER0YT4Kf8OHBEREREREb0cAzgiIiIiIqIJwQCOiIiIiIhoQjCAIyIiIiIimhAM4IiIiIiIiCYEAzgiIiIiIqIJwQCOiIiIiIhoQjCAIyIiIiIimhD/jgAuX8bFeRlqlHU1A/eGNu4tClQ0bnH6a3662yB1RkREREREP8V4Arh8GRd3t7gXf0YblORQOXfLvr8zUBxl8QPRcHr3u2wLERERERH96cYQwGk43V/Et705xBPWnzVd+iwk2CkagwR8NzhO2OWrKDnFG24wJbJoReMW9/sZKEoGh/7y5UDTk22KuUFi32ycuy07Zwo2nXLkQLOJSt5e3xuAnmrudmwuAMmtgO3RjAGCw4A6zpdxYRjWcqNs/f55GWq+jAv77xHqTK00PfWhVpq4qOQibRUREREREb3cGAK4NjqmguVM98C+aKyjYwd2R8CmCAbUShObOAkI+Aah4TT/gB1RxjE2cKoBJXUO8b0GTLPhfGaV7ws032zDsItaWAT0OcQTJ2gvpCJn1YzCV7SVRWTzgFp5j1hVlL13hWXNCsjUynssX+5697W6jZXEHI6vgfZRwPYMIKyOsaCgs3eC9kIGseoJ2soskgCwkBHbuYv6dO86MwpfpfrIIbtk4kuhNsRWEhERERHRMMYQwNVQeDOHLzMHvgyWhvSCguy+yPZszYvlOWSXgPrnQaK2eWz6M2daCkkpY7S50KcILYXk9VcUqgGfOcutYDSWD1gnUBsdE7D2SXGzafsZKGINo3EFrB4M9pydrnozjaHC6hiAeYV6FYDZwLFc1c7fa6hfmph61SujpqN5Leojn8XyUyvCNhERERER0aj837gKLqlzKMGedgfEVcCabugPRMIDBrXSxOGqCH2uTxBX7cgjqBz/OqNXNNzA0DzbxUrBv0YSMcVEswrENBP1vXR3gFjdxkoVznRPq5xRZrEC6iZfjvzt5x+9t6XUMnGRyUHFLL593h5uE4mIiIiIaChjfwul8cMU/9dGx5xHuivxVEP9Esj+3Z2RMgppZ6ph38Ds+wPMsOmO1Q6e7SmDNr2F9sK69GxafyXVfa4vKOgqGhtIXrdQQg2dp+BppO7vq4gf3UCZcbeq/RiSAYv8DFxYHUehYXMV6HwXfw2qMwDQW3heeofNmQcro0dERERERD/NeF5iIr+ZcQs4VnUANRT0Bqa23M/sF2AYhY+oT2+87K2V1W18OFPcqZWeF4foaF670y6t8nWsHZnudMOhX5nvlrsJNwNYUk/wvHrQ9VIVtdIMqBuLM71y6O0Jr+NQzrTTDeBIzhgG1ZlY/jSPqcf6UM/oERERERHR8P7z3/hf//vVG0G/SL6MCw34MNALU3KonL9D502UZ/KIiIiIiGiUxvYMHP157GcA20dz6Hr8j4iIiIiIxo4ZOCIiIiIiogkx9peYEBERERER0WgwgCMiIiIiIpoQDOCIiIiIiIgmBAM4IiIiIiKiCcEAjoiIiIiIaEIwgCMiIiIiIpoQDOCIiIiIiIgmBAM4IiIiIiKiCfHvCODyZVycl6FGWVczcG9o496in/9bREREREQ08cYTwOXLuLi7xb34czrSGCWHyrlb9v2dgeIoix9iW5z904xfvD1ERERERPQnG0MAp+F0fxHf9uYQT1h/1nTps5DAq2gMEvDd4Dhhl6+i5BRvuIGdyGwVjVvc72egKBkc+suXA01Phi7mBok9M2RJxGBiKiV+6xXQNoP2tYlK3l4uBaBb81JZcmAqr4+BA8PAuvQE1XZZGk7vDFQqze7flesyavaSiIiIiIjGagwBXBsdU8FyJtf1SdFYR8cO7I6ATREcqZUmNnESEPANQsNp/gE7ooxjbOBUA0rqHOJ7DZhmw/nMKt8XaL7ZhmEXtbAI6HOIJ07QXkj1CZyu8A0pFKEhhhY6zr5uAEf2vprIalYQVDQOsHy5K5bfOKWolfeIVcX6e1dY1oYLmoLrMoeK5u7rzpni1D0wj2V8FMshjpuG0y24QbJcN0RERERE9MuMIYCrofBmDl9mDnwZLA3pBQXZfX/2KYfsElD/PEjUNo9Nf3ZISyEpZdk2F/oUoaWQvP6KQjXgM2e5FYzG8gHrSOotIG2kEPuho/OkIJbXkF64QdPeJf0T6phFEjnEpm/wpVDzlZBDdklBckvs034GivyxrnozjaFC6jKfxTKuUBf7ahS+oj0dEwGiuz1GIY2VQg2Ajub1PDb9mUAiIiIiIvql/m9cBZfUOZRgZYTuDSCuAtbUR38g0p2ps6mVJg5XRShzfYK4agcmQeX41xm9ouEGhubZLlYaMUwBgN4C7lJoqkDvVFUSMQVOls7LRH0vHRxQ/gLW8RPTOvdD6puIiIiIiH6qsb+F0vhhPxTWRsecR7rrkbIa6pdA9u/uZ82MQtqZCtg3MPv+ADNsumO1g2dlFkl5md5Ce2F9oAxTSXWf61uxs2hPHRjQseYJcHz7qr1DFg9oe5ZrOHWykDV0noKnnVrfj/oMXEhdVjt4VhaRFfuqVtaRfOpEmBZZQ+HNLuoRspBERERERDR+43mJifQGyvst4FjVAdRQ0BuY2nI/u6hYAYtR+Ij69MbL3lpZ3caHM8WdWumZ/mdPCZTL17F2ZLpTOkf2og4Fsdc1FN6cAFtSHbzZhuGpg3V0jhqww9uSeoLn1YOul7AMKrgT2pjNAAAgAElEQVQudaztXWFZ7Ovh0hV2egbE8jE8wPLlx98mM0hERERE9G/2n//G//rfr94IIiIiIiIi6u/f8Q95ExERERER/QEYwBEREREREU0IBnBEREREREQTggEcERERERHRhGAAR0RERERENCEYwBEREREREU0IBnBEREREREQTggEcERERERHRhGAAR0RERERENCEYwBEREREREU2If0cAly/j4rwMNcq6moF7QxvN72oG7u9uceorrmh0L/v30XB6dxu9rkPqkoiIiIjo3+T/xlJqvoyL/QwU8df20RzW9FEVnkPl/ABZu3Dc4DihojSq4gem4fRuA0nxN/NsFyuFmvUXXUV8ZPv9p9GxlhigcliXRERERETjyMBpON1fxLe9OcQT1h83eBNZl7tb3N8ZKErfKhr28ihZlhscJ+zypeBNZGnupcxO0bjF/X4GipLBob/8fBkX9vqeDF0MlXNvOcFyqJxvAEfuvjrBm7MtTVTy3t/bXACSW/7fzbm/KX/HKctbX+HkOnbLUStNt25EWWqliVNDZLYq1rZdVHKhddmLp3x7fZH5rBj+Y+5uo/N7gtwOnM+D6hJA0WiiUjEGaDdERERERJNtDAFcGx1TwXIm1/VJ0VhHxw7sjoBNMdBXK01s4iQg4BuEhtP8A3ZEGcfYwKkGlNQ5xPcaMM2G85lVvi/QfLMNwy5qYRHQ5xBPnKC9kOoRONXQeQKSqYDIQVcRT+yibkrLqttYSczh+NrKSsq/q1beI1YVy/ausKxFnPLpUzTkgDKNQtVabhTSTv3unCl4KwKn5PQDdo5ukFydxZejGygzydC6DJUv45+lK7H+LurT0vpKBrGWKOd6HmkNsLJvc9g5M73laIbbDsQx+1CoBdelVTiyS2I7j26CjwMRERER0R9kDAFcDYU3c/gyc+DL3mhILyjI7ovsyta8WJ5Ddgmofx4kapvHpj9zpqWQlLJsmwt9itBSSF5/dQIcD2e5FYzG8gHrCCV1DjuP6wFZvEHkkF1S3KycNP0UgAhgok0TLbVukNzqzmzJ2cbDVbd087IOA4B59knKZA5Wl2pmERDlADUUqjeYeiV+32zgWBzakjrKqbSWdlUE3t8fYE7Hhqx/IiIiIqLJMJ5n4GAN1ksQU+sMIK4Cwc+rdWfqbGql6QYb1yeIq/boP+S5N886o1c03GBGftbNKKStIEIzcH9eBuRsXmQm6nvp4IByEOJZMWtK44F4/jCHipbB89EcVsRn//QrJ6Quw4/JCHx/gLm1gfu7Ddj1MXg9EhERERH9ucb+Fkrjhz3vrY2OaU+hk9VQvwSyf3dPf5On/fUNFL4/wAyb7ljt4FmZdV40AgDQW2gvrHufNeujpAY86+bfhgjltB9NN0MFwJqKGTztFMCAz8BZjEIaO2fy75jofAfsbF9PPeoy6JgYP0woS1n3Wb78PJ5/BNRPH2pmEc8B0z+JiIiIiMgynpeYSC+huN8CjlUdQA0FvYGpLd8LKgAYhY+oT2+87GUU1W18OFPcqZWeF17oaF670y5P7eewjkx3SudQ0x/lF4/c4n5/Ed90+5k2KwOWVcS0Ual8o3EFrB54freknuDZXjbI6/V95JeAHC5dWc+Q2UHy/i3u794Dlze9C+lZlwF0FTuXi2LK5QGWL3d7T5UU0zkPVxUoqwdO+UbjytM+7OW96pKIiIiI6N/kP/+N//W/X70RRIAVfKZb7nNy/r8TEREREf3bje0ZOKJBlVo3uN+ysrYAALOBHQZvREREREQOZuCIiIiIiIgmxNhfYkJERERERESjwQCOiIiIiIhoQjCAIyIiIiIimhAM4IiIiIiIiCYEAzgiIiIiIqIJwQCOiIiIiIhoQjCAIyIiIiIimhAM4IiIiIiIiCYEA7hBaAbuDe1Xb4VDrTRxf9dEJe9fdov7OwPFrnW7l/eXQ+V80O+8XNG4xWmUqtYM3N9FXNf/vd/oWP5Rhj0mv7HI7XGURD36z/HRyKFyPmi5OVTOb3F/XoYqL86XceFf1vW9n9+HjETfffsdaTi9u8X93S0uKrngz+S+7zfbx4HPtVFs/+9QB5oRcLwolNM/BrXzwcoIbW9/5DHRcDrQOFDD6a8+NyjQ6AM4f0f4kzvGohEwwPhtWAMgp7PQjCECKpdRSCOeSKNQ9S87QTtw3e7lfWnvkH1qoWT9xRkYRA0G3cBxgE5WM7CJE6zpsNqPL9BSK023DnUV8cScte7vSDM8A3C10sRFJeepl8j1Y1+wAupjkDoe6pjIRnxM5O3xXkhDAoaREGUHteOAi3pJ3UUnP0jAI8p/yU0CXUU8sYu6GWHdgIFG0Rgi8PP019b57tZDDYU3c4i/2YYxSJlyH5Iv40Ju9/ZveZZ7zxfvedJ7nzzr+9vNwAO+HCraIr7p9v56g96iYR9f3wDHrkP/vtrbpBnStlntxNqeYYLqIDrWEnPYOQtqONZncXU8HWbRCDi241bdxkp1FodRzzXfcfk9bjTlUMkr+NaoOUvsuvRvX/By+docZUwx5vWlcy1KHzh4u7Hqq743h3hiDiuFWt9vBOp5rfIeE39fZPchnm139tU/VupXD971A6+Dkep+8DFaP2plHVOXdbfPDxmH/Jp2adeN3G+G133Y2GeoMZHoR+T1g9vC+PzkDJxcsWEVbh806y5BxanYKBc2DWmc4PhpEdnArFSEg6kZuKiU3e0xNDiNZGseWNjo3p58GReRti+JGExMpazfL74C2s41NrhuPA1COjmGz6jJ5I4huMEVUwrqn+Xe7QbHCavTjCdUEdiF0AwcLl1hJzGHeOIEz6vvIx3D0y3gWB5gTMc8HXpyBuh8R2iGomg0UakYXXXm2d+tefcLngu6qM+eA+KwdhzMvDYRy3jLsgJqa5Blnu32vwhpBu5Tre5B2aB13Gv9yO0YAx4TKwMTdC6rlSYOZ76K9uS9kKqV91i+bHTddHAHzn14bpD4B8oHiFWD2rHV/updg98aClUT2b+jDhKziF2eoD6dcs5Pb7uUz/Hg5eHk89ZdX5lJetaJTZvoVMU+hV0UM+G/WzQ2gCP7mEi/KdV90bjF/X4GipLBYciAuKsPMRui/UnBYHUbK/ayIxNZzRrE2edJXLTXNux9Ciavf/yUwT9Sv36ff3B+N8qAz2p/Hz03yBziJlPPQMjep70GTHuf32wDrxSYmLWuUfks8HTTd1tGo1dmThB9oXUMg9tZmKJxa9WJ/9j2KEe+vgUFUp4bskH9tE3/hPr0erTry34Gz0dzgX1O1t4e+TfPy6gY3b8rb7s7mG/i1BAzYyreG0E9B4n5LJafvjptrWjcIt3qvnkTtlytrANin46v5/G25yA0h8r5hrP+zpmCzZ796YDr58u42IIYJ+yiPr3RM0hWK82QduMdiHvrLImY4u8Lgte3bpr6x3ToP8PBd0wAONdquQ8pqXZbkvdV3ChJzLnX+cdet8+l9fcamNqSr1th16owwWM0t/1tQL5S+MeY3nrOIbtk4ovdX4aMQ35du3wP6P7ERFjda9i0xz57DWD1nRNrBC/vRdzcO5P6bvua4LSF1NhnnfzUAM4eEFg7mJY6q3V09uyLN6SDNo9lfBQHAVjO9MtQpICWjlLLdNfNl/GPNGBt48YKDvJl/OMMHHfxbckdyCqri2J7TtBeSKFo33k+ugGuT7q2fzBX+IYUitAQQwudoLqRBjBu53CC9vWJc7EZOqPmIfbLaXC+C2C+jLfTV6gPtZ9AMTWPdtXqjNXKOpJQEHvd50taCsnrlttJVTt4BhA4DSs0Q6EguyQGa0c3SNoBs3GA5UvRAR/ZJ544Efd8ncb3B2AmCffuujsgDmvHoR5b6CxF6RR60NXAweKgdTzUMfEb6pjMIyvON/dcti4Ox0GDYM3A4cxXrBQ63Z9FpavYOVOsi4b2DtmnE+uim89i+ekk4K5rDpXzdXT2VNQDy4s6SATUzCw6DR31SwVp5xokt0v3HA9fHlJ25b17Qd+7wrJWhvr9AVaVd093Ce9fFWRnWm6fIwenmoG3j7tSHUl9oKSk+gIU/93sYfuQp05Xlk+trGPq7FOEAYzr+Yc18CimFNT1QTKHOWSX4MmIuDSc5h+w84Is1vPlA2KZHNQM0GkNXcyAemXmACu4sfrCNT2knYWWrSG9cBN4LoeV4x+4+89H5/M32zDC+mlHxBssWgrJ66BzH4CSQawlroWQbgI7y61BaFqDb7Am3whTkMRX7JwB2aUHHJ+ZmHqV6zneAIDi3xk8t9yNKqnBWaGw5UYh7SxvP/ZJ2eezWEYDxzoAaNhcVbpuyL1kfTWzCNjnqfYOWQVWHYQwfpjAQtBgVx6In+BZDKytgGMDScxj0xNUB68PAMrqLJr2OMr+rT4zHPzHJBrTupHpoWFzVQqCIhXzYI3tQq9VA/LduG1Ly512LPrxD/J2emZgIXQc8kvaJWoovOk3/pLrXseac8PQHsOgx/JwReMAsWoahR/Swu8PMO22lc9iGQ8vHJ/391MDuFLrBsktf4SvIb2gILsfkBnBjdPojUK6713TYgpo6gD0Fp6Xsr0HQZlFKE427QBZRfrw2r7r0kbHVBDrN2CrbmNlgICu3gLSRgqxHzo6Twpieevi17RPAP0T6pj13SVJoTmGaS/uXRlfHcCqo+eqf9Bjd5pRU8TWXbHDma/YsS9mvbbnlYJ2UKeZzwJPkAbDvdlBCr4/wJyOiQDsprsTzWexDHeAaRS+oi13GloKUwCSSCImTsjgdtxza1Coos/dp5cYrI5D1x+wHQ92TEwnC2P8MEW2KImYAsS6plD2HiCX1OhTwIzCR3xbOsC9nNV9PQsFsa5pKdZAs9f+16zztW/Am0N25gH1KmA0rpyMOyC1S72FtuKe42HLA8teUpDcEtu+n4HntNViwNOsNAOhV//qHhP3PAGgZHCYf/BeyIcU2IdI2brAaSz+DLzYj2iDIDfb40zDRg6xaUjZxijnbhIxBAWeCrL76+j4g0Fpn7qOSZAfdXRm3mFzBmg7N4t+ISWDw7t1dPbs9t+nnfnlY5gSg07v7JCwcqwA2Tu7w5Xcsvon5zzv108D3jYcQn2lhGdCTHvw6DvPneXuQLWYmpeuUzqOz+Csby9vV7edAVzP8QY0pKfd33iZ6MFCstLE/d06OnsnffqcYdZPWudh/gE7Rze+2QE+uor43gPe9szQulkj66a2uBnvyzIFrQ8ApnPjR8dapCxW8DFRVg96zCA7CMzYR77xZGcE96Vp2yHXqt6kMZp9bXuluNeYAXTPwBrW+NplL2F1P+hyj66bm0J1Gyt2O9aAD4M+ajCEnzuFUsw3/oD3vikTcsq3/+DMMyVSmnOcXrAb7gaSiriDVu3g2bm4bgBH7skrp8OHz6gNIB/DFADoLWABbsDWj2Yg3YrS6Qy6PWX8s2q6Ux08N0isE867jfIdrv5TIwAguSXu/otjat8R76UrAFFmkXwNoPUAvNKkqWGDsIKFyKodPE/HUHz1gC/VWW+QEtqOexA3FcYxTBu0joc5Jl1GckwAOcse32tgKl/G/19ZR1I6Z63/f8mzQSZM/82/hUVAd+/mv60cY3PVHWge2v/fdZMi6A6rTz6L5QWx/fsZKIF3l+HeZY26XNoG+9kPz5Sj6RiKr4BmC4i9dm84DNq/wmzg+HLRnX44tIA+RJ4q6ZvC605/bCHd9RKmqNk3aVZBKyUdPynb6Ls7Hypw8GCifhSQjZKnhe410Otec3JGAVBD/VHB1GN97Bf5SMwbtE3/zYmQdhak2sGzqK/u2SEDlCO0r2/63H0PEZC59esZTIxR2Hij6xmjoWk4vbNmEPQ9T5QMNme+utvRr88ZcH1ldcPKuopj3Xv6IKR+4Sti+6Kv1wxsTje6s0ZhBl2/h6Bj4pnO7Zkp4Y6LPuB9V4IicvZNjCviiY+AJl3vuq5V/frl7imUVp8T4PsDTPvGghw4Ai+egeUaY7vs87tBdW8/tuFPCIUt98qhkp93A/kt8f/2s80a8CExh3h1FocjeP6wn9EHcNUOnhV3+oGaWYTi61SNQlq6899Gx5yPnFmxv981GNFSmJI6SGealm+5MwXxhwmlT5auS9gdvkGeHXrqwOi6C+SrA+0dss7gS8NpqjW+l3TIqXr5HNdSfQZMYg66M5jtfuFEqXUjZTM1bK6i7+DXzc7Y2uiYQPoVUNfr6MykEBtsD6Vy7DrWcGpnIvzttbKO5FMHBtroYBZpAG29BeTXMdWzHfej4/hyEW+Xhtr4UL3ruPuNcz3X9zz/0ssoj4mUFX09C+Wpg//P/9yT2cCOZ8r1beQXJNhTHVaq0tTB7w8wr91nG5IzCp5/bHbNm28f+YOdXKRAVc0sep6xcaZdyes47SzacpeVHeiaTl7t4BmzSKODkt4CUinxQbT+Vc0sAtKApV1I48vMQbSbE9Lg3aNfH5KPYarPM22ioJBBUMAbFQPV0HmSso1Stihcj9kX3wd8aUYXq9+MMqvENc4X+gDAA47fnABb9nUspJ2F0tG8ng94ZiWsnBrqlwif8thSsXO56NZxaD8teT0L9AkUjMYVzIVo06B7aT+aztT8KNe28PGG7xmjYeXLuPBkUF1db6uu1vHNdM8Hf10Otn53uzQaVzCdrKU14I1+k9C6tjjs39FS0W5+Drp+oP7HRH2lRLpZEJ7p6X6DeKDAa9XgbUVur0XDzU56r1XethM8A2tAPdpl18vCBm2XfQTVfdHwZfb7LO9u3/JjR9YjBebZrvtss30N1T+hHmX23guNIQOnY+3IdKbsHK66z7jID0seLl2JKTo1FPQGprbcz4Z5M14x5X2Dk9G4ApayUPUWnp20tzRNS1dx/CRNe4kSLVfr+Ab7O6N6tbeC2OsaCm9OALsOtoBjceeqaGwg6Uy9cAcrXfPAh1ku748GfLu2t6n7jVgW+SHhDeCoT9ZSV3GMjejrA9YUsq6MxTySMx0Y4q51EvJUnQNkFTFFrOfgRm5n6+gc2XfJdaztXWF5322X1tS9GjpP9u+20YHiDA6C23F/RuErnpVB0oASEVwdririRTqi/Q1ax73WF/O/owWkozom9tSZsKlz3dqPZkh2xEutNLFpT4PRP6E+vSHa/TY+PK47x9CdatdHPotl+XmAQNbFX846lVruc5hOhs9pZwhdHlaXJfXE26fZg1xlHlNoA9DRxLy4+PXqX92plUHtuKRafZK1vjj3pRc5ucGdGLx7psGG9CHyiyj2F/HNvisrv7XOd7e2aGxEfvbN80C+NA23pH5FbF/63b7Pw1kBRmgAY59HowqonBuD0nTXO+8bQOuX0dq93FdYd4pFXxG23N0ppy881Xq0sxAl1ZqV0T3lLbgco/BRWr/7xpFRSEt1HNZPu/xjgEDVbaxI45PIMyh8nG0bpN8NGm/4nzES3HNf9A3n7nODQcuLf2egeNpOr/FMDQW9d12+aP3qNj5cLop9tZ4779W/el8yJ01D1Fto22Of1EP/t/EOuH7otarnMfHXgfdFcJ4MjpjhFCk497yg58Cdyj/Utap7CqV8rr19PHHqxmhcea4Nbp8QNAMLoeOQX9Mu5XGt+A27jwqq+3wZbxcgvYhQXNvClg/IKHyV+rkDZH0vwBmH//w3/tf/xvsTv5ZaaeIffHROKv/fKUC+jIu/O1gZ06um+3HeTPiLfv/fy33j1W/7zzIA7hsFf8Icc5f9xqvhp1pbb+rqrtuw5RPtF/cho2FP/fkJ0+uj+CXtfkKIt+NN2jWjaDQR+/ybtC8C8O86Jv5rj/N3GLh49Ynj5N/cHx/AIV/GhecB7BscR3qIlX6lP3JQ+zsT5wnOdn/rTrto3GJz4eefw6Noj/+qAO5PkS/j4ic9kB7OurGSVXjtCvRbHCOiCaQZ3hdbmQ3eIJogf34AR0RERERE9If4yf+QNxEREREREQ2LARwREREREdGEYABHREREREQ0IRjAERERERERTQgGcERERERERBOCARwREREREdGEYABHREREREQ0IRjAERERERERTQgGcEE0A/eG9vO+J3//7hanniJyqJw3Ucn3W/abCquTl9bVLzVB9U9EREREf5TRB3D5Mi7upMGtZuD+zkCxx1eKxi3u7+w/vdedaPkyLnxBi1ppugGbriKemMOa/nM2R600cX9ehir+XjRuraBKM6TlOVTOb3FRySE0cNEM8blbrvz3kWyn0z4YOBERERHRv9foA7jqNlaOTGT/1gBoON1SUN9TUer5JRP1vTnEE3M4vp7HW3vwLzJS93e33myNvNwe0OfLuPAFI05gFFKOJzAwNNjByv3WPLCw0RUwyOu7AYr4zp34Xj/TMWcbASA5A3S+y9voD34PkFUUZPcD6iET8B3ne/0DYaOQxvFTBpua9Z3N6QZ2VB3qKwUmZpHNA8hngaeb/vvVZSmkLnvUsWbgolLGaVcdA+0jq33snEG0LcBT9546kJe7deZpE572ojm/6a03ebm7jT2PCRERERHRGI1nCqX+CfXpDdzfbWDq7CMK1cG+/vyjBkDDaf4BOwkR2GHDGnzny7jYAo4Tc4gndlE3+5UWXs4/S1fO8riqA6ih8GYO8aMb4PrEWp5IW9ufL+Ofma9i2S6+Lb1HJQ8UjQMsX+5ay4/6BDrVDp4BWAGGL8DS1e79cZa5Aa61nQCgIDvTcoKa5cxwGa/S5wamtm5xv6Wgrm/DEMufLx8Qy+SgZoBOa5iSL0PqskcdA1BWF9HZm0M8cYLn1feB2TbzsQ0AUCvvEauKetm7wrJmBWQDHRMARWNd/OYc4kfAphPwbQAicHS2secxISIiIiIarzE9A1dDoXoD4AZfCrUI67vZjLePu9YUQi2FpJLBociAbC6IVV/PAmef+mT0JGHlVOv4hgwOI07ZVDOLUJyM0QGyCgDkEJuOuo+SfBZ4AtIvStyYqH+2AgfjhwllJul+pKuIJ/plPYXqNr5cA7j+6g20f9TRmXmHzRmg/f0BkMsPoKweOBmvw1Vl0J1xOduho3mtIPbaWpzcEmXPfMVKoQYgh+yS4iy/38/A+tVBj4mG9IKUTZOyqKXWDZJbtyOdDkpERERE9BJjCuCsqZPta8XJZgAQz8cFTVUT2YyjG28g4mRo5pxnw9RXQwQHAeU42bZEC+m7W8+zYGHMs12pnDQK1SRioZsTMP0OAJRZJF8DaD0ArzTEpk10BsxQjpRmYHP6Bu3pDWd6YXJGAVBD/VHB1GPdycr1ItfNzlnftGhEpjW9FGIK5V4DpmcKqpQFS8wh/mYbBnodkzA3IqPry6iJZxI/4H3Ay2WIiIiIiH6+sQRwamUdyeuvWFM/oi4FBqhuY8UZKAdkiPRPqE+vW8HO9weYC6mu7Jjxw4SylIUKawpd1h6sVzt4VmaRBKygxM60hZQj/SjWEido29+1v+N7Vk3+XVcbHXNeZNI0nHqegdOxlvBNv0MbHRNIvwLqeh2dmRRiodtlq6Hz5GaiIon4DByQQyU/j3ZVxZrewNSW/R0rcDIKaZHteoGAuuy53JYv4+2CL7itbuOL/cyeqJfuqaPhx6T9aGLqlXgZi2Zn7OT1gxmFNHbO7O+6vz3QMSEiIiIiGoHRB3CagcNVE8f2M2XVGyS3or45sIZC1URWK0OtbuPDmYJNfxZLV3H8ZE2JPJy5kp4Z09G8nrfWzz+gfi0Wh5XjyQZuAEdSQOlMrwz+XTeDWENBF8+Q3a2jc9RA/9zTPJIzHRgiw5XEA9qwX5AivRxDygjaU/lG/cKMonGA7NOJlZGsbuPL9Tw2z8v4K2hlJ9iSphtGyUoF1WWv5fY01f1FfAt4+Y31zJ4VaJbUEzxLUzetuvEdkzP3GTijcQWsHuD+7gCxS/tYyet7X54ivx31cOkKH6RgdlzHhIiIiIiol//8N/7X/371Rgwvh8r5e0BPD/yiFPoNaQbuU63RvhRkHGUSEREREf0i/Ie8iYiIiIiIJsSEZ+CIiIiIiIj+PZiBIyIiIiIimhAM4IiIiIiIiCYEAzgiIiIiIqIJwQCOiIiIiIhoQjCAIyIiIiIimhAM4IiIiIiIiCYEAzgiIiIiIqIJwQCOiIiIiIhoQvw5AVy+jIvzMtRfvR22fBkXdwaK0HB6d4tTrffqRaP/Oi+lVpq4v2uikh++jKJxi4tKzipr5PWdQ+XcqoeicYt7Y8QVMuAxCaUZ1r7ny7iIVJ/Wfo2+vl5AM3B/d4v7O+t4AmNog5ox/DEcuI4HMxHteFTtFTlUzkdfhz+fhtM7A0UAY+8rRtX+xtyOiYjo3+nPCeB+W210TBOd7+6SonHrDJ5/5qDeKKQRT6RRqI6grB8m8NSB8fKiArUfTZiPbefvdp35B7HBy60Br1XH9oDPU3rXMRlKtYNnmOhU7d90B2jewKCGwps5xN9sj62+BpNDJa+gvjeHeGIOK4XawCVYNwNuu4LAkfPU8eh1tWM7sPUHBCHL5XM5KMDyt+PhyO1V3AxwtkMOakanaETsm/JlXEjtYOSBVASjqeMQ/vYn3fjw1E/Y8rByiIiIXmBMAZw8gJbvOoYPrPsNhMLL95aTNSIGRp7sgHyHWi7bPzC1Bk8vGayqlSY2pxvYSViDZ8+g/pU7GLLroGjc4rTiLnd+2zNwEnWQL+PCMKztN8qerI874Jbqy5e1tDMwaqWJU8MakNi/HWWf/XfC/RmdYTM8ReMW6dYu6ma05WplHTiy6vf4eh5vxxVcyPIxTJlALJMDkEMWJqwhpRhwBw5ug9qxNSCvOMfLPX/kc0Q+Hp5gylf/we04iZgiDSZFW9pcAJJb0W8smGe7Vhv2BIHS/m7NS/XjG+h79rdXsN3N387USrOrPoY6RzUD96kWds7MaMvzZbzFiVUHRzdI5n/WzZgbtJHqrqugPkEzcH93gKyiILsf0A41I6DeNaRxguOnRWSjZIxMuz/bRX16XepHg9pxSP+qGbiolN3PfCZ83cEAABC7SURBVMfXWn8DySjV05Xt8ge5wwa9Gk63gGO7767O4p9KrsdyIiKi8fi/cRRaNDasAbTuX76Ozt4c1qpwAqiSqltBDU4QT+iB5XnlUDkPLh9KBrHqHOJqDpXz98jmAWPgO5461pzt0HB69w5F1FAatJjqNlbs337jDm6zS0BdD87EJJeAncQcDM3AfUoDoHuX58u40LJQAWS1RXzbm0Ohag1wDg0Npc8AFhR09k6A/Q3Ejk7Q3kohCaBUSMOAhtO7VKTNT04/YOcIONyaxfHRDTZTSQA1lNQ5URc1xPuUUWrdSPuhIb1wg2bPEW4NBaeu0k4dldQ5WFkjX/khy42C+932o4m39geBx2QIuuq0PSMhLX+6QmcmCzUP4EcLWIq5+6QZuPdUfY92jHksYxfxRA1qpYl/Mjng9TvpHNFwevcelXwNBZTxz9IVdhK+NqUZget3/rYCNQBI3t1iEzc4TqhYqdoB8RzWopyGIYrGAZYvdxEvyPucQ0Vqr9bvqCghvE8IreMARuMK/2hZqKjBEOfYN7338Q1sx7qKOMQNAFnYcrk9fX+AG94Ft+OB9WivzRbwtpJDqWAv8dax0yeoKuK61R9Cj5h911JAS0UJKVxkckA16rli3RhoOr8R0I6r4f2rsmpt/1rV6qeKAEqagUOnfcv91yB1rKN5fYu00xWlkLxuYa3nV/q3v2JqHkpASOkurw3UjomIiKIaSwau1LpBcst/119DekG6C+zcnRdBzeeIo8Z8Fsto4DhoddNeXkPnSUHs9XDb72Yu/Hd8ralww0w5s/gyHz7tqhiEf3+AOR1z7uY7y6vbWHmzDSOfxTKuUBflGIWvaNvrm2K5GVJHEZmXdRgAzLNPkYPXkjqHuCr9qN5Ce0FkCsSgqYTu6XcvfS4vnIbNVRNfhj5eg+qg/jiLzb9nge9tdDAbnjHo1Y5x42yzUUhjpVBDMTWPdsteWcfxGaz2Xa3jGzI49Ge0Q9YvqXOIJ07Qxo3IGKiD35wQlNUDXyYlh9j0zQD1HdYn9NbVzqp1fIPIFsnnhjytLXJ2fzjFvzN4rv7EKbL6J3xbeidl03v0CT3LUbvaQDEFNHUAegvPS9n+ZSgZHIr+csrTX3S3Y6BH/3r9VQSYbXRMBbE8oL5S3P4vquo2VnxTxUutGyRTmtg/+9yQssWRprTrOD5TsCnWTeOmz3IiIqLxGM8USl1FPDGHD3jvGzTduNNMEr5BWICwqWGDGqgczZCmOJ5g9E9WWAOTfwcdzet5pDUxEBMBhfUsntQORvRcnpeG07t1dPaGD1AG8noWCgCj8YCp6QdnID1+4vm6RAvpn/xMZfcUyiRiSvA2dp7cQG0TJ1KWb7A+IVgN9UtgOZMDXs8C4uaD3Q/Jf16SXQxTNG7x9nF3LGWHq6F+qVhZpZHSkF6YF8HIBpKKO40ytB813SnhX2YOegfJA/avyZnABjU452aSdZOhKW70WeeO9KfPc6py37XWgvPsXdhyIiKicRjrS0yMQho7ZyamXuVg3VWdDxhwWIOv7N/dV33PQN8e2ImMw+YAA5fAcqQsl1p5j6w8TrBfaqClfBmUlz4Dp6N5rQTu60CqHTx7BlbrSA7zQpFqB8+KyBJphjO1blhBLz4ofW4ArzRkZ66cbNPYM3D5Mi7u1tHZix4YjuINneZj282S9lt5wHbcfjSdDIKVWYTvJSw61hInaIvj2X/94N+wztVhyee4hlMno6YhLT/36QRpYX1Cb0HtzCh8xfNMEsUU3Azg2DNwVn/w9nE3elZebNMotsMofAXy65gC+vQJPWYk+J+B01KYkgLznTMRGCOkHx1GaP/aTW7HRWOQZ+D8dSyy0FoWsUs7SzhoBs73G1sKvjVq0ZYTERGN0FgCOPnlCYdLV/hQqAGooaA3MLXlfmYHQkbhI+rTGxEHWf5yhnwDmzP17BaHM1fuizD0FtoLYltSD10vyHipkrrr2dfhMiY61vausLzv1vFOnwGVdUw2kIS4u25YD4Q0r8Xf8w+oXw+5U0L70QQU37TBah2dpQ0sP9adoGbQDJwVXB0gq4iXbHhezNK9vPh3BgqkqXkR2ojRuIKJ4afdBlMQy4uXNmzNA6JdWe17sHZsFNI4ht1uNoAjUWeeF1dsAEdWxjF0/V6/0bgC7GmREdpl9xRKeZ/W0TlqiOfCdDSf7Gl2cgYnvE/oJbCdQUcTG9hEy824DpqBE3V5uKqIYyUC+rDl2jtkFW899A3M9BbawAsDZXefjy8BRfx/rz7BntbebxZCMeUNPozGFdBvGqXiHltvdjVokwfrX+Vrw9vHk2j9cbWDZ3TXsdF4wPLWIjrO/g2egXOubfuL+CbdIApbTkRENA7/+W/8r//96o2gP4Rm4D7/gJ3f5nX5g7CnXHLwNXL5Mi404IPdLvx/H9REt7McKucHiFXHM52TANYxERH96fjvwNFIFI1b3G8BxxM4qLYyedGyVDQEKdttZSmGf+HHJLcz+5X+y5c/+3m5f5F8GResYyIi+sMxA0dERERERDQhmIEjIiIiIiKaEAzgiIiIiIiIJgQDOCIiIiIiognBAI6IiIiIiGhCMIAjIiIiIiKaEAzgiIiIiIiIJgQDOCIiIiIiognBAI6IiIiIiGhC/DkBXL6Mi/My1F+9HX0UjVucaiEfagbu77yfq5Um7u9ucX9noDiODRK/eW+EbRQREREREf0u/pwA7k+gq4gn5rCmu4uMQhrxxAnaY/7NY2x4gzg7sGNwR0RERET02xhTAKfh1B783zVRyQct92aUisatEzCEZqgCy/eWk7XL6ZeN0wwpMMmhcm5vp1z2LS4qud7bcW7g9Nz6vYohb09YHQB4VcaFf1+dgMm37hB1YJU1WMau9LkBcyFlfSdfxsUWcJyYQzyxi/r0RoRjQkRERERE4zaWAK5obABHc4gn5hBPpFGo2svX0dkTy4+ATRFAqZUmNnEi1vdmoLrlUDmXy1dRsj9SMoi1RNCBRWQjBUJ+OtYSdtkneF591zsQUuaB6i7qyGD58QR1U0Es76uDIxNZzQ0ok0vAh8Qc4nsNTOXFcl21ttuMtpVhdfki5gPaANTMInD2yapX7R2yCjD1qlcgS0REREREP8NYArhS6wbJLX/2SkN6QUF2X2SNtubF8hyyS0D9c8+ozZXPYhkNHAetbtrLa+g8KYi9Hm773WzgBpJ9175BU7f++6VgT3TUkF6wlwPQP6GOWaesdnUbBgBUO3hWZiP8hl9YXdq/p3oD255yqJzf4n4/g2d7uwAASWt5/gE7RzdQZgbfSiIiIiIiGq3xTKEUz1V9wHvflMgbMS1P/FF7B23uCzxe9hzWQOVoBjanG9gRGTj52TN5mmfvqZU/w2B12ZuJ+p4386msbiBWnUP8jRXUmY9jewqPiIiIiIgiGutLTIxCGjtnpph+10bHnEe6K36qoX4JZP/uDqysF3j4ApRqHd+QweYA8VxgOd8fYE7HoAJQK++RVaQvPHWsTJSW8mTHSqobMK0Uaj1+0bev2jtk8dD9IhItheR1K2KmrEf5XeUO8gxcDYU37jRXADAaVzCdbGYOlfw8nn/02l8iIiIiIvoZxvQMnJupOly6wodCDUANBb2Bqa3uLJZR+Ij69EbEl5j4yxny9foiEDy8u8XhzJX77JneQntBbEvqIfIzaV3b+OYEsLdxCzh+405PTMrLRUBpZQkPkFXE1EjxEharLjeQxDw2nQxieF0OznoZiqfOq9v4cLmIw7tb3N8dYPlyt89ziURERERE9DP857/xv/73qzeCiIiIiIiI+uO/A0dERERERDQhGMARERERERFNCAZwREREREREE4IBHBERERER0YRgAEdERERERDQhGMARERERERFNCAZwREREREREE4IBHBERERER0YRgAEdERERERDQhGMARERERERFNiD8ngMuXcXFehvqrt8OmGbi/u8X9XROVfLSvFI1bnGpBn+RQOb8V5RkojnI7B1Q0bnFRyUGtNHEfqb41nN7d4t4I3LE+3xvxvubLuLgzUBTbFFzXRERERES/rz8ngPvd6CriiV3UzRGUpb1D9ukE8cQc4gkVpREU+VLGDxN46sAAUDT8QaqGUye407GWmENc1X/FZoZoo2Oa6Hz/1dtBRERERDSYMQVwIuvSlYGSl3uzK0XDXh4lMxJeTtYup192SDOkrFAOlXN7O+WyrWxTL0WjiUplgGybk5mT1s+XcXF3i80FILnVvf3qKwXmY9tbjviOvw6Kxi1OK+5nF5Wcta5hiExY2crmSeUXjWEyZDIFsdfytsUw9dSBIdWlpx41AxeVslvP0m+rlabYpw0k3S90t6d8GRe+bVYrTdF25IwlM21ERERE9OcYSwBXNDaAozmRMUqjULWXr6OzJ5YfAZtiAK5WmtiEnWGaw1rPZE0OlXO5fCkjpWQQa81ZmS8sIhtx6qKXyBgl5hBPnOB59V2faXwKsksP2EnMIX5kIqv1CRx11dnP+JGJ7N8aUN3GSmIOx9dA296vN9swRJB2uKpAWT2QAqEcKtoivom63DlTnLoEgOQS8CExh/heA1jKWtuzoKCzd4L2Qgax6gnayqwUIEVXUuewUqhZ+yGyau1HkWbUDF/Aa9Xlzll3GlJZXRRt4QTthZRVx5qBw6Urqy4TJ7BDVk97suu42sHzdAwqcqicWwFscgbofAfUynssX+52t6fqNlYSKkqoofDGbZdERERERJNiLAFcqXWD5JY/e6UhvaAguy8yI1vzYnkO2SWg/jniFLt8Fsto4DhoddNeXkPnyZcVGoCbDdyIFOS0q9swAEBvRQiMpGySUwchRGC3c2bCPLMCkpVCTdTBFeoiADEKX9GejjmBo7M91W2svBH/b4r1ze66K6mjmeJYfAU8z2SjPYd4/VUEUG10TAWxvJVpdLbdoSG9cIOmvXn6J9Qh1XE+ixiAWD6H2LSJThUwGlfA6sELs4pERERERL+f8UyhFFmmD3jvm8J2g2Mnu9U/aHCn071sit9A5WgGNqcbXVkgwDvNM3RqpfmAdvAnoowNTIlgLH50M+iu/LamXmmIoYUmZpF8PQv4p3xGkJxRBli7jQ5mkXwNdKoPiGWksFkEvvFWKtI0WCIiIiKiSTHWl5gYhTR2zkxMvcrByrTMI90VP9VQv4Q1lTDg+13BXrWOb8hgc4B4LrCc7w8wRdZKrbxHVo4dxMs5oKU82bSS6gafK4Va1++olXUk7e/28PzD+m4x5c3AtR/tuuqj2sGz4k4Rjfq7YV76DJzxwwRmUsAPHaUWkE4NV0770UQypYltsrOfvnajvUMWD2iLLGs6BXT0Ojoz61iGL3jWVcSPbqDMDDNZlIiIiIjo9zOmZ+DcTNXh0hU+FGoAaijoDUxtdWexjMJH1Kc3Ir50wl/OkK+aF4Hg4d0tDmeu3LdF6i20F8S2pB4ivUXSfvHI4dIVdkSAaGX9DpBVxLRR8dIQe3rp/d0t0o8NyMU7U//6voRFx9reFZb3u3/3V1EWFOA7AL0FLMxbQWrXM3y9X/Iit4O3jyei7msovDkB7OO9BRyLaaHtRyA5DSuYgwJFBLGejOsWcPxbvQGTiIiIiGh4//lv/K///eqNmGRF4xbpVr8XrxAREREREb0c/x04IiIiIiKiCcEMHBERERER0YRgBo6IiIiIiGhCMIAjIiIiIiKaEAzgiIiIiIiIJgQDOCIiIiIiognx/wDkGECd0F3h6wAAAABJRU5ErkJggg==;" vertex="1" parent="1">
                    <mxGeometry x="250" y="-270" width="680" height="254.23" as="geometry"/>
                </mxCell>
                <mxCell id="68" value="" style="shape=image;verticalLabelPosition=bottom;labelBackgroundColor=default;verticalAlign=top;aspect=fixed;imageAspect=0;image=data:image/png,iVBORw0KGgoAAAANSUhEUgAAAYwAAACHCAYAAAAFiW49AAAgAElEQVR4nO3df1CU17348Xc6ZZIQQ7QsNsEsIAWMUWLCakXRe2WcuIjZImbuMFUn0fGy+Ron5lcTkU5E9BaxadLUXMMUbq7GG+1lOo0SlLA6vdrxF0TW3gR/BDGIbCAG2IJoSXKZSb9/PD949hcsYUFjPq+ZTOTh7NmzC5zP8znn2edz28LHFv8DIYQQYhA/bP/cdaPHIIQQ4jvgBzd6AEIIIb4bfnijB3AjXLlyhc8//5xvvvnmRg9F94Mf/ID77ruPe++990YPRQgh/PpeZhg3W7AA+Oabb/j8889v9DCEECKg72XAuNmCheZmHZcQQsD3NGAIIYQYOgkYQgghgiIBQwghRFAkYAxi586dHDx4cNB2jz76KAcPHmTatGkAvP/++xQUFFBfX4/dbh/pYYoRtGTJEhITE2/0MIS44W7oZbVLliyhvr6e1tZWcnJyiIyM9Pi+2+2mvLyc3t5eEhMTSU5O5r333vN4bGNj44iNr6CggMzMTADa29v149u3b6ewsFBvs2bNGv17hw4doqWlhfr6ej7//HOWL1/Ov//7vwNQWloaknGtXLnS471yuVyYzWafdi6Xi76+Purr64mIiMBkMuFwOMjJyeHixYs4nc6QjCcYFotFf/7B2iUkJFBeXj5iYzH+7mj/7urqYsmSJRw+fHjA3ymr1UpycrL+tfF31GQykZOTw9WrVwkLC/P5fa6vr/f7+q1WK8Cg7823ZTKZsNlsVFZW0tnZ6XF8/vz5VFZW0tvbG1RfVquVzs7OUf3dETePm+JzGL29vezYsWPANl9++SUmk4k1a9aM6GSi2blzJ7Nnz2bZsmUcOnRIPwbowUL7d2FhIY8++igvvfQSL730Eh999BHbt28H4KOPPmLu3LkhHZv2XnlPrt5BFZTJ0chisWA2mzGbzaSnpwPQ19fH7373u5CMLTw8XA/+brebhoYGZs+erX9fm2xdLhfl5eVYLBZ9HEa/+MUv9H9/+eWX+vs5XFqm0NjYiMlkIiwsjNbWVnp7e3n33Xf196uxsdEjOMTHx/Pll19SXl6uT+zahBsfH8/8+fMBqKqqorW11WeC1gIm+AYd7/cGQvsz6ezspLKy0m/Q8Ob98zh8+PCoBYecnBz9xKevr4+qqqohnxD6+xvQ+u7u7h6xoPx94RMw7r77biwWC0eOHPFpPG/ePJxOJ9euXRv2E2sTQnx8vD55BKJNjKWlpVitViwWC//3f/9HV1fXsMfhT0FBAWlpadxxxx3s3r3b5/vt7e10d3fzm9/8BrvdTkxMjP49LbgA/Mu//Av/9m//BkBLSwvTp08PyfgSExPJzMzkypUrlJeX62e2d955J6C8t9ofnFFUVBQJCQnU1dUxbdo0PvnkkxH5A+rt7eXo0aNYLBbA98xa+6PWBDrzHgkRERHEx8d7BKSnn37ao01WVpaeOTgcjkGz2aamJs6cOeMTnAcymhMxKEFjsJMyjfbzsFqtJCQk+A3oDz30UND9DUY7yWhraxuxk8HROMn8PvCbYdjtdpKSkjyWUGw2Gz//+c956qmnQvLEb731FkuWLKG2tpaIiAiPP2Cjw4cPc/78eR566CE9u+jt7cVms4VkHP4UFhZy4sQJj4zBaNq0abz66qtcunRJDwIHDx7k+PHjevaxc+dOLl265JGNhMqCBQsICwvDbDbzi1/8grq6Ov0sUlta0CYv45mWcYI6cuQIOTk5PPvss9/qTG4owsLC9GW0vr4+n/fTaKSXHp1Op/4+aAHN38RtMplYuXKlHoTj4+Pp6+vj008/5YEHHtDbud1upk2bRlpamt7uypUrhIWFsWLFCo8+6+vrPb42nlEbfduz60C0jMZfxgf9AbOvr4+Ghgb+8Y/++5FevHjRY7IdiSWpyZMn09vb6/ekwZixgufJhTFT0wK8kcViYc6cOVRVVTFhwgRaW1tpbGz0yKJG82TlVuATMK5du8ZTTz3Fa6+9xn333UdhYSEbN24kKSmJp556KiTZBSi/JJGRkSxYsICamhp+85vfAIF/IXfs2KFnF0ePHg3JGIYiUADYuXOnvs/x8MMPs2bNGrq7uzl06BATJ07k0UcfZcuWLaxfv94j+xiO7du36xPr3//+d/14eHg4NpuNP//5zx7H/O0PaUZ6H0jT29tLZWUl//RP/+TzvbCwMJYvX05tbS2tra2kpKToyzfaktFISEhI8Fia02iTiLYMZtx/sVgs9PX1+Uwy2n7IYHsgRuXl5YSHhxMeHk5nZ6eeOR47diykPxOHw4HT6WT+/Pn87//+LydOnAD872Fok6k2EZ84cYKcnBz+/Oc/D7iUNRwJCQlcvHjR7/dsNhttbW3s2LEDk8mkX4AQERFBdHQ0b731Fr29veTk5DB37lyampoA5cRj8uTJlJWV0dvby4QJE/TjsbGx+nyj9TcafwO3Ar8ZxrVr17Db7WzcuJH333+f06dPs3Tp0pA+cUJCAm63m+7ubmJjYzGZTPov5O23365PIF1dXR7LLdC/1ut9Bqf9EoymFStW8P777/OXv/wFq9XKq6++yqFDh7Db7Tz22GMsW7aMM2fOhCxYeLvrrrvo7Ozkxz/+ccA22mTt/QdvXFe/kfr6+ujo6CA+Pp7Gxkb6+voYN24cERERdHd3B70hOxSJiYmEhYXxySefsH//fv24dsKitUlOTuby5csB+zG+h3feeSdz5swhIiKCOXPmEBYW5tFW2wMx+tGPfkRmZiYRERG43W59gruRjEtSX3/9NadPn2bq1Kl+l6lHkslkIjw8XD8B6uzs5PLly0RERJCQkMDHH3+sv1enT5/W5wWTyUR6ejrvvfeez3sZHx/vsyQ50M9XeBp00/u2227zSFFD5ezZsyQlJdHQ0EBXVxc2mw2n04nJZOLrr7/WJxDjmZ4mMTGRmTNn+v2FGG12u51HHnmE1NRUAHbv3k1LSwtbt27lgQceoKenh1WrVo3Y87/33nuYTCYSEhK44447AAZ8T27EFVID0U4Uenp6mDlzJuHh4fz9738nIiKC2NhYn2WcUElOTtaXQy0WC06nE4vFwtixY/0uUSQnJ/PAAw/w6aef0tfX5zH+L7/8kp/85Cf09PTQ0dHhcWYbKGP2tzcQGRmpLw+FcqN/uBobG0lOTh6xS4u7u7tDfuISFhbGuHHj/GZFsgz17fkNGHfffTcFBQVcv34dm83Gxo0b2bNnT0iXpM6cOUNSUhKgnKW1tbV5/HCdTic2m80j8wAlWCxYsICrV6+Sm5s7Yuvvhw4d0rOCadOmMXXqVDIzM7HZbKxatYoFCxbobUtLS/V9jVdffVU//sUXX/Bf//VfjB8/noMHD3o8ZiQ8/PDDhIeHB/y+yWTSz9rOnz+vH7darSH9AwoPD2fx4sW43W6PYytWrKCvr4+//e1v+vG77rqLpqYmWltb6evrIzw8HIfDgclk4r777huRn63FYiEsLEzvOycnh/T0dJ918IiICO677z7+9re/6ZOMtmyknc1q6/4ff/wxsbGx+gmQcf8D8Oj/rrvu4vTp0wH3BrQrekaCv2VLb8nJyfrrO3z4MNC/FxYfHx/yMWmv2RhY582bp1+9ZrFY9N+J2NhYmpqauHjxIg899BDnz5+nt7eXlJQU/T3r7Oykvr6e9PR0urq6POaPzs5OUlNTcTqdI7bEdivze5XU73//e44cOaJvem/cuJGlS5fy+9//PqRBA9DXIisrKz2Od3Z20tbWRmxsLJ2dnfqVQKCs/XZ2durr8wsWLNCPhdrOnTuZP38+mzdvprS0FLvdzv79+zl//jwLFizw2MMAJcP44osvAOWuuHa7nT/84Q989dVXIR+bRnvdUVFRnDp1itzcXD755BN9QjRevlpXV6cvX2l/nEO5uicY3ldJ9fX1eVxRk5iYyI9+9CMSExMJDw/XJwbjBGqxWEbk7r2JiYlYLBZ9AtQuM+7p6SEyMpLJkyfr70tsbCyXL19m+vTpeqbT2NgY8HLX2NhYQPl5aNmBd4ZhfM2BjNQVPSaTiWXLllFVVaX/TfljXJIaDZ2dnZSXl+uBWxtDY2OjviRtDGDa73VCQoKekblcLj2gA3qbZcuWcezYMf25tFUMbTlbWyaU4BGc2ywWi8d602CX1V64cIG2traQPLnxChhtQvO+QsRfoPCWmJhIenp60B+MG2w5xm6388orr3D77bdTVVXls1cCSiCZOnUqq1at4qOPPtIzjD/+8Y+sXbuWN998k9LSUj2gGD/sNxBtkh2IdsVRfX29fnZ28eJFjyzBarXqwTgsLEy/dNnfJrjb7Q7ZJZL+Xo+2YWx8bm0C1iYuf59L0ITyMwlLlizh8uXLpKamcuedd/pc0q1dudTW1kZPTw//8z//w4QJE8jMzPTZk9BoE6z2+5ySkuL36idQTiI++eQT/XdQu9In1FdGefO3jBvsB/eMP7eRHqe4ufkEjO+Dm2X93p9gAoYQQtwIci8pIYQQQZGAIYQQIigSMIQQQgRFAoYQQoigSMAQQggRlO9lwPjBD27Ol32zjksIIeAmqYcxmq6aHuabl3bBbTff5PwNcOViOfdeqhy0rRBCjLabb9YcBbfd6AEIIcR30Pfyg3tCCCGG7oed7pGpWieEEOLW8sPbbpMFGiGEEIP7oazoCyGECMb3ctNbCCHE0EnAEEIIERQJGEIIIYIiAUMIIURQJGAExczj6zazpWgz+dn+K6kJMSzP7OLAVmNJVCvFVbXseuaGjUgIH7fFTUwI+Qf35to3k0k160uPe33HzOPr7Ey6UErRXhek2dmyaBx1pVv5U/PAfcZkr2P1jDG0HHiFEu9u9e93UZVfylHjOMY5Kdm6j5YB+yXwGNLsbFlkBlxK33GLybdbuJvrhseksbpoDu2lxxhvz4ADpbTPsTP+2CucmTL4GEaPleKqZbRlPsG2YB/yzC5qlk9S/u0+TEFmHpN21mL9YgOL1k1iV+0ykgI89MK7M3nizRAM+9t6ZhcH7t/NonWOwdsCyvuziXlq9drRHP/anbtgxRM0bK2icF6knxZujmysJnqj8f1u4ML5SSRN9mp5ZMMQXrMQwQtBwEhjdVEGMYO2c1GV/wGXsxeyesY46kr3QI6d6ff4adpcTUnHHFbPGDNor9dOlVK0Fx5f59nXtVNOumZYPMfVXM36UgYfb7Ma7PRgMdjzu5hr38zcDuU5aXYRM66dkq0dLCrKIKbZX/AcedaAk48n95ENLDqSzoGN6fi0Pr+b1BXe4UWZWKM/2A0Lo9mdmYcDWLuziujyTPI+CNELGJK1Awavfg3smfkE7Kxl6WTv77k5snGg8a9lV1X/6wWUgGqpI3XFNtZ69Gnoa2ExB3LaWOTzPqoWFrNr3mGeWOfAurWKZZ9l+gQqj/d2gEBo3bqL9CNP3KCfgbjVedx88I477mBG6qyAjU/VnOSrr77yOnqcknx1MlQzhmtXx3A317l2TxdHDWf8AOwtZf1e9cweJyX5nmfeSnaicXlkDJ6UQDUOiMleynSclBwYz2o1Yzn1yDpWX3VSdWESmUkNhjP8NKB/ovfMMJQMaLr+0kpZr740fxlM/1DsZMYBcRbuBogzA+OYkT1eCUxxGWwpygCPrGTkOdZl6hObcga7m+iqZbRl1jF9JzzhMYE5WGScZAyTmJ+eyct0AGvZtRDPLGRjLTUbCRBoRtI2npipPp829s+WceD+3Wxjme8kumKmR5alneEPb8SGIPHMLmqeKcb6gSG4BLA2J5q6FVBcVUV0OyTNq6VmuZ++tfYWE/Xlaq8ewchKejK0rRvWixAiII+Acc/Yscz95/SAjS98cp6vrlzx/824xeQvMnPtVClHo+xkcoyjXRlkFtlBnWS1ZaV+FlYXWfSvWg6U0j4OGNLdSn7MjCSoK99HSzNUTdnM3EfSIGkMLcf2cbR1MXNnTGJGHLQYJuq7Z9jZMqP/6+n2zf2Bogv8Z05jyCwyBjTQgkDJKc/Xdu3UMUjKgKvKclSsfTOZHBu1YAF4nfECtZvU/yuTe03tMuXr87tJXYGfM/R0arTHgLIk9Sas3RiNY6bn5OqxDLKwmAM5oX0tg1pY7JUhpVMDwCYKAeapgUyd1A/P85N91day1PDlsJak3qzjwvLpTIJBAoaV6PGTmFe7CfeRDWzjWZY5B3jehcVYx3/MNi34JUTDF4fV76WT3F5H3rccshCD8QgYX1y5wqmaGmakpvo0PFVTwxcBgoUeCJqrWb/XxVy7cvxoaSnj19nJLNrM1AOvULJ3KyWsY3VSg75cw4FXKDmuTM5GLXu36pnIFj9LU9dOlVKU/4r6VZ0SsIosdB14haLjAGpqEAcwhvETgGbluJ4RMfAeRkn+cSXjievPSIgzE4OF5XYLdxuXrpIaKMlXX9MpJ+NmZKgBaDyxmBk/Dq5dGN1djG0rZrJtgOUQ7+UP/QydtezyyUD6OSjmQO0umFkH7W04iKZw3ibP4HJ+d4hfzSA+yGPRBwMti3ktJ33Qn32NyDLOM9NJOl/HE4M2dJCXOUl5v9c5sG59lsiFVdQs911KvPDuBtoWphMZCYW1tRSe302qEyK93vua2unsmTncbEkIXz71MA45qoidGMf4H9+rH2v/4gqHHFX+e4hbzHJtQteXXgAy2FLU3yxm0Toeb93KKa+HxyzazJZFyr/9Tada4NCeK99uAW3y1pl5PMfC3VedHB2/ji1FvgHm7kWb2TIl8N6IR4aBi6rSdubaLXQdKKVunJ3pWkZy9Tp1x7ZSlL+PufbNbCmaQ13pVtZvVZazYpqrWb/3OOzdx9xsO1OTzExNi4F7oKvd5fO8o2Lysv5swsuFd8F7s1fj9zHnd5O6QpmcWVjMAdqAmyDD0EUyT1sW8+ZWz8SNS2iaef4eM9iexgDPPYQlubU7l5E0GWpqM3C7IwE3F96dSd39xTQcgWXzDrObZ1kWn040btxHfqfsOeUAbz5Bqkc2spZdtdP9P5EQw+S3gNIf/3sP//r/nub22+/g66+/4o//vSdwD837KMrvUPYTfCZy37X/mEc8H94SIMPQzuz9Mi4nqRvk0+8BrsLlvcdomaFlLuhBpkv9OiZ7Dsa9EZ8MI82uBLDmfRTl71Oe4/gr/Mn4ehZtZvqUataXvqLsZ6TZ2WJXN8fv0YKm8hxn7JvJXKQuTY3+vrciwORl3VqFEhK0PQkrxVXPwpu+k6RHNqJlLU5tOWS6z1nuqGcYukCTvJJhAP2TrGHD2l9bj81tTWT0AMtM2nOvZVdtBsULtwUVbLbp+ynK+x/dDknLa5XlwXkA6RQCF97N44mmXRy4f/A+hRgJfgPG1e5u3t35nzxqzeSQo4qr3d1Bdea9L9DPd1NiRvYcxqGe+fvJMI5qk7EuLUBQMvP4ui7qTsH0JIDjlJRGkW/fzGpeoaTV33jMPnsR3hmG8TmN+xjXTpWyPt8rUzj+AXVz7EzvqmZ9aYuycd51Vhn/WReZcWbo6rhxl9UGnWG4cbsjiQxwhq60Beu8h3A781hrqcXtdMCbDn0CHtplrCNhCBmG2407MsB7o7X10ECbexnWrVa2rVMD7MJJXPjAe+FpG09sjOZAkJveYNxvauBIvQmcfjIMn0dNZ1dtrce+k/vIYdzuNhqCeE4hhipgidYvrlzh3Xf+c0idXQuYYXg1vMfC+PZqusjQz/wVaaxeNNS1fhd/2lpKTPa6/gnfmB34zVKCyDAA7/0OfYxFdjWI9Pdzqrya8XZtGc5F1dbjgJnH56iZR1wGq9OOj36Woa7tD0zLMNQ9gEAZhvIv5Uqcz4qxTm7AsQIl43gGdSN2UsAsZTRs87r6yS8tw1AzpUAZhi91v6G2P5tyH9nAIn8b1B/ksW1eFYU71+IoxzNoq59nUd5x7RLlmRR8UUXhj+s4TIaf4NAvct4mauYB53ezaKZXsFpYzIHkwd4AIb6d4df01j/IhudSkYcxZBatY3zpVtqjDB++O67Mnp5XT7moMgYdY/9cp+6vQe4DeDzOxVF1ovbYE/HH51Ja7/0OF1X5r1ACgJmYOGDCQlarn9doUT+0p2Uw106Vsl67fHeRnbnHA10mHHo+V0kF4jGBBT5DVzKMSUTzMbuJJvnIbrY9s4uahW0caU+ncDm4j+wmL7NB+ZRywih+cM/nKqnAPK5+CpR9+c0wwOPyXe/vrPC8fs54WXPgoG0M1p3sWbENtirLs9vW5QFW0p/ZRGGkmyMbgQTD52aM+0SGfRn3kQ1BZTVCDNWIfNJbCCHErUfuJSWEECIoEjCEEEIERQKGEEKIoEjAEEIIERQJGEIIIYIiAUMIIURQJGAIIYQIigQMIYQQQZGAIYQQIigSMIQQQgRFAoYQQoigSMAQQggRlJsqYFhWbiL/+cVMACCNpQXGr7+F1FzyCzax1LfibGjkVXCpqZFLTScoyR5ORzZKaofbhxBCjKybKGCYMY290WMYouIsJsa/QHXHSHRuo6S2UQ1IoQhKQggxPMOvh6FLY2mBlbie63RHjEGZ+100t5iJiwG4jnPHr3G0ADGLeXplClp8aHaU4Z6ViyUCIIUnC6JwFJ5Tv5tEVsEmpW3Pad757T5aUbIRq14Kz4WjsAwnKFmF1ew7PPV4s2MDe2oCvQYbJbWvkxGlfHW2NJHHir2Pd1D94mxWD1RTY4D2+RWN5CYb+qeCS/YHlQOvNXLpNaD+bSZmnfV8bF4Fl/K2k7W3mgzDGJW2xQBklZzgDWuUPgr9e3mG5zC0F0KIoQh9hhHRRW3hBiUwYIbzGyjacZpuxvCTaWYgjaUrU+B0GUVquzhrBp2/LcPZgxIUtMnf0N87p69DRAr/nAoTbC9jjYFmxwaKCstw9pixPr+YCaSx1GpW+1AfMwRZJeuxnH6BifGJTIzXgoVy3LxXOTbxxb9iydtO1iD9+GufVXKCXN727F/PUjqoflF9zIATeiWrZ6rt4l+g+t6fKZlH9nZ+mfJXnotPZGL825zlHGVZxUAe+7M/U48nUsYq9ucN6W0RQgggpBmGqqeDKwCd1yEG3G1ASwfdQJwpBlIfVKqmpuSSn6I9aBymGP/daf21dnQBYwAzUxPGAC4aagBcnLl4HUtKElMXRhEHdF900gqgPwaoKaMoYGahqDj4V3752utcqphimLRtZKREMcXayCW7eqjj4AC9BGpvIyMFqouHcnYfRYaWdXCOsvg1VOCdSXRQPVAXebOYEvUgbzQ18oZ66OzJIQxBCCFUoQ8YQeo+XcZblcZyq2asoeq7I8gyrt72ruGn2vJPUyMdjhf46WoIbhnKyF97GxlDHpCffrK380trB2XxsynCRkntenXsLtpfW6UHhrOliRRpj5FlKCFECIz+pnfNOZqBsQkW9eonM1Zb2hA6UDKK/qxEzTh6LnDmA6XvuMlKf5bJhr2MoVwxVZzFxNJzREVPASpxXYnCssAW5PgCta+k+jRkrPC3HqQ8xjwpyKfo+IyzANkZWLREI28W4x2+y2k0fEZH8izyg+xaCCECuQFXSR1nz47TdEek8GTBJvILcrGYAFw4TrogIoUnC3KxDNBDa+WvcbSMUS7DLcjFEuHC8dt9tHKcPQ4XxFjJLzBuigcnq+RE/1VJdtQ9ACjKept26+v936vIM7R/nYwodemoVtmrCNS+YvUWqu9dpR837iUUnTzHFLtne7/2VuNkAW80NXIpD5z16vHik57PqfW/dw2/ckSRK1dbCSGG6ba4iQn/uNGDEMOXVXKCX7KFn66u9Pu1EEIMlwSMW0X2dj58bQH9F9Weoyw+q38fQwghhkkChhBCiKDcRJ/0FkIIcTOTgCGEECIoEjCEEEIERQKGEEKIoEjAEEIIERQJGEIIIYIiAUMIIURQJGAIIYQIigQMIYQQQbk5AsZI194WQggxbDdHwLip5bG/qZEPS9TblWdv58Pa/gp63nek1ds09d+9tp+xTneFfstxj36Mj1Hrcvjt26u9Rx+Gu9J6H9dfh7F/w/FA7QP2Y+jDY+we4+y/Q25+RaP/90wIcdMLbQElr1rdepEkrzrbzY4N7CFA7W286nWrdbyxvcyTKWr1PGN9cJ0Z6/O5WCKu090zhrERYKz1PcHv49XH0F8r3K+Oc7RHZ5BFJRXasbwK3kj5K8/Fr6FCreG9P6+Yxxq282Ee/Kr0HG943EZcaWPem8hEYy0jvbSqUk0vv+IEGdlQMamCS7NO8pwjijeivcdzkOdmrukfC8Dq2Yav89jfNAvXXmABaiEor7vW5lVwKfsznovP8uyHAO39Hs9jvx3K4tViTXkVfFhio2I1lOQ9gvPFRL0e+YcLbLC3kqIsrbCT4T2T2k5CfCeEMMNQanWPVetpFzlcjE3J9VxmanFQVLiBPTWBa28r9bpdOArVWuARKWTZ+gNL9+kyigq9g4WnT/+kPD+YmWkzQ2ouT6aMUR+7Qa2lMXDNDU+fcaLtEXINJ8RZsx7k7F5t0q5k9d5zTJmVp1Tt857MQSl2dOVt38lxr4v2qEfIyAbIY3ZyhzLRF2d96yp5WSU/Y7zjPwa8U23+rCiqi/2McxjyZz3ot+hU/qwHab/s7zbrHbgaQjgAIcSICl3AUGt16/W0azyr3wF0d7b4bavU64b+et1mrAWbyFezlbGGgt+Dl1/torMFaFPqiINWee86n36kPNZ5Xgkmk1JdOH67gaKBsgvV2dXvQ7b3EpNBw2d0DNTBpPuJwuxnSaqYx+Lfx/xaI5eaZnEimFuSR6kFlLyXmADII9fawT5DJhClF1bSloZsmO8FFvguSflvH+h4MWWG4kyzOae3LcpKZF+00n72SUMFQHWJ71LT61hObxlC2VshxI12Q/cwAk/+aoah/bfj+KiOy79iTlx5hIxAZVQn3W+oRRFA8iNQrJRQfc4RxeISm7rWP4sT8YlMfPEzFg9WEW/vGn6qlmGdGP827db1Hu29s4uK1bP1sq0TSzvIyNOCXhQZ0UdvY+sAAAfGSURBVCcN/fwr+QO0D+b4Yyeho+0s2l7N7JOJTIx/AVe2MSAV85ja/les9xPwhBA3q9AFDK1Wt5YNqFlE83k/k31NoNrbWr1uM5O0pazUxUMutepNySjGEKnuBSjP56Khxoz1+U3kP79YrS8+sKKdf8WS/QgAFSfPMUXPOGyUZD/I2ZMDLCE1fEZH/fv6GfWU6ChlmWbS/UTVn1Qm+L1r2Fc/hNre2WbGoy5hAf6yC6Os2Ci44qKCSlxXOqjeWdzfj1Yn3G/7II5nb+dDexTOg5XAFMxR5zhRDNpynbJUJYT4Lgvhpvdx9uyI4umVVvILrICy37CnBvC5XPY4exwPkm/tb6tprfw1DtMmrNZN5FtB2aAe5tBqyngn6mWe9OizDCdmrIM91mjvGvataCT3XqA4i7JZjbzR1MgbqBvCxaAsuaxCmR4f5I2mRnJLE3mseA2/WnCCS02rlL7q31Y3v/+D6trX+493HOS5Yrwq6K3iUtPPqH5xNqsxHu+g+sXZejaRX7GK8Y4XPJa0skpO8IY1qr/vmVqd8veVpaHX+vupGKB9oOP5FY3kJvf3oQTEYsocJ5TXro+zGG2jO0NLxerfZmKWlJAV4rtCKu4JIYQISmgvqx01aSwtsBJnOKJfwiuEEGJESIYhhBAiKPJJbyGEEEGRgCGEECIoEjCEEEIERQKGEEKIoEjAEEIIERQJGEIIIYIiAUMIIURQJGAIIYQIigQMIYQQQfnu3RrEq6ofLQ6KdqDcKqRnkMp5QgghvrXvWMBQq/q1ONQaGWasthjgOHsKR7BmhnbnWK/SqMY7uAYqayqEELeKEAYM9YaAPdfpjhijZADaGb/frECd8J/PxRJh7Eetw+31mGbHBva0RfX3obWtdBme+zTvnIziSa9a4c0OtSys4YaFys0KY5Rj+nj8yA5Qo9ujpnce+5vWU5JdKRXkhBC3rNDvYUR0Uetdj7tlH2+p1fPeOX0dYqwsTYUJtp9jiVAm9KJCB816J0omgV6DG+KsuVhanHzaA8RYyS/Y5FkvXFNTplbqU/vrOc1fasxYn1cDgzqGsSk/D64wU4Aa3fmGmt5ZJT9jCkMofCSEEN9BoV+S6ungCkCLUlM7zhQDGLIAvaFWv9tFQw3AcRparMTFoFfrIyWX/BSt/ThMMUoN7jO2l3kyZQxx1k3kT1b2MLxZVirP1XxSyXCyIoAIz4JNkdHDXcpSiyXVv81zjp/xy1gbIMtSQohb06jsYUxQJ/hmxwaKyCXfuGSkBRg/AtW4aK38NUWV6nJWzINYOOfZIDVXyR5aHErFPy2TGGjp6VuYYv8Z1S8m8theJctovyzBQghx6xqBJako7gWPmt73mvoziQlR49SGav3uiCSmxgCkMUmb2LX64AkWtda2GastDWIWs9TmuT/hG3DMWGcpNbsdWnDQl7IexKK2stgWM4E0lhZsIn9l2pBfZtHJc6DX6M4j1wquhiF3I4QQ3xkjkGGYsRZsUmpla2f4uLDGKMe7e67rLVsr/4AzIRfLyk1YuE53D0AHVziOc0cUT69M4ckCdU2qxYEDGOuxTHUd5459tNI/4Uep+yLGcTQ7NrDntw4iC6z9Y+s5zTtBvZ5ANbqzKKto1Gtxny1NlA1vIcQtLYQV99KG+VmItMGvWBJCCHHD3NjPYaR67WdIsBBCiJuW1PQWQggRFLmXlBBCiKBIwBBCCBEUCRhCCCGCIgFDCCFEUCRgCCGECIoEDCGEEEGRgCGEECIoEjCEEEIE5TtWcW9wlpWbsI4NULiJwHfAFUIIMbBbLMMwYxrre7RbLcQ0pMJJIZZf0cilpkb2543+cwshRCiEOMPwLJLU7CjDPSsXC+oZv3rvqO7TZbzVkeFxH6lmhwOshgJLLUphJN+yqqhlXa/T3TOGsRGglHWtxqSXe03hyYIoHDs6PEbX2tEFmImMBsv8TYbAcR3njl/jaMH3/lb0ZyVaXQ+FUkr2iu1lnkyh//F+5Fc0MvvkC1Tf+zpm/02EEOKmF8IMw3C3WrUcq3Jr80GoZVP727pwFG6gaEfLoGVVP/3TBoocLsDMTBs4fluGswfl1uWFZTi9nkqpxXEddxs4d2wwlHIdg+VxtT6G1aw+Xi0nq0nNVQOD9hgz1iDraBRlJfJYcVBNhRDiphW6DCMmirFA90XnkG5t3t3pdVquFUSKsfATv2VVwQ1AF8pDO+ge5LzdWEOj2bFBzwQ8Mwb0ok/6a/joAt0pygMtk5XnUGp3aB1HwY5fUySF9oQQ3wOhCxjRasAIWYcqn1uem7HOGloXvhvdxmzIydTnc/uDANDdEWhT/PqAS09CCHErC92SlE9ZVQO1bGt/edYgBCyrGgIe2VAMkRHqcfU1xE1WlpomTEvSr7BynncBY/jJNDWbiVmMNVXJUvILXr4hG+lCCDGaQrjpfZw9XmVVmx0b2HPShcXqW551cC4cQy6r6sJx0oXF6n/TW9fi5NOeFCwpueSnaKVh1dfgeJB8q7oM1nOdbtSMo6aMd6Je5kmP5a19Qb2SrJITvGGNUr6wN3Ip+yDPzVxDRVCPFkKIm4MUUBrAhCCugBJCiO+LW+6De8NjVi/Z1b6WPQshhNBIhiGEECIot9gnvYUQQowUCRhCCCGCIgFDCCFEUCRgCCGECMr/B6aVHgxIFMezAAAAAElFTkSuQmCC;" vertex="1" parent="1">
                    <mxGeometry x="200" y="40" width="396" height="135" as="geometry"/>
                </mxCell>
                <mxCell id="69" value="" style="shape=image;verticalLabelPosition=bottom;labelBackgroundColor=default;verticalAlign=top;aspect=fixed;imageAspect=0;image=data:image/png,iVBORw0KGgoAAAANSUhEUgAAAVcAAACTCAYAAAA6P1oOAAAa2UlEQVR4nO3db2gbaX4H8O/2lpZt7xraq7ypL2ZjZ33b2vVebVOnMhwtLMh6EVkRve2Lg4WAYoM2HLj2m7GSvku8uhc25opW4D+QsnCU7hVlbENlw96bLVbtw3ZZ16ZZb+ykyrlez+WuYY8Nd3C0L+aZmWekmdHI8cT/vh9YWI/l0eiR9JtnHim/70sXG1//PxAR0aH6raM+ACKi04jFlYgoACyuREQBYHElIgoAiysRUQBe/tPWPzvqYyAiOnVeahz5T34Vi4jokL385MG/H/UxEBGdOlxzJSIKAIsrEVEAWFyJiALA4kpEFAAWVyKiALyQ4nr7VhJPR9/C2563uoQPRpN4OvVdfBB2+n0XPp5K4umtLv3H8Fv4dCqJj79z6IdLRPTcXvr95NThfc81/BY+TV7EqwDw9CFmfnERvRcdbvf0Ia4PfYRv3Urie06/t3mCf7h+D7fCl/B28YH4m2eYWf0SvR1fxyeFaXz7R4f2CIiIDsXLbr/46u98BX/zZsj1D//lEw2//NVvHH4jCt8l8ePDdZy7vWz+9u13v4upS9LNRaH90PMwu/Bx8nU8xAO8c3satwDgO1fx1PNviIiOjmtxPf+138G1v/hj1z/8/Itfo/BfP/dxF1/DB6NJ9J4DgCeYWXW/5dvvfhdTHcDM9A/xTvESPhj9a/T+Yh3nPnqCHxTqMZVM4uNvcKZKRMef65rrZz/7Ev/4kz3H3/3bzv/6LKyGZ5gpPMTnjr97FXemkvj03Uv48P3P8AleQe9bXUD4Ii6fAz7/+ROg+AAf/ugezk0/xKtRfU327brfBfAMD39aw2EQEb0grjNXALj7k//Bt+q/ij//xlfNbZ9/8Wt8/8f/fXhHcO5LfP7wFbzZ0YbbuIcfrL6OqY563P4G8CqeYWbtAW6Xrc32JpPolf7/aVL84GuJgYgoeJ7FFQD+vrCNf3qnFb/3218BANz61x2XtVbDK+jteAV4+oV9W/QigCeVN3+4i29/9AU+TV7E3757Cbfe/yE+hP4NA+AJHhWBW0WxzmrqwsdTbXizbD2XiOi4qPpVrF/+6jcYuPcZ/uOnv8T3f/wIn/3syyp/8Qwzq+VF9Blmpqdx7vo9zJjbuvBXF43L/o/wzw+BVy9dFF/XuoTX/gDAw92yoqr/3cdTbXgTAC624Sm/jkVEx1DVmSugr7/+nbrlf69r93DufWP2+QXeGfrI/NW3/vAV/X++U483AXyy/wAAcOu2NDsV662fFO2zUnN5QLr8v30rie9Fk3j6J5zFEtHx4au4+lb8CN8sOv9K/yaAXlg/X32ID38E9Ibb8AhX8XTq645/82o0iafRZ3jws1dw6Y+gF9Xr9jVVvSjrs9lP332Cb77/4FAfEhHRQRzuPyIgIiIA7C1ARBQIFlciogCwuBIRBYDFlYgoACyuREQBePnrl/7yqI+BiOjUeeli4+v8KhYR0SHjsgARUQBYXImIAsDiSkQUABZXIqIAsLgSEQXgFBTXGHJLKtJHfRhERJKAiquCuaUs4saPiSyWl7KIJ7JY3t7CjvxfLdvlfZp3dR3RvSJG5Ptyu63joar6vlXF1yNLq9bxzJl/EkNuydi+iFyi2nYiOu1e7Mw1fwNdTc1oHFqApi1goKkZjZdvQHXbDgDGz03NmNyL4GYuZttlOhxC4W5G/yGRxbIC3JnY9Hc8ioqdcBED85q/2yeyuIppNDY1o3FiE60JvYCn1TF0rg6K7Rqiivd2Ijr9TvayQCKLq+fXUMiLn/M30GUUZT8ycTTGM/7vL38DXcbt7z+GXpIVdLdt4l5qFkAMuUQLELqAVtftRHQWBFdcQxGMG5fzoxGEDmE/fZhGV2rW/FU80o79fA3F9BClr0Xs962o2NkeQ0N+EAUthIZEle1EdKoFV1yly/nGoQX4vPD23o9tlqmgr0fDYg0Tz8OSVrdwdXcQV8z7bkFf4jEGmprFNg2lvNd2IjrtTu6ygBJG3fyU9UFWVeLDJb8fdHns4+ruoDSDzmBxHdgwZrHKdUTxGBuu24noLDihxTWGXCKElYXZsu0K5ra3sNPfYi4nzHl9CUB8s2C8JwS0Jat/oq9cRzQEhHrGbN8YGIlPA/1iCaQfmBTrvm7biej0O5ldsRJZLF8rWR8uEREdMyezuBIRHXMndFmAiOh4Y3ElIgoAiysRUQBYXImIAsDiSkQUABZXIqIAsLgSEQWAxZWIKAAsrkREATj+xdVIMTgu+znB4rlF0ROhPBbnMJrawGOMRc8Hn2kPVSkqlsuaphuJEp69JAIXQ27piBInFPVQxjetuo+hlcLBVA0/Xg5u1zHklsYQNRq5rk/X1pj6CKXVLfS12bdtTDRLLQZPJjXVDRUK5rbDZb+ZRepyeROcw5TBlabDGjzRtCdTdryZOBpP+PNzrCWyuHp+AQNNfpoPKZjbTpqN4U/De+cgApu5ptUxRPdEJIrci9WWi2XMoPSQwZw5s9LPjGlVNNqWGmabZ1Uj+0qeESWyWFazVm7VkhG34rEfByNxESuzrr8wGkU/1rS6ZZsxGWf5tLqIXE6tLUMrkcWyzxmANeP0GrNq291Ix1gx8xEzzor9b1WMvfsYW/son23KeWTm7xQVy7msdb/lx5SIonNvBqm819hUHqf1fMuPyRh/59efNQyq4zg656kBiJS/FpzHTD8Wl/uVX9/S1YD8ePUxE/vubxGd3XzMLG2zXDHbvq2/L/vagNb+yvvFGxcQ2iv56uqWVpPAhNXLuS58pJcTRyawgMLutk1MVsxUY8gp7VgZ0gd+YD6EPvNJbkG0fkZsBzojMb3IyblaZtNpBXOiCXVjUzMmkbRe3G0RNOSb0dg0iALaEU3AYz+1Gbm7AHRExQtOQff5BUxmACCEaIc4HikrK54bFsfSjMahNXQeMENLTXWbJ6mB+RCumkVKHjO3sZS3O5lF6rKeCWYXQ25JepM0xUXvXHH7JjHG53uR8xzjDK40NVfmlCkq+ow8sqZp7PcMmwUh1NOO0pC+faMtbCtq6WsR7BetJ88am0EUpLuI54at/DLp+ba98W25ZpWvPy/x3KJ0/PLrKYRofbFsP85jBnG/nXiv7PYK5vqBSWNiYrSqTGRxUxxjY9MgVjqGkUtIz9+6cTzd5snHtxU9x06eUOj3K7XxNIp3leWHjV0NraKgxiPtwO7Z7GIcTHFNNKBOc2gMnYiiE1bmlZqawcb5BvHi1sygQfWRhlC9R9qUEkarHP8iX8JrRsGbRWkvhIY3DukxAUC+gBWIHCwljLrVgnkmN5tiZ4rYCF1AK2KIdoSsWUB51E3+Brr8vgmk2f54j7wXacwW1qA5jaVtew0SUXTCGEs7a/YkLfvUKB1uwYZZJDOYnIf1XK0bM9MNlGzROPIJzZu6sAb0jJUVAv2kb6ZXZKZQMJ5Pr9dfJi6dXAAghmgHrGBMG+f9uI+ZkbOmnyj0JuwZLK63oK9sBhqPtCNkzk6rj719Vn/QtVL95Ggr3lWW99RUNwZ2e7GzvYWbeM8WzXSWBJihFXAY37q05HDAmSjgcmnqahaF1RC6FSAdhvmmqGCeWDQUhqxjbDxQs+wYckoE+xPGzNUjMMftss3n5ZwviSxu9mhiVmWfLQYtnuu1ndA8GYnCxbDP5zZABxgzfWnqPUCxL3do84PS69775Cxf8Rx4RuvJaYlFf0/dFLPxe/XlJ7izI5jimi9gRWuRLl+N7SXsh/RLdUB/s7RWe+PnS9gvL9T3H0Mru1ysfkwO+4G1vtrY1OzrDKsurKEurKIbRceIGesx6TNn18vLGtZcAQ2l+wDEbNhJ+lrE8fLLbXtV+QJWEEGf0/vCOHkkouiUD8dljJ3Il456HhrEY3QTQ7RDcz+hucnE0TixKWaQGyhpLeg279Zn9I6ils36ZlFYBaLXaigabmPmaRapy1awpfpIQ8hclipz/3HFFYrrzFW6bTw3bJsBb+xqqHvN74lIzGpthTuGhvOamRIycnfhYFdOp0BAM9dZpC5PY1+KQ9HPXhlcGVpD56i4xO1Yw0DVbxAYl0jSBwf5G7gzHzK3+bvccdjPQeQLWDnfAhTtx21c/suPaSTuNAa1Em/k0S3sbA8Dq/LaaEhsL0/Gdd6uz9KTaIUYB1UBHNbU9LGZRSqzgDpjWcOYPYmiO769hR0FWFmXj9VhjKUoHT0eR3+u1FQ3JmFc4iaBiSqzKuU6onvOJzQntsLSD7H+r78ua47euf8YGuxLTGrqPRTOJ8378Hw9eY6ZE3lGOIbO1ff0scnEMbknpSrLH7LJ9yGNsePMVbrteP2abSZtLqeUf6Dl2yxSec18/e2MRo4sofmoMYmgZgrmlhpsb8q0uoXu4ov+ukkMuaVhIFNelNy2n2xpdRENd70ek/4Vs0Xb2uhhUTC33YvS0OkaUwpWgN9zPW2M7+1qKAx1n8kz8VEaiXc7bLV/l3pjovnwC6uiYqe/BRsTzSysVBPOXImIAnD8//krEdEJxOJKRBQAFlciogCwuBIRBYDFlYgoACyuREQBYHElIgoAiysRUQCOf3E9pTEvTnEaXhEbRHSyBFhc3bqvnwR6h/iaum4dK8bYO6UfODS7MbYfo5MP0UnHmJcaVcZslMe8uEWKiMdVLU7jNWt8bMfoEjVSyWjcMl3WSs+eAtE4oentEBNZLCvAnYokAiJ6Hox5qYVjzAZgj3nZNPuUypEiA/MatPn3kLrlFqeha+0A7pTtpzazSF126t5k7y+bDrdg/9Gs3lT6QE28icgLY15q4BWzYca8ODQtroXrfiqiRmo3Ehed4bePokUi0dnCmJeaYl5qi9nY2NVsTbTvHGmWkL4O213UZ92lxBFHnxCdcox5qSHmxTNmo4IeS1KR4CnUFqeBGtZc3bSiIWSE880ild/0vjogoufCmBdXLZX794rZcBiDwqp8jPYPrp4/TsOdFeci4l7E2E/KY9YfEsswUsyLWGrh18GInh+bZQemPHYkyBgSIjpuGPMSmAwW17fQt72FPrFFmx9kYSU6IzhzJSIKwPH/569ERCcQiysRUQBYXImIAsDiSkQUABZXIqIAsLgSEQWAxZWIKAAsrkREAThGxTWG3JKfHgFERMdfQP1c5bSB4xEfIicIPF93qVrISQTWfdqOxe/YKKrPBjW1c0pXsO6zMqbH+fb21AU/zV+c92OPB6q2H/vz6rYfP+PmFI1TniThJ67IId5IUaXnWf/9ci5Wcex+217SyRDczFXq+j+5F8G4eFE6FjlFFc2nRRcn+UXs8gYHRPcnP9lciqp34DL7sIrmKYoq/b00c1ZULOey1hvrgPlf8VyvmUQwuW61YFRT3Wabw8m9CG76eEOlw8CkEc1iHq8cjWMV77S6hbmcdYLzfsMq6DPGZmgB6Lmu7yeRxXI/RMvEQRTOG2kPLrdHBleM8R1aQF1/lROY7TmZxn6PnuoQzw2jc3XQTHsoJaT9JLJYdiiUco9do21kWh2z9jOhIapIJ7GK/bhF40iPyUiT2K1oAS+JIbck3a+IN4q/FoKGC3qrzUQU2NMjdYzXgZ5SMeir7SWdHC9kWWDk7oLZf1UuLAPzIb3gZOL6G1jTUBiyXpSecS61uP8YmtRH1o9QTztKQ/obf6PW3rGCmuo2m3hv7Gqut9t/VO0NpaAbRYxkiti39ZOVo3HkyBwpLmZoAfDsQZvBFaPXbL6EfbE1HmkH5qfESeg6oiGI/rPOt6/glEQhSYdbzNSFeK4XrXBIjUhE0RkKoaHm2boeM3QvNQsghlyipUrzdrdoHPs++3o0sU8XiSg6seDYFH1/9TEaIjHEI0Cp6PuB0An2YtZc5TehtGQw3hPy+ivvOBeIRtdV+8FCz4lqmkHDaA3hhOsz4s22gZJ2kDe4rPyNaV069mG6eoqCEgaKGQAZLO7JJwkpGmdhzRYLY8bF1JCRFc/1os4oqACAVv04E48xMFHZXLvi9sZVxmg7VjJ+7lO/7B6vn8HAvN48XE3NWH2AlQvYl89J+Rvockh/CJl9g8tmteKKqCE/iIL8HLrsx0vl2Dh44wJCovm7mXCxlEUnADwqoFR/HX31wMb9xwAblZ96L6a4mplaMeSUCPal0L6qDinOxbrE0yNOXlxDaAVz270oDcl9XGeRuiweUzFcddkhHW4x42L62kLS0kCZaqkOHuK5RYzXz9guS0M9ST3sURRn+ZLY6fb6FUgzGpveA5Tq65yt/b361YE4QeozeOlS/PIUStBQ8iiC8pWQ/fK/BX3iqkd/zXjvx5uPWStgyz0zQzEBXKgPAZhFYTeEut0CwyDPiBdQXPWCilXjRaWhdF/fHu2QZ64OgYJV4lx8r7nazKK0J+1fvBniuWFb4KA78SGHn/tNZLG83YvSUG2zpPL76z5vrV+7Xeanr0UAz/VAd2lVnz3KVwHqwho0M+xRv7Q2li+cbl+rkeKmdHWgoK8H4nUhH9cYontF66TksuZqiL8WEieYDBbXpdm7ch1RSMsUVfZTsV8/s1ZAjzeC0xq6/ppXU91cUz1DgmuWLS7nx6F/4GC8qAqrwxgf3cLOqIbC/KbtT0aKm9jp38JOP/QZa/wG7kQWMW42nNZQOEihUlQ9xsSwPo3GDAAUsKKMYXx7C1hfQEFr97GzDBbXk2gVRdlrFpK+FkEI0D+kGwWATUw2xQFVWuLQFjBw2aNIKWHUrU5Z95MvYEUZRjRRAIwYl1HxmA7yxk1kcbUNAJLY2U7qhzQ/iK6UNfbmc5jxuP1CFMuj+uMF9NjwK17PUyaOSRFHY9w+ldf3b+5nfbpqAY/nFq3lJWksR+LTIr4G0Mfde5kiLT0nraNb2Lkm7juRxc0eDfea/IztLFKXWzG3PYad7THzmBz5eP3QycZm2QdgXBI/z8zt+RmfcD/PrJiIgsKYl5oomNtOorXabJOIzjzOXImIAnCM/vkrEdHpweJKRBQAFlciogCwuBIRBYDFlYgoACyuREQBYHElIgoAiysRUQDOSHGVusNXNFypoRHLIUqrLp25RNu+F9e1C/q/5z8GaRFEp0lAxdWeh3Ww7lUHl1bL41NEi7+JTYdbixZ3R9onQCLa9h28tWLwao2FITqLgp+5Kir6IHc3cs6VctyeyGJZzXrMOh3vEN2YxuSen+QB6z7lIlE+q5R/di0sftvYiWbhfW0we7SaJwKzOEn7SWSxrKpidi3GwjxxuIylLcPM2F4WACkibtLqFnZGIwhJTcm9Z821xsIQnU0BF1cR0yLNCtOqaJDc1IzGCZjRJG7b0RbRGzb7fcOKrv0jRc29qbRJn7WWN+0eKW6iNWzckR4Zsija7d0UsSqNTYNY6RiuPTAwfwNdTc2YXNfb7OlNoUU7PDPupuxv2kIoDU1joy2Chvw0NkRkifOYxZBT2rEy1OwY/1LObOosZZ55z5prjYUhOpsCLK4hREd7UbLFfSjobpNCCM0eq27bAZgNm2dRWNWqvmHTYeiFsCJvqgaZopWbpYTRuq43bI5H2hFqS4oZ4Zi9ufYBokN809ZQyEMaC8B1zBJRdELcHoCamsGGFP/im3yJ7zKjrTUWhugsCbDloIbCxBo6lSziebnA6g2j7V3dFeftiWzFXo1u+LYmyWZTZQXdbS1olZprRxOAWnPBy2BxfQvdit7dfqNoTeXkxt9Hz9+YHUgmLhqKO7N62pbFwkw063+nqLh5wGQEotMg2GWB+zfQlb9gxmrrYX8t6K64SnXbLrNHgdiyk4xlByWMOilmeWAePpYGnI3cXQBeUxCtXzNni+ojDSG32XCN0SEbu9Vn4VX24Dxm+RL2paTbeK4XrXslqLYYHQVz8tVBvoT98nRUj5lrrbEwRGdR8B9oZeKYRFJ8CDOLVGYBdf1bZR8KuW2HGRezs50EJrwvu9PhEFYWrDe0urAm8qbEBz/9LYC4rJ9TYH7wM94TEgmiUnHMF1DqSKJTDpTLxDG5Z33wY/9ArjbqwhpgpJaKD6j0D8vGEA2Jy33Pr0e5jVkGV4bW0CmWC8Y71sw175HipvgQrRclW8ROBovrLeiTi6gZNlgWDmnEvJjLI+J+8zdwZ7VdjM0YOlcHj/U3HoiCdrybZSeyWFaAOz6joYmIjosz8o8IiIherOM9cyUiOqE4cyUiCgCLKxFRAFhciYgCwOJKRBQAFlciogCwuBIRBYDFlYgoACyuREQBODvF1TXK5MXHvMRzi/ZG20fKKwInVtacm4j8CrDlYAy5Jann6fr08YlSscngStNxPK4XZRapy7N6F6ywy++IqGaBzVzT6hiie9OVbQFdI0hU5MwIFdGdqjzmRZ5BueY1VUafuEeZOMe8wPib8t8pKpZzWWv/8v3W2HLQoHfCksdhyz4GLo+pcsyqd+iSI2qq3955Rls+67b9zAwtIlNAxVWPRpmsmKl6RZC0ICoiVGx9WOWYFxh9SkV8jCjckzDiX2LILSUBIz5FNJJ2jzJxjnkxc7+amtHYNI39HivOJdTTLqJVpq20ggMPk6q3BBTHGc8Ni8fajMYh0WgcHhE4tjHzjnMB7D1wB+ZDuOq5NOEc6mi1cQSAGKIdEG0e3Z4TorMpmOKaaECd9hgVfeg9I0g0FO7qxVh9pFkRIVLMi9nsWQmjVZqF9rXJ+5ejUA4mHW6R0gcymJyHaDINYH1G9JTdQEkLocHs/1pbzEuoZ0yPQzHbKcYQ7QhZoYWjEegrKh4ROPKYLaxBqxbnIl01mCkOtcoXsGKc5OTn0+05ITqjgvtAq7yz/WFbn65s5HyCaOub0CrGSENhSGpQbRbeTZGqWrbEUm6vpN/ebelFiWB/wpi5lqcg+jWLwqq4snjjArAqNRM/4c8J0WEKprjmC1jRWiovO10jSGp0/zE0p0vyfAEriKDP6XLUKcrExcauZkt/leNlXNW65ro7ha4JoM9cR9Zn5pWxNH4icID0tQhgZFaJhFl5aUSnicehz5IPSk3NYL++FekwcM/IE3N7TojOqIBmrrNIXZ7GvhFjYn7A4R5BUpP8DdyZD5mxJNaHP+XRJ/KHNg5RJi4xL2qqW4+m8Rkvc2CZOAZW2zEujnMk7jRmHhE4sJYL+jBdJThRn3Hqtx8GVo21VJcIHNftYiyRRB+KVuF2fU6IziY2yz6xYsgtDQOZgAo/ET2Xs/OPCIiIXiDOXImIAsCZKxFRAFhciYgCwOJKRBQAFlciogD8P2LE5GcHv/mVAAAAAElFTkSuQmCC;" vertex="1" parent="1">
                    <mxGeometry x="620" y="28" width="343" height="147" as="geometry"/>
                </mxCell>
                <mxCell id="70" value="" style="shape=image;verticalLabelPosition=bottom;labelBackgroundColor=default;verticalAlign=top;aspect=fixed;imageAspect=0;image=data:image/png,iVBORw0KGgoAAAANSUhEUgAAArYAAACuCAYAAADDGU4zAAAgAElEQVR4nOy9fXBUx5nw+8PX3DgkJoGRJTwGgW2QLNuSnYyc0S6Qd8YBBoklsfFuqNWoZLiplSEuDbWVzUrIBQgoC+nu5r7lUSV22MpFVknslXPtOHEYMQZbkwXyamzJIchYHiBeEGaMZA0Y48V2uBvuH+djznxJM9Lo08+voErTp0+fPs95Tp+nn366e8bixYtvIIyKzMxMBgYGJroaXxhE3uNPumX+tw/cwV9u3OA//jTI4H/9OW3lThdEx8cPkfX4IvIeX76I8r5poisgCIIgCIIgCOlADFtBEARBEARhWjCj+G8ekVAEQRAEQRAEYcpzs/bHjRs3uHHjBoP9FyayPoIgCIIgCIIwIm4e+OA8AJm3z+cvf/nLBFdHEARBEARBEEbGzaB5a+GGBCVMei5evMgHH3ww6TohN910E7fffjvz5s2b6KoIgiAIgvAFRZ88poUiCJObyWjUAvzlL3/hgw8+mOhqCIIgCILwBSZqVQQxbCc7k9Go1ZjMdRMEQRAEYfojy30JgiAIgiAI0wIxbAVBEARBEIRpgRi2giAIgiAIwrRADNtR4nA4WL9+/bD5MjIyWL9+PbNmzQJg3bp1WCwWKioqWLJkyVhXUxhD1q1bJ89QEARBECYBNw+fZeJYt24dPT09XLhwgfXr12MymSKOh0Ih2trauHbtGkuWLCE/P5+XXnop4tzTp0+PWf0sFgv5+fkA/NM//ZOe3tHRQXd3t57Hbrfrx374wx8SCoW4cOECH3/8MS0tLaxbtw4gbXXt6uoiOztb/338+HEefPDBmHzHjx/ns88+47e//S233347d955Jxs2bODVV1/l2LFj7Ny5My31SQaLxUJGRgZer3fYfIsXL6atrW3M6mLUHe3vy5cvs27dOjo6OoZ8Tg6HQ9cJiNRRrXNz5coVZs6cGaPPPT09ce/f4XAADCubkZKRkcHatWt55ZVXGBwcjEj/zne+wyuvvMK1a9eSKsvhcDA4OKjrvyAIgiCMJ5PasNW4du0a+/btGzLPp59+SkZGBk8++eSYGj0aDoeDxYsX09TUpBsDmgFi/Kh3d3fT3d0dYyTYbDZAubeWlpa01q2wsBCAHTt2sHTpUlatWgVARUUFf/M3f8N3v/tdPe9vfvObiHN37NjBgw8+yIMPPsiTTz4JwOeff86CBQvSUrdZs2bpnZRQKEQgEOCv//qv9eOaUXj+/Hna2tpiOgYaxo7Ep59+yk9/+tO01E/zvJ4+fZqMjAxmzpzJhQsX9Odk7IQYjdi77rqLTz/9lLa2Nt0A1Z75XXfdxXe+8x0APB4PFy5ciDEkNcMeYo3jaNkAXL9+nWeeeSYt9zw4OMgrr7wS17iNJvp5GDtxY8369et1Pbx+/ToejyflzmB0B9hY9kcffTRmnQdBEARhfEjZsL311luxWCz4fL6YYzabje7ubq5evTrqimmGy1133aUbOYnQvHh79+7F4XBgsVj485//zOXLl0ddj6Gud/PNN7Nhw4aY4/n5+Xz66af85je/YcWKFRGeuR/+8If635oBCopnbzjjPVkqKirYtm0bvb29rFq1ipUrV/LTn/6Ur3/96wAMDAzw+eefs3v37ojz7r77bpYuXcovf/lLvvvd7/Laa6/Fvb/Rcu3aNY4cOYLFYgFiPZWa8aGRyJM5FsyePZu77rorwnA2PjOA733ve7on1uv1Djs68N577/H222/rRnEyjKfBCIpxm6z+ac9D69zF63gUFBSkTZ+1zlAwGByzTut4dIYFQRCEsWdEHtuKigpycnLYu3evnrZ27Vr+/u//nieeeCItFfvZz37GunXr8Pv9zJ49O8LQMNLR0UFvby8FBQW6t/batWusXbs2LfWIR3d3N+fOnUs4TDtr1izWrl3Lp59+qn/c169fz5kzZ3RjZSyHbP/pn/6JL33pSzz44IMMDAzwy1/+krNnz/LjH/+YP/7xj0DYU2v03hpDD5588kleffVVzp8/z+7duyOedbqZOXMmGzduxGQycf36db2O8RjrkBPNww7ohne8Z5SRkcHGjRv58pe/DCgdsOvXr/OnP/2Je+65R88XCoV44IEHWLp0qZ7v4sWLzJw5M6bT0NPTE/Hb6KE0MlJvZSI0D3E8DzqEDfvr168TCAQiNnI5c+ZMhFE4Fnqdl5fHtWvX4nZujCMAENkJMnq+tY6IEYvFwrJly/B4PNxxxx1cuHCB06dPR3ilx7NTJQiCIIyelA3bq1ev8sQTT/CTn/yE22+/nZ07d1JbW0tOTg5PPPFEWry1oHzMTCYTq1atorOzk3/9138FEn849+3bp3trjxw5kpY6pEKiehk/rgsWLMBut/Ppp59y8uRJMjIyEsY3joacnBw97ODSpUt6emZmJq+++ir/8i//oqc98MAD/OIXv4iIyTXi8XjG1KjVuHbtGq+88grf/va3Y47NnDmTsrIy/H4/Fy5c4Jvf/KY+bK+FCowFixcv1p+ZEc3Y0cIfjPHBFouF69evxxhDWrzucDG6Rtra2pg1axazZs1icHCQJUuWUFJSwtGjR9MaO+71eunu7uY73/kOx48f5/e//z0QP8ZWM/o0nf7973/P+vXree2119Kmv9EsXryYM2fOxD22du1agsEg+/btIyMjQ5/IN3v2bMxmMz/72c+4du0a69evZ/ny5bz33nuA0kHKy8vj3/7t37h27Rp33HGHnr5w4UK9vdHKG8tYfUEQBCF9jMhje/XqVSoqKqitreU3v/kNb731FqWlpWmt2OLFiwmFQnz00UcsXLiQjIwM/cP5pS99STd0Ll++zPr163XPGYRjEaM9YtrHajzxer185Stf4dSpU9x33326AaB5Hi0WC8FgcMyMgrlz5/Kf//mfQ87av3TpElu3buXQoUMR6Tt27ODOO+8ck3qlwvXr1/nwww+56667OH36NNevX2fOnDnMnj2bjz76KOmJTamwZMkSZs6cybvvvstvf/tbPV3rwGh58vPzOXfuXMJyjLGzX/7yl1m2bBmzZ89m2bJlzJw5MyKvFqNrZO7cuZSUlDB79mxCoZBuiE0kxlCEzz//nLfeeov7778/bnjSWJKRkcGsWbN47bXXACWc4ty5c8yePZvFixdz4sQJXVZvvfWW3i5kZGRgt9t56aWXYmR51113xYSiDPV8BUEQhMnFqCePzZgxI2JoMl2cPHmSnJwcAoEAly9fZu3atfokrM8//1w3dIyeM40lS5ZgtVrjfrjGmyVLlrBgwQLuuusuQDG2Q6EQhw4d4vbbb+fatWtjGt/33e9+l5UrV7J06dKIGNtETMSKCEOhdWg+/vhjrFYrs2bN4r/+67+YPXs2CxcujBm+Txf5+fl6GIzFYqG7uxuLxcLXv/71uEPT+fn53HPPPfzpT3/i+vXrEfX/9NNPufvuu/n444/58MMPIzyFiTz98WJXTSaTHhaQzglzo+X06dPk5+eP2ZJnH330kd45SBczZ85kzpw5cTuUEn4gCIIwdRmRYXvrrbeyY8cOPvnkE9auXUttbS379+9PayjC22+/TU5ODkBcr2Z3dzdr166N8OSCYkiuWrWKK1eu8A//8A9pjUU0Mjg4qBuks2bNwmw2k5+fT0FBAW1tbfqxwcFBnnnmGT3uVvMuAVy5cgW/368fG+sJLH/7t3/L3LlzEx5fuXIlixYtYu7cubz88st6elNTU1onkc2aNYtHHnmEUCgUkbZhwwauX78eET7xla98hffee48LFy5w/fp1Zs2ahdfrJSMjg9tvv31Mnq3FYmHmzJl62evXr8dut8fEac6ePZvbb7+dS5cu6caQFi6geQe1uNQTJ06wcOFCvaNmjM8FIsr/yle+wltvvZUwdlWbwT8WxNPTaPLz8/X76+joANBjnrUOXDrR7tnYAbDZbPpqFRaLRdeJhQsX8t5773HmzBkKCgro7e3l2rVrfPOb39RlNjg4SE9PD3a7ncuXL0e0H4ODgxQVFdHd3T1moyiCIAjC2DGiVRF+/vOf4/P59NjL2tpaSktL+fnPf55W4xbQY+VeeeWViPTBwUGCwSALFy5kcHBQXyMUlNjEwcFBfWLJqlWr9LR043A4uOeee3QDesmSJfzDP/wDFy9epK2tLWbppg0bNvDxxx8DimG7bNky3nzzzQgvX7o5dOgQP/7xj7n77rv593//d37729/y2muv6c9v1apV7NixgyeffJJf/vKXuudN89pGLwk2WqJXRbh+/XrEDPolS5Ywd+5clixZwqxZs3QDxmjoWSwWPvjgg7TWS7u2xWLRDTWLxcKCBQv4+OOPMZlM5OXl6cbVwoULOXfuHIWFhbrn+PTp0wmX4Vq4cCGg6K7mbY322BrvORFj1QHKyMjA6XTi8Xj0dyoexlCE8UDrRGodDK0Op0+f1kORjIa21iFZvHix7uE+f/683vGA8JrRTqeTo0eP6tfSRoW0jpwWHiJGriAIwtRghsViuXHjxg1umzef//7v/4/Lg/1DnjDccl+nTp0iGAympXLGGe/apJXoGeHxDNpolixZgt1uT9skKM0rN3PmzCEX1TebzfoqDZonrLu7m4cfflj/AGuGb7LLOyWTR9ugwePx0Nrayk9/+lN+//vfR3hdm5qaWLRoEXfffTdf+tKXOH78OKtWrYo7mayvry9iabKh0IzVZDFOvDLOcNcMRc3Aireuq0Y613Rdt24d586do6ioiC9/+csxS81pKxUEg0E+/vhjXn/9de644w5dH+Kh6Yimz9/85jcTrgv8wQcf8O6770asnpGfn5/2lRCiiRe+k+wGDcbnNtb1FARBEIShSNmwFSaWyb6jU6qGrSAIgiAIQrq4aaIrIAiCIAiCIAjpQAxbQRAEQRAEYVoghq0gCIIgCIIwLRDDVhAEQRAEQZgW3Jx5+wJu3LgxJpssCIIgCIIgCMJ4cdPZPwU4996pia6HkCQ33TR5neyTuW6CIAiCIEx/Rr2lrjC+3PJ3z3DtzhUTXY34fPYR19/YxszPL090TQRBEARB+AIiLrYpxi23fHn4TBOEeGwFQRAEQZhIZuTl5d0AyL5zCX/57//m0uDFia6TIAiCIAiCIKSMHoowY8YMZtx0E6FLH3HjLzdgxkRWSxAEQRAEQRBSw2DYKsYtzFD+iWErCIIgCIIgTCF0w/bGDbjpprA1e+OGZugKgiAIgiAIwuRHn+0zY8YMbtxAX89WjFpBEARBEARhKhGx3NeMGTPEoBUEQRAEQRCmJLI+kyAIgiAIgjAtEMNWEARBEARBmBaIYSsIgjDtWMBjVVU8tmgpjz26IIX8Y14xQRCEMeV/u+2222oBvj43A4DBDwfG9ILLK3az+bGHyfmsg67zoysr+9Eqnszr48i7H6encij1K8s+w7m8zVR/7zZOH3uXKwlzL+Cxqh9jo4MvF+9ms+XPvNY9yptaWsGe4luGLWd5xW7W3DJ6GSZGubfyNd/i6386Ru9HY3WdUZCkrITRsJTNdRU8dncadHtSMAX0eigWPULNP38bXruFNXUVPJSwHf0a9973v/Pma4cI5m2m1HRMzWe4/9n3UV7+CCvu/jOvdV9R80e2d/HbwykuQ0EQpjU3D58lloWL7uQGN+Ie6zt7NvGJix5h+Zxunq15mb6RXHgc6Ru4DLd9qNcz+9EqNj/0VQCuvrmXul9Ffk3OffgJVyf9XaXA0mIKLx9ka8Oxia5JSiyv2E2JwevUd2Abz07oLSzgsaoKCr/2CV17G3hxiNdjIomQ25Vunm3Q3tFjPFsz3gJMJLOlbK5bTTYA5/HU7OVIymWf58WGbby4tII9q5by4t6ppd9h+hi48glc0H4vYPlSC/evsajyUSiss6h/7WbPfQfZuveYcv8s4LFHs9las5flFbvZU2fIf+UT+k7t51lDGxfZHk4XGQqCMB1J2bDNmjcP5+MbEx5vfX4f587+Z+ICLn8YY/4ZP6q6IbLoEWoqLNwKRH7EjB83uPqm+sfSCvasUYfczioNeET5RKalxNIKNucEVIN8KZvrSnnsD+k0UrQPufrz7En9uvo9oX7kMchl0W72rEE3RDAY3zEf/qUV7FlDSsbA1Q+jn1Qcw2LRI9SshxbVEFpesZv7T27j2WNL2Vx3HwNvzqHwoa+G6382UXqCzsPSCmoyB7j8kPrBPnuQrXv7DPJawJ661Xo5A0TrUAXLj+3lSDxZno2+J+Mx4zOJMrCSluUCHqsqhbaD9FUsS1LqcVj0CDWrIDDHotRH1+9ovQnreLSBr8kznoyzH61S3o8YAzYsG2NnLjtCz4zHhpDZokeoqcglMKxxn0hmC3isajUc2MbWY2odKpZyZKTv9IUBrt43slMBlldUcT+QvQi63rxM4UMLdL2LkE8Sz0STW+6p2A5z8pyH+4p5u2Ybz+p1rIC9w7/vR/Zu44hq6L74q2Ow9BEeu5BEPUYpQ0EQhLEgZcP2ykcfMdB/kcysebHHrnxE/8UPUiov/kd1AY+tzyWwd1vY4KlYypG9fTEftzIAlrJ52QDP1uzVjavNS4+NyFOnNPIAe9mqnr/8vgX0HVXKzn50Gdl8Fe4AziqeC4UG6lK/nFJ+hfJR26oacnu0j8WxcB3QvSMvU1fzssGANBT0qwa2/kr5M/vRKsoeXcCREX8oo4k0LJI9J5e9bK1RjKeybyyAswnSsVB221FVDxTj5rFFDbwI3PqQogvPqkbxco6FPUb3nYzsxCSqSlxZHmN5RbQ+7Vd1rpTMo+q9LnqEmvWPkN2Q6kjDeV5saACWsjml8+KwyELmgW1sPaYYQYp+q54zICyzY7x4R0X4ndI6Hr86D4seiS/jgcvwkCLXSCNI8daG3zOFPl3PFvBYhYU3dYN3DGW2yEIu3bQcA1jKmoe+ClduIxtGPk4yZzTnf5VsDvLsm8vYnDOA5805LM9cAIsslOmdYANLEzyTVDn7MnU16t8NDVEHF1BSt5uSK+fpuzzA2x9C5iJAfW/eHrIjlk3mbbGp8drDCEYlQ0EQhPSTsmH72Wef8crLL/GDJ34Yc+z//X/289lnn8U9b3nFbkrmdPNsQ6QB+1AOdLVFtZiLLOQSoEX17PT96ih9VUoDmkk3B2IcS/eR/bUFbNaH3aDvZPhwuHEeDar36qzyMSvLXACkw2hcQOac8xzZG6+sKG/i2ZNx8hiI8HIbvNkQadgNU5/HqiqUMARjnSIMi2Q5rxvWfb/SDP/suOnZj5Zy6yKL6n0F+IQurZizR1UvXx8DV5apH+vEV81eo3qyVa9hPE//0LJcwEM5XyX7Ia0c4Ep3+HDSskwjVzS9P8+bpz7R9S/Se2qQWRyyv5EbX8bH9rL1wiPU1O2mJNrTOlR5jxbDq3tVo2YYmRkNslGw8NEqNj8EXXsPQsV9LGSERtXZl6lre4SauqokvMjx6Tt5DDKX0Xf0Zc5lVimdqrPdBKhgc11mCqMjxg7ySFlAJmqY16JH2PyNbo4MFLP5DuCO++DAMHVZdBt8qDyv7MxMQ4jDEKRBhoIgCOlmRDG2/RcvcsTXwXKbXU874uug/+LFhOcc2btNGbauWErdSIcPF93GnETHzo4i1CAJstcso2vvNp49q3htLw+kyxOaTebXIN6UveUVq5nzZhxPblwW8Nh6C5cPbKMuwpudKuH4uZpH+0YxNJo68WKXuSP1cuLF1SaS5bkPP6FkjTGkQxkajhlKn2RcHlA9sA9dxlPToAwlV5UqBy8McHXN6ogQjT6ICSmI4KwyEqB0AKp4bLh7X/QIa2jn2Yg8Yyyzr1kouU0b3VnK5isDnBtpWZrXtKYhzd5GzYu+lM11uynR4pUTPJMx5dhJqHiExxjgwN44x3PU+pw9yLMfZjLwB00vBhhI5hmOmQwFQRBGzoiX+zryuw4G+hVDdqD/Ikd+1zGCUs7z5ikoXLU0Mvnsh1z+Wi4PqfFo2Y8uI/vyh/QZ0xc9QpnmqbowwNVF9yUchl5esZs9FUsTHB2eIyfPG7yGS1nzEAwM69FQPmzDX7ePgSsLuH+pes6ayKV5NAN6+X2R6ec+/IQ5mdHL+Hyi1kvxnkVWp4I9dRWJh+qH42w3ASysib6dsx9y+WuZLFSvUTLC5YL6Bi5za07kxJdhuTDAVXUoNBliZbmAh3Iu46nZxtaabWzVh83PM3D5q+R+I8EySaOVpUr2o1XsqUt1iaUo/dOMu0UWctVY2+xv5HL5gHpPNWFDMzkZ9zGQeBkQlQU8tgoORBjIw8hskeLZG/FyUme7CVz5hK5XlR6L3iaoh0cky5h4/wU8VrWbPVWPpKaHcTnGszUH6VPfjUTPxHjdmqSW5UrMwMluFj6q1H1g4DxwjLexkHlS0evspUvJ1tqlulJoU+vz6m2U3XZSr9PC2zKTv2icOROCIAgTyc0LFy4c8cktTf83D1n/ijf9/2vEZfT9aj9dVRX68KjibTvGs3tvo6ZiN3tA9aQpH7RnD9zHnordFHIez4HzLM8Ezr5My5tViocESLvn6NhePPftjqjj8GUf4+2zq8keNgbtPC+2dSv3uuYTug50M0f1Jh45eV73Jva92c1VQwxc3x8CUFHBnofQJ4+9eQo2V+ymkE/oejPdnlZjPZXfylCrcp8lqneq6+wCUvgshlFlHA4nSWLWuz7sa8E4eSwe8WV5njdPzTHoDbosj+w9yP11qnxhxCMCxglD2RW7KTSU0/eHAFcfspB5B0OGVgDwNYsum7D+Ge7/SjddmgH7hwBzKgwhAdr7kEDG5+JNBjtLVGhLBXseUsp58xulFC76anjG/TjJ7MW2QNw2QbvnCFlqE/wOQMka8OwdYHlFJkeG1CklzKPwocyRhzhEhQP1HVDDoBI9k3S1UUstZF54mRcvWKipyORIjRJSlHl0G2/fp6yI4DkJR6JXudAnf/bxWMUjvLm3m0wGeDPxlQRBECY1M1avXn0DYMbNtwDQe/Ltsbta1Az66U72o1Vsvu3omIZIjBlxJmZNP6In1SQzySbd11/GQBLD/qm8N9ETC+NONJx2JClLPXsC/V5awZ5lA4blztLD2D4Tw4oGQFxZxLmv7EerlNVetDTVKCdRuEo0X4g2QhCEqcb4GraEvTETv77oWKJOVIpYD3SqMTXWXx0tiZdgGlu0SV9JvQepdggjljYjal3a6UdKskyo11r6SNfHHYZp9Uy+GG2DIAhTk3E3bAVBEARBEARhLBjx5DFBEARBEARBmEyIYSsIgiAIgiBMC8SwFQRBEARBEKYF08ywzaambSs1Rekscw4/esJJwzfg777v5NffvzvN+QVBEARBEIR0MKKdx76ovHf5Ey5zSf9tWfk9tn9DWf/z8h88bDh0ecj8giAIgiAIwtgxaQ1bp7uOjXnK3+88X4OrBaw1W3nari593uthheuo8nfZJg4/ru0VdJXXtUKM6cb8gKvJTymtFG1wj6yC37Cz/a7z7Po/36Kbu2n452/zo5O/5ifBkRUnCIIgCIIgjI5Jadhaa7ayEQ8rVoYNUYrW8aMHAjy18iX8ZFPTtgl32VFcZ9bxwuOwb2UNrWRT0+ZUT1iGe+0AT618Dj+KoewuO4qrJdXaXOYnP29V//41G9S//m6JmXff6KAbsKy8n3v4KmQBwfj5BUEQBEEQhLFlEhq22XznAXj9fx6NSLU+nAt/bMUPQB91r/TxQnY2kAkdHlqjiym7n3vnZvP0oUI96Z03wofdG6yM0Fdr4G4a/rmIe852susP91OZMQe4POxZgiAIgiAIQvqZhIZtaliz5yQ+GBV+kG7uWXk//9HSSlVQ8dr2D4pRKwiCIAiCMFFMwlUR+njtj/Bw6bKIVH/fZeY+UIgVgGxq1mZzsa8vIt1a4+ThueoJZwa4lHc/TuLjavLT2eQacS1/eToIZ99WY2rv5vvfgIH+ERcnCIIgCIIgjJJJ6bH117XyetsmDh8qAbTJY8/xVPZWnj5UB8Cljuf4fgvAc+z7Vp0SctDrYV/vchYCdL7ETzqU/BsBuMrr2/ZQ15mmSv6hg5YlTn79z8raYu8eapWJY4IgCIIgCBPIjNWrV98AmHHzLQD0nnx7QiskCIIgCIIgCCNhEoYiCIIgCIIgCELqiGErCIIgCIIgTAvEsBUEQRAEQRCmBTedO3eOc+fOTXQ9BEEQBEEQBGFUiMdWEARBEARBmBZMesPWWrOVF2qyh85UtI4X2tapa9yOEZXNdPpHt/bt2OKg3uOhvnii6zG9cTR46PRPJzm7aPb76fQ3M1k1WxAEQRCSZdIbtpMDB/XFGfhqrRRtGP1GvOOHg3qPXzHI/f7JYZBN+g4CUFzPAX9Ybs2V4UPeqhKKrCVUt09AfTz1OIzpmixHJU835VYrO3wZOBocw2cXBEEQhEnMmG7QkDVvHjn35MU9durdXvovXkxw5jLch0q4V/11qQMgm5q2TeGdxdTtcp3uOjaql3j6UCGgbegQP7+Gq8lPKa0pGKqDBKONmeJ6DtTaMQGEOthRUo23splOS5daroN6zxZoLKHD5sHFCUI2OzkAvcq1HQ3x05Vzd2FTCsdXqxhTriYP5v5BbLZcRY4tVsppprNM+U2tn85arZxAxLlUNtNZWY+jvRoaPOxUCgcC7LeW40bxSIbTDfWpNFyjN1JuSctSlc0OXwY7s5IUe4JyDswP6jIL+bazpsobWUfjfeOi2e9U5BtxLJ6MXTTXFtBTa40xXsOyCctLv3+Dmp9qsVLeGH3dOOckI7Pieg5UgrslwM7iqPQy2G+14lZ1pbnSrV43dbzvD+KaP7JzBUEQBGGyMKYe24WL7mT5/7DH/b9w0Z0Jzsqmpq0Enq9hxcoanuq4qqb3UbdeSVux8jlez1pOTRG0umpYsa2LS5e6eGqlctzVkjh/+ggbQEVWK0Ul1XiHOcNkM9NltVJkbeVUXqE+9Bsv3dGwBXO7WnbtCfIrNW+dCVt+kB1WK0UtAXIsLmgsp8i6HV8opHiVrcN7lgxSF+kAACAASURBVBXPo5JX99YV1+PKP6GUbW3lFAH2b3Ar91qsXtNqZT/OCC9m0jSWp83jbbIVEKxV6hmybVE80Y3l+j0VtQxiW69I2NXkhBbtXkOEfM9Q3Z5IxgGCIRP5tljvpSKzVk5Fpbs3qGVYWznV26obl66m1WodrRS1QOlIvKrt1ayJo1sOWwH4WhVDudKJzQSm+aPzuJqycofPJAiCIAiTmDH12L7R+b8oePAbZGbNi0gf6L/IieN/SHBWNvPoorUl9oi1ZitP229Vf13l9WGuP1R+9wYrSZlYlc10lmXgqy2JzF9ZSE7vQcpTGJIOaYYIbsrVgGBH3HQH9fkmcmx+Osu0kzv0ck61q4bOmSChYjMOGMKoNmHTvLgE2G9VzzV6m4GQb4iKVxaSY8plp9/PTq0O3eHDScsynfQeVD2qbrp6nRQuhhjPbG/XEAU4sMeVsZfqEi+uJj+d/l0x3umhcDUV0rWhXPtFYZ6JHF32kfVJj8xyFY8zHexogZ2WXIbShCFpLKeosplOf3OEZ1kQBEEQphJjatgCvPLyS/zgiR/GpH322WfxTyjKZF7c9HX8yH6ZfSv30Eo2NW3OoS+cav5ENJZT1Oig3tOMq308P/jGofQwqfvU4pXjoL7STqjFyppG1HAIoD1IqNapG7CnWgzGVwoG3vgTInhG8cyafNsp0sISLMrRQH+I0jLVgA11sKPEi9qliCtjCBuejgYPnU0kFWZR2F1OeURiYEyNRJPNibnFSlGjcn1Xf2DkhWkhNNbJ+owFQRAEYXjGfPJY/8WLHPaGLYcjvo4hYmuBzgEuzs3lO0Woxumt4WOXBjgDUFTIg3Ojz8lkcXRZifKjxDiOagJTYxen8lbHTsY6EySUqXhRHQ1bMIarJo+X4ED84fDhzjHHCCERijGoeS4BqCxUDEN1OF+P1zwTJGQInYhm1LJUSlFm56daTnE9jrxw/HPofcVj6bJoXQAH9vxB9lujQ0aSk7H3/cHk6m7piopvDRAM5VKYIGRjtDLz+k4QCnXQ2gjK5MZc/d5HKsvQaAxjQRAEQZgEjLnHFpSQhK99bQ4AR37XMUzuo7iev5/Du+t4mD72Pd/H97KBzi6Os0mZIHapi9d7I8/x95aw8VAdG9Emjw2VPx24KW8ppFMbatYmj7V30FO5i51+P/R24AsVjKz0Da0U+ncpw+GQlMfU3R2gU/NM6pPH4uGlo2cLO2v9dNaG8PnUfI1dhIzXRJsIVY3b5mGn308pMJSnc0giwh+cdPpXG8pRQgpyMocLrVDJc9Lpd+p1cQMY7v+Ur4NQluFe9bqjP6v4MiZqolmA/aoX0zhJLMfvp1R9Jq4mJzl5qPVBf1bVjXYO1IZDHfRJbilhDK9QwkGcUc9kp1a2blhHy1KZXJbf00pPvpP8nu14s3bh6B9JfQRBEARh8jIjLy/vBsCiuxUPV+/Jtye0QpOT8OoG47rM0zijhCQ8oxs70b/H4/o7sw4mvbpCcqERLpr9hXTpIQHRv6cnScvSkH88n7UgCIIgjAXj4rGd+nipbncq3tn1kznWdHR4fSdw1Ro9tgH2W8fD0FG9kqEOdpSkW7Zuunr9lBo8tiHf9mls1KYqS80jPF7PWhAEQRDGDvHYCoIgCIIgCNMC2XlMEARBEARBmBaIYSsIgiAIgiBMC8SwFQRBEARBEKYFYtimGae7DnfZ8PkEQRAEQRCE9CKrIowDTncdG/PCv5V1dieuPtz2UzaXrOLrn7xK84tPcmECqyIIgiAIgpAupoFhuwz3oRLuBaCPfSufo7VoHS/8I/xk/Uv4UQxL6xs1uM4o6cf7C3k4LzZ/TDpgrdnK0+ruZ5c6nuP7dX1QtokXsge4aC9UrtvrYcX+TF7YXchcgLw6Dj8OXOriqfUvAQZjtmgdL+zehLPlOVrLNnH48Wz1Pq7y+rY91HVqedSyjPcV7161LJXNdJYx/Baut/2Uzd+G33S+Q/n9oxK8IAiCIAjCpOKm69evc/369YmuxwjJpqatBJ6vYcXKGlYYDb1EzC1k3htK/n292VjLhkgvWseP5h3Ryz7+gJOaIjW7PZeL22pYsdLDO3n34+x8ie+vrGFfr2LErlhZwwrVsE5Iy3Nq2TWseP4yD5cuU+7pH3M5vk2rC7zzvHJfTvdy9Zo1rHgeNrqXpS6yD5/kWfHSCoIgCIIwDZnaHtuiQh6ki5+kMqx/qYtWNX+rq0YxhIvip1trcpmbV8jhQyXqyVd5XSun94jiXaWPi5eWs7AI6Ex82XsfV724qmdWMcCNHligd6g1hJdhzbuVe3fX8XC8/I3lFDXGO08QBEEQBOGLwdQ2bMcBPfzAyOLUy4kXV+t0lzCv4zlWqOENh78F0Me5/lvZqBmwvR5W6OdFhR8IgiAIgiAIOlN7VYTOLo5TiDN6FYLOAS7OzVTsz7JNERO3UsHfd5m5DxRiTeGcMxevMi87e/iMKhf7FKPZ+S3tnGVYs7p4SgtRcB1V0/u4eMkQOhFNZTOd/mZcKdRVEARBEARhOjHFPbZ91P3PLl7YrQ3zax7No/h7S9h4qI6Nl7p4vTebeSMpvuU59n2rjqcPFerXG85j6n89ALs3cdhOxOSxeLS+0cdGNUThnY4uLs0DOIq/33hNFK+t62jUvSbwJg9LNaWP/4CFANxL+eOnOde5hP2BFIsRBEEQBEGYZMxYvHjxDYAl9yhT5HtPDhXnKYw5USs6xPwWBEEQBEEQ4jLFPbbTkM4ujrMpwmP7zvM1YtQKgiAIgiAMg3hsBUEQBEEQhGnB1J48JgiCIAiCIAgqYtgKgiAIgiAI0wIxbAVBEARBEIRpgRi2giAIgiAIwrRADNsRswz3oToOu5dNdEUEQRAEQRAEZLmvYXG668I7l6kbLihLbx3FtfJo4hPHhLWseuz/wvLVD+n2/DWvfqilGzddeIdXn/8e3eNcM0EQBEEQhIlmahu2Ret4oRSOZxXy8Fz0Hbogm5q2TUoaxvQoQ5Xw7l3Wmq08bb81Jm0jHlbEGLDLcB8q4V4id/8ylkHEMWN9rvL6tj3UdaqZius5UFtAT20J1e1D3exaVj22Ff7jF5wr+W5U+g+gcwl7AnBH0e8pX1lN96H65OUoCIIgCIIwDZj6oQh5hcx7pYYVK5/j9awS3GUAfdStr2HFSi19OTVFQNkm1VCtYcW2Li5d6uIndX1QtI4fzTui5z/+gJOaIvD3XYa8+3HGXPQorpU1PNVxNSLVX7cnfM1etWzAWuNU61jDim0BHvzHdVhTvtFXePVFo5dW5bbV3M2r/C4AUM3/yL0NZi9IuXRBEARBEISpztT22AJc6qK1BaCP1/54lR9lZwN9Ud7Tq7w+RBHWh3OZm1fI4UMlkflbnmPFmXW8cKiOjdGe1qHKqymB/c+pIQvZfOeBW7nXXsfhx8N11mmvZs2QntrkmFf0e8pzodvzCyj5q9EXKAiCIAiCMMWY+oZtFBf7VA+s/TL7Vu6hlWxq2lSf65kBLj1eohqwiqHqB6xEhhRE0PkS31/5Ekr4wVZqhjNui9bhxIMrIk/yRvGI+OoqVt36C/Y8Xw9UU/rJ+2N0IUEQBEEQhMnL1A9F0FmG0w4Xz6g/Lw1wBqCokAfVWFvrw7lcfF4LUQgbmv6+y8x9oHCY8IA+Ll4arg7Z1JRCa4SB3Me5/lt58OHs+KcU13PA76G+eLiyE/DhQf70yYd0H1diau8o+i4LPz4/wsIEQRAEQRCmLjfPnDlzouswOuYW8vShQgDeeb5GNVa7OM4mJf1SF6/3Kln9rwf40W5DSIDmSW15jn3fqtPLgT72rXyOM/Emg3WiTFrbXYhiL2/isF0p57WHnTycdysPa+Woqyi0ujxYD23isF0tyDCZLRUsK0+zyqz8vbDkNJbgL9hzqJ5X/2M1m0tOsxXgk1dpflEmjgmCIAiC8MVjRl5e3g2ARXfnAtB78u0JrVBKFK3jhX+En+hLcA2N012H9Y0aXC3xfwuCIAiCIAhTl2kXYzsUrW/0sfHxyElcT4lRKwiCIAiCMC2Y2h5bQRAEQRAEQVCZRpPHBEEQBEEQhC8yU9qwPXyobqKrIAiCIAiCIEwSprRhKwgpU9lMZ5NryCyuhnoc2o/ieg40uQAXzR5DulpWc6X2dz31xeBqasZVXE9zQ0ROQRAEQRDGATFsR80y3Ic2xdl2d3S4mvx0+v10+puJNMMc1Hv8dI5m7dthcVDvGcvyx4Dieg74m3HhotnvDxuccTjV7Y6b7iiup9lTjzmrAHtDsyL/WjumPCedfic5Jjs7m1yAA0dDM83zgzC/nma/n84yO7b1LiADR6WdHNsWVX7K82quVJ/pMEb1uJKEkT/WuJr8HGhw4Gjw0BndcRhvUtAhIRVcNMe0Y5ObSaWXXzAmTvbKez/RbeJQOBo8dPoV+URQXM8Bv2ozTOL6jxdfqFURphqnWqyUN0YlVjqxDbRSVBLfOBMCBEMhODN8TnDgKPbi1bY0thWQYzKRYwLyTIR6W3G3mXHaOiivyqW+IUB1lRdwYM/PJcekTLgM9Xawv60a1vspzQxwauAE7pJqvNE16w8RIpC2O51OeN8fZGdWMCyz4noO1NoxqT+1d8HR4GGnTUkN+bazpko5I7V0B/WeXajJcd6zVHRosuCi2e8kR/0Vc0+qPDHIRhieCL2sbKazLANfbQnV7YpuuXiGNVXeCD2jt5WiDWr7rOlxqIMdEW2C4XkZjrma/JTmEVtOZTOdZbkRaRHXRNNvInQbQ/nEze+NLN+QHlEXwjqVKN1YhvGeIt/lkCq/YfQ1Wvbjgpty63h+VyNlABier/FYgP3WctyAt6oEr3rMhRe9tu3VrGlHeQaWcbyFScqkMWxvueUWMufNi3ts4OJFPvvss7jH3Ic2cbFjDg/bbyVi69qyTRx+XN3ty7ghgnFzBXUDBT/KmrYb1ZdV315XXSf3eH8hD+eBtnFDK2CN2LyhT11HN5uatk08rO509s7zhjVyi+s5UFtAj9oojoZQf5RxFGUE6C9CRHr45UjYCBsbJkL4hqpEcT0H1kNPpl1pRPWGLPJlDTeSHgqBnDzw+Qax2XKHNVY0AyS/Z7QfYweuSnA3RpbhaNjCznw7tGsfnBPsrwXz4g6Yn0sQZTcMk20XnX6lbjo9rexXj5uBwvV+6Layf349AR+4/H5c6ocmPUQ3gvE+ECH9oxuZ35geadTR2zXENR3Ue5zQk4FNecjhchLoFqgfPgx6lSr6u2KNfFcqm9mZf4IdVk3PtlBf7KV6cWrpHbYt5Pdsp0g3cptxNYbrP1pcTR7M/YqOg/bRdlDv2QKNqvwqm+m0dFHUZubAejOhvFxyejvwZdqxYTAKKpvpLCNCvvExfJSL6zlQa7wnB/WVBfT4AuSP6r7CBo3+nhbXc6ASegbs2PIgYTtDgC6tLrr+haKMxBOEbHZFZ3uH0p+R6WXyskxMqHcQs80B7Ya2JEIvlftrrnRTfkaRjbslwM6I0S8Xzf7VBGutlEfpdymtFFnd+j26ALeqKzt8GezMiqpPnI5KdUlk3TotinHoSJCfymY6i4PssJbHGJFxnStx0100l8F+q1WRbWUzBxoceKtQdE97lyubOWBzQPtQ+poGKps5MD+o69Pw+hpuL6NlNHzn2Ni+ksK3PtKQVt6BALp+t1gp0r6PTS7c+vsQIBgqjFuioDBpQhEesv4VZY//H3H/P2T9qyHOzOZBWlmxsoanOlC3rl2Ge+0AT61Uts/dRwnuMpT03bkc36Zuq6tt7FC2iY141K12PVy0O6kpUoufW8i8N9RyerOxlin5n34goJbv4R01q7XGyYN/fE4tZ7w2fnDoDUeR1cr+XjjVUo47Kn2HL4PSJhcU1+PKP8EOq5Ui63Z8mU5lyLW4ngNqw1Rk3Y4vlMSl8+yY29X8FGAvBuVlVa5ZZG0lZHOqQ5AmcjjIDh/Y8oPs94UwzXco9ck6qObfTk/+lpGFQLRXs8Zajhsv1SWRDYqjYQuFapPtmA+m+S7d21IU4UUpoNAG+WW7sGWZMWdFX8RAlhlzlh1HfgE2mx36O2C+A3dVNd7F0FNrVRtAL9UlykfAW1UyYgPd1aQ2dFYrO3whQr5nqG6PTC9qGcRWqQzdJU5XOgpKejLe41xs6vPZ4YN8m4NondN1awS4N6hyaiwPe6JsBaDeX4QMLLmcUjshjobV5GDCvDj19AiK7eSbMjAXM6QOpYYJW35QecdaAuRYhpFNXgbB2lZO5dkxt7dyymQmd+gzhicU1McGXE27MLeXUP3+KMrTjS7tvTa8pyY75m6t/cmlsBKDsafkP6VmdTRsUdsMK0W1J8ivDA81m2xmurT8eYXDhC6Mv14C0N9FMN8ZUTejnoGX6nb1mbdXsybOyA2VhZji6DdngoS0+y62k4/6DKPrkDQO6osz8LUNfa7LkoGvMU49R4HLkospKxfwEhwwqc9HSQ+9H+dKBn1NKPsUMdkKCNYmqa/qd2tH9IcvQo+thpGgxHo8Mlw4bYN4q7zqs++gtVFLN0GmOap8tc0S4jJpDNtTgd4RHYM+fl3XB4C/bo/iaS27n3vnFvL0oToOHwp7Yim7n3t7j6jb7oZxfiubd97Qtrg9SmsHzNM+gJe6aFUN1FaXYqxas+fwziuxu535Xw+AfROH3ctiq9lezRrraD6WamytpSs546jYTj4n6FCv5606yKlMMz+2FUBPR0QjbJrvgMVm8LWm1mMOaS+f0nhpRkM4PjhymEWLbT3VXq03Yg5bgRrD6qfTHzWEphqFo/PWurDzjO5dyM0C7/uF+hBiJCcgy06oxcp+CqBNaexDvu0UWVvpichbgLl/O94B8NVaaaWAnCwn9Q31NJfZsdWOR4yyi8K8AF2a56SxFR9mchOmOzBnBpTGM2lC+ofR+/6g8rFKoFtaw+veYB3VByk3y6R+/NSYt4iYMiVtZ9ZBdmidoxTTvVUHCdl2KTpXaSaUTCcuRXRD50yQUMxHKYqQKkv9fTLQWE5Rsh7GSi0uvICexrDH19G/Pa7XLRVcllxDbLqbVh/hToKh3u4N6ijM/AyDsafhwJ5vIqfMH45fNxwN6e2Pm/Jh7zl1vUxJlgkJqB7mIZ7omSBDqZRjfgZg13VbjyNtr2ZNbRCH309nJXHDmaIxaXocb85FpRPbwMGIb05sfgfmTMCm6k5U/Kb+rKJipGPT3bT6MihVyyg0hFy5N1jxZinXLew2eHrj6Ws66dXu3U1Xr2lIfU1EZKdFY2g9Hsm33tGwGlPU9ze3wUOnf7XS6Y3o7HqpLnkGKuPE2grAJDJs+y9e5IivIyb9iK+D/osXUy+w16N7TtPtPV0879b4Bzpf4vsra1jxxv0cPlTHCzXZ6buoauQVdRdGKbNiVNpqlZeslNYRfcSUxjYNVDZTmtkR46kZCsVw1Ly8ow/ViMStxsUCuCikC3djKz1Z9oTGRk5ZM4WoMq21k2PbxQHPamy2XXpgfrB/EJNtF6V5Jmzrm3FmHaSoO4g5y0zQ1xE5NJUGAv0hvSHdmX8C94iM/VzMpuFzTTSBfs0wjfWi5JQpQ7ia4ax5f1JLN4wqlLQSZJBgWnVugmgsV9+hZ6DSQ32xg/ri3LAxU6b+PQ4TcnKzEilaCF+tNfy+J2G8TToauwjl2xN71RebGe41C3unrewfsONUvdydleC2WilqN7NzmAl33qqSsBwNozIKsd7axPlN2LK6YkbZ3BvCz8no/U6Ubiy/vFsLmVMcMoXdyohcsNhgjMXo6zBCGxUhgmmNmU+nHhu8tRomO6VZB8PfQ4NHW5HpFmgcrdNn+jJpDFuAI7/rYKA/bMReufIRR34Xa+wOy5kBLuXdH7tSQcvbvJO3PBxmoGW/eJV7v6V5WZfhtMPFIV4CY36nu4R7Y67zHCue72PuPINhW1zPgTFZycBFoW5IGjxl7UFCJi08QB2KHQjyL+8PYsrXjDrlwxd636t4PdR0R8OWKM9pigxoky0KIwPj4+CNqE80SqOYrl6pq2k1wTY34KW6DVxRw5S5QLC/gx3Wcrr6wzLd7+vA23NCCdPY4NZy0tOiHNvR3UVXdyGdFghm5mKz2bHVJjOrPtlZuA7s+YNqmIixEQ0QDGlDaSgeGoIEkkp30Vw2wgHvBLqldx9GufqD13cCbLEhKe7ugMEL48Jpg+CZ1NONuJp2YRvoGt6Lp3qXRr5SgnFUIwXZVzbHWRkl+WtWlxg+vi0BpROp6486CpSEoRvoDxlCKuLLMlF+V5M2chM5LJ12htHL0cnSiJvWngIcasCyuztATnF9RJuaaOUVUNq8sHfagTlTMboc8zMIaaNpja34QskPNzvmZ4TbXYjrrY2f30twIOz9ptiMKcKIUsjNMsXO7UiUXlzPgbIMenxelM60NnqkjhBmjTTQJnl9ja6PI29kndfIZ6sxjB6n+K2P8da2d9ATCj+TGD0GmC6d8TFi0kwe03jl5Zf4wRM/BOC3L/9qZIV0vsRPOrby9KE6NgLhSWVHcT1/P4d31/EwhCeP1e1hn7uOw4dKAGXSV10nUBS/eH9dK6+3beLwoRIudXh4Pet+IHZC2b6VR+MXkFbcdA342en3s1NLUidelNeaOVDrp7MWdXKX8qLsmO/R84d821nTCFDOfotSDr2t7O9drU6NSpHGLk75leWx6O3AFxqmlMbwdZX6B0Y1uSM+ysQAWgyTNdqrWbNY+dD5WrroaAzA+x0E52/B5amnZ8BOqb8Zuy8DM8/QWpWL09+My1qOu9KM+X3IL2vG3JtLaVYr+8nA11auTpCop/5MdRIeWzddvU5y1OHSxH1vLx09W9jp91OqJamT9apLctXlxkCRnWK0eBOlN9oVnSgL4WvpwDSiGbSJdSstaM9GKx8I+VB0pUkJcQFlAosi4xTTjROMhpykZKCxi1NluaoneWReEnd3gM4yVfa+ADlDxXCnSrxVJIbVP0WvbDZlmHOou/JWlZAbV5aJ8j+D3bOLTr+TkK8VX6Yy2cW9oZVC/y46/buUjMnKPynGWC8NeKsO4vQ7FXlHtWHhNtU4gTOXnX4/zhYr5Y3leJv8ugxCvu3KjPb2gzijZRMzIc5Jp381vtoSOmyGyXkR9+qiuSwDX23kvUdM5jPkd284qLQVtaBNhIq7QoPqHRw+3TiZyk2rz2Nou0JKvcZYXwFQl2nU6jOkJkTUZxed/i3KPcR7tlXe9OlxcT0u2yBeq/FuvFRr7fQY6/F0ZUZeXt4NgEV3K72o3pNvT2iFAHLuUd6aU+8OFVur7Dy2YmXNeFRp3HE1RcUjaWizqY3LyRjjsaJ/f6HRZq4OZSy7lGW8fLm4cBOw1ZNbVU2g0kXu/NU4ImJxlbwdPvDqs6KVa5jbjbFjyRq26scm6+AwjaKLZn8hXfo9RP8Wxp44z3k6oM2Il/ZCmAokq6/R38lpxRDt/7S+7+SZlIZtskx3w7Y0avkcBc1Y03rFjph1CxMt0TKCWsSus0e8Ogmpo8o2Zn3LBLmj1o6Mu2zPSGsSVbZG+vRoiqMug5dOmU88yXT6JpbodVo1ptdzEJIjRX2dpgae9k7EvAMjGYWaxohhKwiCIAiCIEwLJtXksVQRo1YQBEEQBEHQuPnTz65PdB0EQRAEQRAEYdRMaY+tIAiCIAiCIGiIYStMAC6ah1lP0tFQbzjuotlTjwMH9Z7o81w0N4XX16xvcEBlM82VDuqbxn4hekEQBEEQJg9i2I4QbdvYkS/YPjyOBs8U2zJPWUC7uTKJRfp7EyyKX+yi2dOMnQIKG+o5oG3Na7Kz078LmymXUnWBbkdxPc1NZoKYqVfX2LSpu+aYirdgy7PjUuXnalI2enA0eMZl56XkGd7IH3MqmxWZjNkmIqmQgg4JKeCg3jPRzzZFJpVefsGYMNmPcBOG8UTbCljapknLlDZss+bNI//BbySd31qzlcOH6ka/3W1xPQ51ty9ZDik+gf5Q3J1q4uEoNjRhiwvJMeVis5nIsdmht4P9ta2c6m2lyLodn681vHOSrYCcPDu2PDu2zAC+lu0UtUBpWQahgUF8tbFbDnrfH4zcoUcI0x4kFLGjjfqR0fa01xryyubYtBGka53D6P3pNVLRocmC8Z5iP3xT4KM9GYnQS2W3Pl1fius5oMmzWOsI+6N2GNP0ONpAM+p3OL+jwRN+hsZnpZUf8fzU3QOjrhtRht9w7Yg6DlGW1nmPKke770TpiWUQWU/NITO0vkbLfjxQd8sbt3WVo9q4iGdiPGbQncZy5VuUuVo6W5OUSbfzWCqsdJSQvWgRBQ88yG9//SuufPRR4sxlm3j6gQBPrXwJP8twH3JS8/oeZYcxdY28/J4U1keMMY6i13zV1pk1pht3ZEkmXd1xKSEO6j1O6MnAZjMZyola21Zd187R4MGZNUhOXi6nfB2YbHbQ1sNT1+o05tfvrMlPKaNfG89R6YJGd6Tciutx1RZgx6vefxBfbRfYAgSxK3nagVonnX6lbmFOsL8FZYe0+YDFSSddFLWYqT/TAZV+OiuVdWLTRaL1ZI3pxjUGE6VHrtEZoGvIa3ow9w9isynPJ7y+bCIdQl3XsIAeY1pKhN+Jouj1Estgv9WKW83TXOmm/EyK6TQrOmV16/dYX+wdYV3jUNnMgflBQja7Ih9VpyM2PtE3Mwni9BQCueTQgW/Aji3PsF5mCrJ0b7DqW6Xq96p2fh0NW8jv6eBU/shvK0Jv9PdUWbA96ItuB4h8rwnhi1OOrpeqPHoG7NjirqEdRQIZj61eAqEAoSw7DryGtsRFc20BPbXKjmiOBg87m1y4NwSo92yBxlZO1a42SlLfcKPI6JworseVf4Id6k59riYP9mLwoupKS4CdMcZMHDlVlUTWzV+oGIfF6LsGxn4/VhOsjdyBy0HidXtj0x3UV4ZlQHE9B5pcuDe4cTUpOy8WaXq/3gW4h9TXUVNcz4H10JNpV75F8E0hTgAAEHpJREFUw+qr4bsVsxarUafC8o6rx4b7Gf6b7qW6xHC8splOS1B99ob2r7KZzsp6HO3ac/MSHNgyst05hTFnSntsNRYuupMfPPFDCh58MGEe57eyeeeVl/AD1prl3MutzFucvjroDYfVyg5fiJDvGarbI9OLWgaxVSq9wfjpqqFqKGd4crFlHVTzo+5fbdwjPrJnmZMZZEdLgBybGW+Ltm+3i+biIDvUPeX34xxhiIVy3fJGZQvO6AWkXRZ1G8RiM2SacWmGhdX4kTOTbzNjtu2iNB/MWUM1HWbM883YigvIt9mxEcSHGUdjNdXtudCzXe/5uzeo3tvG8pEb6JWaMWalqLaDUKgDt9ro6enWVkK2LYq8h0jfmX9ClXcrp4a9sAlbvvp8WgLkWBTPSiLdSpnGclVObsp1Y85OPur9GXDYCkDb17zSic0EpvmOlNMjcVGYZ8K8GIbUoRQx2QoI1qoyziscOtzDlAvt2/FhJ7+/FV8oA/OovTEhgmfUPyub2Zl1kDVVwZEXpxtd2nttfE9zyeeZyHbA0Akpsm5Hb06K63GpbUaRdTs9+VvCnieTHXO32g705lI4TDsQT8ZjqpcABOnqL8BprFtlITm9B/V2xFt1UK2Pl+qSOEZ0sZ38gdZYI649SMhUgL0YFL1UvZXt1awZoRfR0bAak/YOJKKyEJP6zUgXDlsBJnW77kB/SG83HLYCiDsSYtDXhLJPkTy70nlIRl+171ZLdN0iv4tFhg5nQj0eEQ7qizPwtSnGd2FeAG+VV03PBZOylW8Yrc0SJhvTwrAFuOWWW/ib760b0riFZbgP1fH0vCM81XGVedlaOILyQiXzEXU1+emsBHdSxpHycnRpjWdjKz7M5CZMz8VMB60p9ZhD6ouoDLMrhqpxqCpyV7JQTwdeIGRsaCsL1RhWZdglehcq9wbrqL21LptBZovN0B6kMO7Wv0FCWQWYfNvZ0VOAuVttxLRQhP7IcvOzguxoHwTfdoraID/PjLOhnvomJzbbrnGJUXZZcjnVrcnHTasPzIsTpzvmZ3CqPbWPpJ7/TJBQphlHQh1Saa9mjXUUXrHFZkwDmuciPERXAECuMkRXrHSSNJ1LKb2xFV+mU9XRQhh69+yRoRs6AYLDGqqaLAN4q6I+rCnJUhvy3UV+zzPhUZjiIDtGO+JhKwD1/QUv1e0BQydB+wgbOgSLzeFORVQ5pjxn3PaBULj9cW9IItQqRsZjrJcqgaqDSkhY4hwEh/ILLDZjwhwnFMFNufUg5lpFL5PbtjqX0oTD+S6ctkH92QBgaGv10IL5GYA9JhQBwGTbFTscHjfdS3X7ILZapQxX1iCaCLxVJezoX62kR20THquvaUTXJy8dPaGh9TURaic7+rs4pB6n8E3XqXRiGzgYKYPKZjr9uzC3b4/p7Lo3WOmySKztZGTaGLYan332ecJj9z6+nIvbaljhOgrAxb6+lMt3b1CGc1xRyhzoD5FTpjQoO/NPxHi6kqLYTOwGkiOguB6XbTDWUzMUvZpnUfmf7thhd1XYkHNZoKvRTWuPWfWMxGKybcGZhSpTJzl5Tjo9W8i3OcON/vtBQpl2dpblYrI5aV5vxmvtIphlxtzfgS/dW2+eCRLSGtLaAnoaR+bByc1Ky1MeW3QDWtX52g79I2myORUvjNop0eJgU0s3jiqU02X0Fk1p3JSr75CbLeqExdWGjqM2EXLsJ+QoxlJ8Qr7thvd99Ibm+OOma6AAe0KPWS7m4V6zvAJo1EbHMnA0qF5ufyFdVitFtUEcwz6n8POO9UrG8da2V7NGz28YxQFMNrNyXauV/QN2nJWK0ac/J4P3O1G6Ev+ppK9pC+ohc64mxaAtslrxZu0yGGOx+jqWhN5Pb+Rs+vTY6K3VyKVUHclUvoeRscZaWNMXffvayci0MWw///wzfvvrlzj1bnzXT+sbfdB7RI2pXYbTDhf1D6kSJD7yl9qBPV8zJI2B7wGCIcNwXqUTG0ECidKNw2DF9bji7JOeNKEgAVB6u8MVcyZIaIih2rTOTq9sxtGvNPTeqlaojFwRwDEfgv0n2G8tobX/hC7THb4O9refoKc2LN9cINjTSlFLB77aLrq6uyj0F0J/Bjk2OzbbriTqnfyEHoetgFBLbCNqHOZTPDQQPJNcuqvJGJedCol0S2W0s5nbO+ghvKqExgnfCUK6F0YZogu978WbYroRR4OH0swTdAz7UVK9S6PQxUC/5jVyUF9pT64jOUpZRhgh1lZOhTrYYdAfZXRl+PK97w9iyreHJ7bEkWWi/I6GLbpHK7KcdDPGemnA3XaC/GJlDIHGLk7lhUOuHA2ryUm08goobZ4hdCE3y6TIcrEZk3ZeezXe3lSGm3Mxm4wdtDjeWiPFZkyqseR9f9AwiubAnBnb0XPMz4g78TV+uovmWjuhbrdeXo9PyeFu69A7rSMhWX2NJNz+pYzaFjmjwmKG1uMUv+kx3lo3Xb2GkbJoPQaYNp3x6ceUnjym0Xf2LK/8+qWhJ4+1PMe+b9Vx+FAJAO88X6MauenAS0fPFnb6/ZRqSeoEgeqSXOVjXAZK0LvyongTpbcU0lnrp5MA+1sCOOaPoDrtHfRU7mKn38/OUAe+4YZ526tx2zyG+kdN+EgT4UloWhPs1eXT7Guly+eG94N0zC/E5WnG3JOBze/B7Bskny7cZwKYKz3Uo0zKM88PQr6T5qwAOWVm9reAyddKeZUXZU3bANXDemyVZ2ezKcOlQ04z8J3AVas9M9DlVFVCrrrcGCiTu6rbgfZE6c9g9+yi0+8k5GvFl1k4Aml6E+pWetDK30Wnf5eSFOqI0JWdqBM2GgFSTTdMBok7mSYebrp6neSoH+WR3KvyDHfR6YdTvg5Co5jIFUu8SZvD19LrO4HLZh/egGosZ8f8eLJMnH+/xc9Ovx96W9nfu1qZ7GJI3wkMO0ksJcZaLw20V+Nd76c0E8BNudZ21qLqlDYxMRxelVPrp3N9K0UbFL3U3k16W9VJZK341HcT1HJiJmrmstPvx9lipbwxcrKv/o6jdFpNvu2Rci2u50Ct1qFS2g83QGM53ia//q6FfNtZo02C0xTKcE/JpIcnmXqpbneGZaMe8461voIedrEzSjbxiZRxp9+p3oOX6kY7B2qNOlWOO2167KK5LANfbeSZ7g2t46PHQtqZsejOxTcA8u67H4Dek29PaIVSIWvePLLmzePE8ePje2F9NrWm6Mosz3A8VvTvLzZaYxtuaGNxNdQTqAqSW+nGTT31Z6qpXuzCRSGlli7DcI+D+oZcqn0BHO3hWdGOBg87sw4a8iVr2KLEURUHhzWuImbUx/ktjD2xz3k6oM2In4ohAcIXjyT1NeY7OZ1wqKttyDs7GZnShu1EonkBNGMt0TJQ6bxWNEMZikIyaB6LJHv6EUsnkYKnMYmaRCz/ZbhEuuOEpyyqNyeNMp8MJNPpm1AiPIwGptlzEJIjJX2droat9h2IWZJMmCyIYSsIgiAIgiBMC6bN5DFBEARBEAThi40YtoIgCIIgCMK0QAxbQRAEQRAEYVow9Q3bonW80LYOa7L5yzZx2L0syczKTmWHD9XxQk328NkFQRAEQRCECWPqG7ZjylFcK2t4quPqqEuyrDzN1sdP8/+3dz8vced3HMef+wdsZSTVZUtnk2jImrUEf7CZQwgxOF2wBEHQQEYaPa2wVOgKto7sHhKcrYI9eDKnTcA5xNCALBXasXFZpOiisSXGSbCbLnMIRsoMbnPfHuarEROTNWqjs8/Hab7f73s+fL63Fx8+n/f34vGX10qSJGn7DvQHGmJDCdqDNlh9qXyT+8XrcTpH4FS8h766N/MP0+PUd2aI3+jgXDFAOPhQw3+5/clnJKZPM5Rq4EQwbnZymJbEyz63m28V9Yu7L2/HVBNd4njmY+Z+8ke2/silJEmSduJAB9tkZ5xkpInR38LghVvMrD2INNF18gG90VvMECZ+o4Oh1jidF+IkWjuYeH+B+s6pDSNN0Rldu86H3FhimOQuzXMudYw5zvPLyl0aUJIkSc840MF2K6fOHYd/JoOgmyHxRYbRcBjYehV24+ovZJ6G5C39hd83FFTbaUmSpAPNPbYArR20l87SG41THx1n8XXPR5IkSdt28IPt9ArLxSWUb7g1k8lRfLI26JQQJn4+zHImWK391wrZ0pJnuyg8Xsmv0rZWru+1fbEP+MP4DH/u/2CHLyBJkqTdUABbEaaYSTfQnkrQztrhsWF6wz30pRJAcBhsJCifnuUfdASHzYLDYyMLLF5qyB8oS89yO1uSr400MXqllmIAOpioWztstr0Z/izyd359/KfBmEv0VP6Vz/700Y7fXJIkSU+9cfhI+fcAFe/lTzal7y281glJkiRJr+Lgb0WQJEmSMNhKkiSpQBhsJUmSVBAMtpIkSSoIBttXUBNt5Fo0RHO0mpofUN/cEqO/as+nJUmS9KNWAO2+dkuIrg8bKPk6yeyxGK1M0zj6zRa133H3Xo6bHOFaSxltQV1zS4zWw3B/Pk1pVQWh1TSXr94BHjE7v2mIqjrG3l/l8hfwm9afc3dkjMFHe/l+kiRJhc1g+xwPc0/IkV2/rqkq4+yxCGcObyiqinEm+DnWHWZkYJKbo0luAs3Rah4OJCHayKfdwXd6u2O0rj4hl1tYD8IAPFrlMUVkDLWSJEk7sv+CbaSJ0YslLFeEOZGe5XZpLeeYpffCLWZaO5i4FM7XZYN7wKl4D311bz4dIz1OfecUAJ3XZrhIkkjb0CtPaY4wLUtJGkeDG1V19DPJ7zavwm7+X2qMxlQQdFN3mHu7mq7SrVaBJUmStBP7L9gCVIRY/mQcrjTw1vVxFi9VUs5pYpfg82ic5MbaSBNdJx/QG73FDKcZSlUyE4Ta7ckxeHVt5DHaNj19NxpjLPqE+99+x8rSKhwKATmaW2LULiVfEHJDhEPwcPPt+Ukag//MDRh2JUmSdmp/Hh7LPuBv00B2luTap3CZYiYdpj3VQzzyw4caaju1o9VagJpD8NVIksaBr1hhlS/nVyFUDJRRy/RLVm6LKWGVOYDSIkp2NBNJkiRtZX+u2G4h2RknSZj4jQQTxRk+jw6TnF5hubiBvlQtAIvXN63o7olvmKWOriisTE0++zhUkd9bu5rm8tdFsLRWs8rK4z2fnCRJ0o/SgQq2eRkSF4bhRox3IkB5JW9NDlOfyDy3ejf22PKfDF+WVtPFvyGXX32dW4KxYxkaHwFvl9FMlvD5Bs4Uwf3U2n7cMvo/hNGr+WFqDhWBwVaSJGlPHKBge5qhVAMngqvs5DAt08D0AsupDibqnlYuXo/TOfK8MV5FGWcPZRlMZTkbtAOriTbyaWiBxqVwviNCKgPz+T26gxv+198dZnZgkqMtdRwdnYQQdj+QJEnaI28cPlL+PUDFe5UApO8tvNYJbdepeA9dJGkJVmw3X+9UTbSao6k73Ayum1ti/Co3TlsqF9wpo7+7kpWNfWir6hiLkm8Btl4T4d1vX9QbV5IkSTtx4IMtkSZGr9RSvH4j2Hv7GqckSZKk/7+DH2wlSZIk9mu7L0mSJGmbDLaSJEkqCAZbSZIkFQSDrSRJkgqCwVaSJEkFwWArSZKkgmCwlSRJUkEw2EqSJKkg/A+/dj31vVvFPQAAAABJRU5ErkJggg==;" vertex="1" parent="1">
                    <mxGeometry x="243" y="250" width="694" height="174" as="geometry"/>
                </mxCell>
            </root>
        </mxGraphModel>
    </diagram>
</mxfile>